<svg version="1" xmlns="http://www.w3.org/2000/svg" width="1280" height="1280" viewBox="0 0 960.000000 960.000000"><path d="M459 .7c-15.3.6-42 3.5-59 6.4C331.2 18.6 263.9 45.9 207.8 85c-67 46.6-119.4 106.3-155.7 177.3-23.5 46-39.7 97.1-47 148.2-3.8 26.6-4.5 36.8-4.5 69-.1 32.5.7 44.1 4.5 70.5C21.4 662.3 77.8 765.6 164 841.3c63.8 56 143.8 94.9 226.5 110.2 64.9 12 131.1 10.8 195.5-3.5 88-19.5 175.1-68.4 237.9-133.5 74.4-77.3 119.9-173.7 132.6-281 2.2-18.4 3.1-70.2 1.6-89-4.1-50.8-14.3-95-32.3-140.8-31.9-81.1-86.7-153.1-156.9-206.4C680.7 30.4 570.8-3.8 459 .7zm56.5 174.8c55.9 7.1 108.7 29.6 153 65 12.8 10.2 37 34.3 46.6 46.5 46.6 58.7 68 123.9 65.6 200-.9 27.6-4.5 51.2-11.7 76.2-3.2 11.1-9.8 29.8-10.9 31.1-.4.4-58.3-23.7-128.7-53.7-70.3-29.9-144.2-61.4-164.2-69.8l-36.3-15.5 60.8-.6c33.4-.4 80.7-.7 105.1-.7H639v-3.4c0-5.6-5.5-25.5-9.8-35.4-21.8-49.9-74.2-89.4-129.5-97.6-21.8-3.3-42.4-1.4-67.3 5.9-1.9.6-3-.8-9.1-11.2-50.8-86.2-63.8-108.1-65.1-110.1-1.4-2.2-1.3-2.3 5.2-5.2 22.7-10.3 61.9-20.3 90.1-22.9 13.4-1.3 47.1-.5 62 1.4zM237 383.3c96.1 40.8 90.5 38.3 90.4 41.4 0 1.5-1.3 8.9-2.7 16.3-5.4 28.5-5.6 39-1.1 61.6 6.8 34.4 20.8 60.9 44.8 85 27.4 27.3 56.7 41.2 95.8 45.5 12 1.3 33 .6 43.3-1.5 6.1-1.3 7.1-1.3 8.1 0 .7.8 17.3 28.9 36.9 62.5 21.9 37.3 35.4 61.4 34.9 61.9-1.4 1.4-26.3 9.4-38.4 12.4-68.3 16.6-140.7 8.1-205-24-30.8-15.4-54.1-32.4-79.6-57.8-34-34-55.7-68.2-70.7-111.4-16.1-46-19.9-96.4-11.2-147.9 4.3-25.1 14.3-61 16.8-60 .7.3 17.6 7.5 37.7 16z"/></svg>