<svg width="140" height="47" viewBox="0 0 140 47" fill="none" xmlns="http://www.w3.org/2000/svg">
<path d="M128.851 0.00015275H11.155C10.726 0.00015275 10.3021 0.000152749 9.87425 0.00250274C9.51607 0.00485273 9.16075 0.0116795 8.79913 0.0174252C8.01353 0.0267098 7.22978 0.0961221 6.45469 0.225059C5.68068 0.356802 4.93092 0.605177 4.23077 0.961781C3.53147 1.3214 2.8925 1.78869 2.33704 2.3467C1.77867 2.90314 1.31322 3.54631 0.958592 4.25148C0.602988 4.95524 0.356412 5.70939 0.227378 6.48787C0.097118 7.26537 0.0270238 8.05184 0.0177246 8.84021C0.00686756 9.20047 0.00572102 9.56192 0 9.92222V37.0814C0.00572102 37.4462 0.00686756 37.7997 0.0177246 38.1646C0.0270266 38.9529 0.0971208 39.7394 0.227378 40.5168C0.356055 41.2958 0.602647 42.0504 0.958592 42.7544C1.31306 43.4573 1.77857 44.0978 2.33704 44.6512C2.89039 45.2117 3.52978 45.6793 4.23077 46.0361C4.93092 46.3937 5.68059 46.6436 6.45469 46.7773C7.22991 46.9052 8.01358 46.9747 8.79913 46.9851C9.16075 46.9931 9.51607 46.9977 9.87425 46.9977C10.3021 47 10.726 47 11.155 47H128.851C129.272 47 129.699 47 130.119 46.9977C130.476 46.9977 130.842 46.9931 131.198 46.9851C131.982 46.9752 132.764 46.9058 133.538 46.7773C134.315 46.6426 135.067 46.3928 135.77 46.0361C136.471 45.6791 137.11 45.2115 137.662 44.6512C138.219 44.0957 138.686 43.4556 139.045 42.7544C139.398 42.0498 139.642 41.2953 139.769 40.5168C139.9 39.7393 139.972 38.953 139.986 38.1646C139.991 37.7997 139.991 37.4462 139.991 37.0814C140 36.6545 140 36.23 140 35.7962V11.2051C140 10.7748 140 10.3479 139.991 9.92222C139.991 9.56192 139.991 9.20047 139.986 8.84017C139.972 8.05172 139.9 7.26543 139.769 6.48782C139.642 5.70979 139.398 4.9557 139.045 4.25143C138.323 2.838 137.178 1.68748 135.77 0.961676C135.067 0.605942 134.314 0.357634 133.538 0.224953C132.764 0.0954482 131.982 0.0260118 131.198 0.0172607C130.842 0.0115267 130.476 0.00464123 130.119 0.00234999C129.699 0 129.272 0 128.851 0V0.00015275Z" fill="#313131"/>
<path d="M28.9781 23.8534C28.9907 22.8727 29.2501 21.9111 29.7321 21.0581C30.2142 20.2051 30.9032 19.4884 31.7352 18.9747C31.2067 18.2167 30.5094 17.5928 29.6989 17.1527C28.8883 16.7126 27.9867 16.4684 27.0657 16.4395C25.1011 16.2324 23.1965 17.6201 22.1954 17.6201C21.1749 17.6201 19.6335 16.46 17.9737 16.4943C16.9 16.5292 15.8537 16.8427 14.9366 17.4044C14.0195 17.9662 13.2629 18.7569 12.7406 19.6996C10.4779 23.6339 12.1657 29.4162 14.3331 32.5964C15.4175 34.1537 16.6849 35.8932 18.3433 35.8315C19.966 35.7639 20.5721 34.7923 22.5309 34.7923C24.4716 34.7923 25.0402 35.8315 26.7322 35.7923C28.4735 35.7639 29.5706 34.2281 30.617 32.6561C31.3962 31.5465 31.9957 30.3201 32.3935 29.0224C31.3818 28.5927 30.5185 27.8734 29.9112 26.9542C29.3038 26.035 28.9793 24.9566 28.9781 23.8534Z" fill="white"/>
<path d="M25.7823 14.3479C26.7317 13.2032 27.1995 11.7319 27.0862 10.2465C25.6357 10.3995 24.2958 11.0957 23.3335 12.1965C22.8631 12.7343 22.5027 13.3599 22.2731 14.0376C22.0435 14.7153 21.9492 15.4318 21.9955 16.1461C22.721 16.1536 23.4388 15.9957 24.0947 15.6842C24.7506 15.3727 25.3277 14.9158 25.7823 14.3479Z" fill="white"/>
<path d="M49.4911 32.8892H43.9533L42.6234 36.833H40.2778L45.5232 22.2419H47.9601L53.2055 36.833H50.8199L49.4911 32.8892ZM44.5269 31.0693H48.9165L46.7525 24.6688H46.692L44.5269 31.0693Z" fill="white"/>
<path d="M64.5336 31.5146C64.5336 34.8204 62.7718 36.9443 60.1132 36.9443C59.4397 36.9797 58.7699 36.8239 58.1805 36.4947C57.5911 36.1656 57.1059 35.6764 56.7804 35.0831H56.7301V40.3522H54.5559V26.1949H56.6605V27.9643H56.7005C57.0409 27.3739 57.5343 26.8872 58.1282 26.5561C58.7221 26.2249 59.3942 26.0616 60.0732 26.0836C62.7615 26.0836 64.5336 28.2179 64.5336 31.5146ZM62.2988 31.5146C62.2988 29.3608 61.1906 27.9448 59.4996 27.9448C57.8384 27.9448 56.721 29.3906 56.721 31.5146C56.721 33.658 57.8384 35.0935 59.4996 35.0935C61.1906 35.0935 62.2988 33.6878 62.2988 31.5146Z" fill="white"/>
<path d="M76.1918 31.5145C76.1918 34.8204 74.43 36.9443 71.7714 36.9443C71.0979 36.9797 70.4281 36.8239 69.8387 36.4947C69.2493 36.1656 68.7641 35.6763 68.4386 35.0831H68.3883V40.3522H66.2141V26.1949H68.3186V27.9643H68.3586C68.699 27.3739 69.1924 26.8872 69.7863 26.5561C70.3802 26.2249 71.0524 26.0616 71.7313 26.0836C74.4197 26.0836 76.1918 28.2179 76.1918 31.5145ZM73.957 31.5145C73.957 29.3608 72.8488 27.9448 71.1578 27.9448C69.4966 27.9448 68.3792 29.3906 68.3792 31.5145C68.3792 33.658 69.4966 35.0935 71.1578 35.0935C72.8488 35.0935 73.957 33.6878 73.957 31.5145H73.957Z" fill="white"/>
<path d="M83.8971 32.7676C84.0582 34.2146 85.4578 35.1646 87.3703 35.1646C89.2029 35.1646 90.5214 34.2145 90.5214 32.9098C90.5214 31.7773 89.7262 31.0992 87.8433 30.6344L85.9605 30.1789C83.2927 29.5317 82.0542 28.2787 82.0542 26.2454C82.0542 23.7279 84.2387 21.9987 87.3406 21.9987C90.4105 21.9987 92.5151 23.7279 92.5859 26.2454H90.3911C90.2597 24.7893 89.0612 23.9103 87.3097 23.9103C85.5583 23.9103 84.3597 24.7996 84.3597 26.0939C84.3597 27.1255 85.1252 27.7325 86.9978 28.1972L88.5985 28.5919C91.5793 29.2999 92.8178 30.5025 92.8178 32.6367C92.8178 35.3665 90.6527 37.0762 87.2092 37.0762C83.9873 37.0762 81.8119 35.4067 81.6714 32.7675L83.8971 32.7676Z" fill="white"/>
<path d="M97.5101 23.6774V26.1949H99.5244V27.9241H97.5101V33.7888C97.5101 34.6998 97.9134 35.1244 98.7989 35.1244C99.038 35.1202 99.2768 35.1033 99.5141 35.0739V36.7928C99.116 36.8675 98.7114 36.9013 98.3065 36.8937C96.162 36.8937 95.3256 36.0848 95.3256 34.0217V27.9241H93.7855V26.1949H95.3256V23.6774H97.5101Z" fill="white"/>
<path d="M100.691 31.5144C100.691 28.1673 102.654 26.064 105.715 26.064C108.786 26.064 110.739 28.1672 110.739 31.5144C110.739 34.8707 108.796 36.9648 105.715 36.9648C102.634 36.9648 100.691 34.8707 100.691 31.5144ZM108.524 31.5144C108.524 29.2183 107.476 27.8632 105.715 27.8632C103.953 27.8632 102.906 29.2287 102.906 31.5144C102.906 33.8196 103.953 35.1644 105.715 35.1644C107.476 35.1644 108.524 33.8196 108.524 31.5144H108.524Z" fill="white"/>
<path d="M112.532 26.1948H114.606V28.0055H114.656C114.796 27.44 115.126 26.9402 115.59 26.5902C116.054 26.2402 116.624 26.0613 117.204 26.0835C117.454 26.0826 117.704 26.11 117.949 26.165V28.2075C117.632 28.1104 117.302 28.0658 116.972 28.0755C116.656 28.0626 116.341 28.1186 116.049 28.2395C115.756 28.3604 115.494 28.5433 115.278 28.7759C115.063 29.0084 114.901 29.2849 114.802 29.5865C114.703 29.8881 114.67 30.2076 114.706 30.523V36.8329H112.532L112.532 26.1948Z" fill="white"/>
<path d="M127.973 33.7083C127.681 35.6395 125.808 36.9648 123.412 36.9648C120.331 36.9648 118.418 34.8913 118.418 31.5649C118.418 28.2281 120.341 26.064 123.321 26.064C126.251 26.064 128.094 28.0858 128.094 31.3113V32.0594H120.613V32.1914C120.579 32.5829 120.627 32.9773 120.756 33.3484C120.885 33.7195 121.091 34.0588 121.361 34.3438C121.63 34.6288 121.957 34.853 122.319 35.0014C122.682 35.1498 123.071 35.2191 123.463 35.2046C123.976 35.2529 124.492 35.1334 124.933 34.8638C125.373 34.5943 125.716 34.189 125.909 33.7083L127.973 33.7083ZM120.623 30.5333H125.919C125.939 30.1813 125.885 29.829 125.763 29.4986C125.64 29.1682 125.451 28.8667 125.207 28.6132C124.963 28.3597 124.67 28.1595 124.345 28.0253C124.021 27.8911 123.672 27.8258 123.321 27.8333C122.967 27.8312 122.616 27.8995 122.288 28.0344C121.961 28.1692 121.663 28.3678 121.412 28.6189C121.161 28.8699 120.962 29.1683 120.827 29.4969C120.692 29.8255 120.622 30.1777 120.623 30.5333V30.5333Z" fill="white"/>
<path d="M41.8691 8.9541V16H44.5107C46.6201 16 47.8262 14.7061 47.8262 12.4453C47.8262 10.2334 46.6055 8.9541 44.5107 8.9541H41.8691ZM43.1289 10.043H44.3447C45.7266 10.043 46.542 10.9268 46.542 12.4648C46.542 14.0371 45.7461 14.9111 44.3447 14.9111H43.1289V10.043Z" fill="white"/>
<path d="M51.7492 16.1074C53.3459 16.1074 54.3176 15.0625 54.3176 13.3291C54.3176 11.6006 53.341 10.5508 51.7492 10.5508C50.1623 10.5508 49.1809 11.6055 49.1809 13.3291C49.1809 15.0625 50.1477 16.1074 51.7492 16.1074ZM51.7492 15.0918C50.9045 15.0918 50.4211 14.4473 50.4211 13.3291C50.4211 12.2158 50.9045 11.5664 51.7492 11.5664C52.5891 11.5664 53.0725 12.2158 53.0725 13.3291C53.0725 14.4473 52.5939 15.0918 51.7492 15.0918Z" fill="white"/>
<path d="M62.7768 10.6582H61.5707L60.6869 14.6475H60.6039L59.5688 10.6582H58.4115L57.3861 14.6475H57.3031L56.4145 10.6582H55.1938L56.6391 16H57.8988L58.934 12.1523H59.017L60.057 16H61.3314L62.7768 10.6582Z" fill="white"/>
<path d="M64.1363 16H65.3473V12.8896C65.3473 12.1035 65.8014 11.6055 66.524 11.6055C67.2613 11.6055 67.6031 12.0156 67.6031 12.8311V16H68.8141V12.543C68.8141 11.2686 68.1646 10.5508 66.9732 10.5508C66.1773 10.5508 65.6402 10.917 65.3863 11.5127H65.3033V10.6582H64.1363V16Z" fill="white"/>
<path d="M70.5984 16H71.8094V8.59277H70.5984V16Z" fill="white"/>
<path d="M75.9473 16.1074C77.5439 16.1074 78.5156 15.0625 78.5156 13.3291C78.5156 11.6006 77.5391 10.5508 75.9473 10.5508C74.3604 10.5508 73.3789 11.6055 73.3789 13.3291C73.3789 15.0625 74.3457 16.1074 75.9473 16.1074ZM75.9473 15.0918C75.1025 15.0918 74.6191 14.4473 74.6191 13.3291C74.6191 12.2158 75.1025 11.5664 75.9473 11.5664C76.7871 11.5664 77.2705 12.2158 77.2705 13.3291C77.2705 14.4473 76.792 15.0918 75.9473 15.0918Z" fill="white"/>
<path d="M81.8625 15.1357C81.3254 15.1357 80.9396 14.8672 80.9396 14.418C80.9396 13.9834 81.257 13.7393 81.9357 13.6953L83.1418 13.6172V14.042C83.1418 14.6621 82.5949 15.1357 81.8625 15.1357ZM81.5061 16.0879C82.2043 16.0879 82.7902 15.7852 83.0881 15.2676H83.1711V16H84.3381V12.3525C84.3381 11.2197 83.5666 10.5508 82.1945 10.5508C80.925 10.5508 80.0412 11.1514 79.9436 12.0938H81.0861C81.1984 11.7324 81.5793 11.5371 82.1359 11.5371C82.7902 11.5371 83.1418 11.8301 83.1418 12.3525V12.8018L81.7648 12.8848C80.466 12.9629 79.7385 13.5195 79.7385 14.4863C79.7385 15.4629 80.4758 16.0879 81.5061 16.0879Z" fill="white"/>
<path d="M88.0316 16.0879C88.7738 16.0879 89.3891 15.7412 89.6918 15.1553H89.7748V16H90.9467V8.59277H89.7357V11.5078H89.6527C89.3695 10.9219 88.7641 10.5703 88.0316 10.5703C86.684 10.5703 85.8344 11.6348 85.8344 13.3242C85.8344 15.0234 86.6791 16.0879 88.0316 16.0879ZM88.4076 11.6006C89.2377 11.6006 89.7504 12.2646 89.7504 13.3291C89.7504 14.4033 89.2426 15.0576 88.4076 15.0576C87.5775 15.0576 87.0746 14.4082 87.0746 13.3291C87.0746 12.2549 87.5824 11.6006 88.4076 11.6006Z" fill="white"/>
<path d="M98.0457 16.1074C99.6424 16.1074 100.614 15.0625 100.614 13.3291C100.614 11.6006 99.6375 10.5508 98.0457 10.5508C96.4588 10.5508 95.4773 11.6055 95.4773 13.3291C95.4773 15.0625 96.4441 16.1074 98.0457 16.1074ZM98.0457 15.0918C97.201 15.0918 96.7176 14.4473 96.7176 13.3291C96.7176 12.2158 97.201 11.5664 98.0457 11.5664C98.8855 11.5664 99.3689 12.2158 99.3689 13.3291C99.3689 14.4473 98.8904 15.0918 98.0457 15.0918Z" fill="white"/>
<path d="M102.135 16H103.346V12.8896C103.346 12.1035 103.8 11.6055 104.522 11.6055C105.26 11.6055 105.602 12.0156 105.602 12.8311V16H106.812V12.543C106.812 11.2686 106.163 10.5508 104.972 10.5508C104.176 10.5508 103.639 10.917 103.385 11.5127H103.302V10.6582H102.135V16Z" fill="white"/>
<path d="M111.9 9.34961V10.6924H111.055V11.6592H111.9V14.5742C111.9 15.6094 112.388 16.0244 113.614 16.0244C113.848 16.0244 114.073 16 114.248 15.9658V15.0186C114.102 15.0332 114.009 15.043 113.838 15.043C113.33 15.043 113.106 14.8086 113.106 14.2812V11.6592H114.248V10.6924H113.106V9.34961H111.9Z" fill="white"/>
<path d="M115.808 16H117.019V12.8994C117.019 12.1328 117.463 11.6152 118.259 11.6152C118.963 11.6152 119.334 12.0303 119.334 12.8408V16H120.545V12.5527C120.545 11.2832 119.851 10.5605 118.709 10.5605C117.913 10.5605 117.341 10.9219 117.088 11.5225H117V8.59277H115.808V16Z" fill="white"/>
<path d="M124.521 11.5127C125.249 11.5127 125.727 12.0205 125.752 12.8115H123.237C123.291 12.0303 123.799 11.5127 124.521 11.5127ZM125.762 14.5303C125.586 14.9258 125.171 15.1455 124.57 15.1455C123.774 15.1455 123.262 14.5889 123.232 13.7002V13.6367H126.963V13.2461C126.963 11.5615 126.05 10.5508 124.526 10.5508C122.978 10.5508 122.016 11.6299 122.016 13.3486C122.016 15.0674 122.964 16.1074 124.536 16.1074C125.796 16.1074 126.689 15.502 126.909 14.5303H125.762Z" fill="white"/>
</svg>
