<?xml version="1.0" encoding="utf-8"?>
<!-- Generator: Adobe Illustrator 21.0.0, SVG Export Plug-In . SVG Version: 6.00 Build 0)  -->
<svg version="1.1" id="Layer_1" xmlns="http://www.w3.org/2000/svg" xmlns:xlink="http://www.w3.org/1999/xlink" x="0px" y="0px"
	 viewBox="0 0 772 1000" style="enable-background:new 0 0 772 1000;" xml:space="preserve">
<style type="text/css">
	.st0{fill:#141927;}
	.st1{fill:#31CB9E;}
</style>
<g>
	<g>
		<path class="st0" d="M280.1,658.8l-27.7,63.3c-2.4,5.4-5.3,9.4-8.7,11.9c-3.4,2.5-7.4,3.8-12.3,3.8c-3.1,0-6.2-0.3-9.4-1.2v-10.3
			c3.6,0.3,5.8,0.5,6.7,0.5c2.9,0,5.3-0.6,7.3-1.7c2-1.2,3.7-3.4,5.1-6.5l2.3-5.3L220.9,659H234l16.3,41.4l16.8-41.4L280.1,658.8z"
			/>
		<path class="st0" d="M320.3,657.9c8,0,14.7,2.8,20,8.4c5.3,5.7,8,12.7,8,21.2c0,8.4-2.7,15.5-7.9,21.2c-5.2,5.7-11.8,8.4-19.8,8.4
			c-4.2,0-8-0.8-11.5-2.4c-3.5-1.6-6.2-3.9-8.3-6.8v8h-11.3v-86.8h12.1V666c4.5-5.4,10.9-8.2,19.1-8.2L320.3,657.9z M318.5,706.1
			c5,0,8.9-1.9,12.2-5.3c3.4-3.5,5-8,5-13.4s-1.6-9.8-5-13.3c-3.4-3.5-7.5-5.2-12.5-5.2c-4.7,0-8.8,1.6-12.1,4.9
			c-3.4,3.2-5,7.9-5,13.9c0,6.1,1.7,10.8,5.1,13.9c3.4,3.1,7.4,4.6,12.1,4.6L318.5,706.1z"/>
		<path class="st0" d="M192.7,777.4c6.6,0,11.8,2.2,15.6,6.4c3.8,4.2,5.7,9.6,5.7,16.4v35.5h-12.1v-33.9c0-3.9-1.2-7.2-3.5-9.6
			c-2.3-2.4-5.3-3.7-9-3.7c-3.8,0-6.9,1.3-9.4,3.7c-2.4,2.4-3.6,5.6-3.6,9.4v34.1h-12.1v-57h11.3v5.7c4.3-4.6,10-6.9,17-6.9
			L192.7,777.4z"/>
		<path class="st0" d="M281.5,811.1h-42.3c0.8,4.7,2.9,8.4,6.2,11.1c3.4,2.7,7.5,3.9,12.5,3.9c5.9,0,11.5-2.2,16.5-6.7l5.8,8.3
			c-6.5,6.1-14,9.1-22.7,9.1c-8.8,0-16.1-2.9-21.9-8.6c-5.8-5.7-8.7-12.7-8.7-21.2c0-8.3,2.9-15.4,8.6-21.2
			c5.7-5.8,12.6-8.7,20.8-8.7c7.5,0,13.8,2.4,18.7,7.4c5,5,7.5,11.2,7.5,18.7C282.7,803.5,282.5,808.3,281.5,811.1z M255.8,787.7
			c-4,0-7.5,1.3-10.5,3.8c-3,2.5-5,5.9-5.9,10.2h30.9c-0.1-4.3-1.5-7.6-4.3-10.2c-2.8-2.5-6.2-3.8-10.3-3.8H255.8z"/>
		<path class="st0" d="M413,691.4h-42.3c0.8,4.7,2.9,8.4,6.2,11.1c3.4,2.7,7.5,3.9,12.5,3.9c5.9,0,11.5-2.2,16.5-6.7l5.8,8.3
			c-6.5,6.1-14,9.1-22.7,9.1c-8.8,0-16.1-2.9-21.9-8.6c-5.8-5.7-8.7-12.7-8.7-21.2c0-8.3,2.9-15.4,8.6-21.2
			c5.7-5.8,12.6-8.7,20.8-8.7c7.5,0,13.8,2.4,18.7,7.4c5,5,7.5,11.2,7.5,18.7C414.2,683.8,414.2,688.4,413,691.4z M387.3,668.1
			c-4,0-7.5,1.3-10.5,3.8c-3,2.5-5,5.9-5.9,10.2h30.9c-0.1-4.3-1.5-7.6-4.3-10.2c-2.8-2.5-6.2-3.8-10.3-3.8H387.3z"/>
		<path class="st0" d="M325.3,825.8c1.7,0,4.1-0.3,7.5-0.7v10.3c-3.8,0.8-7.2,1.3-10.1,1.3c-6.6,0-11.7-1.6-15.4-4.9
			c-3.7-3.2-5.6-8.2-5.6-14.8v-27.8h-9.3v-10.5h9.3v-14.9H314v14.9h16.9v10.5H314V816c0,3.6,0.9,6.1,2.8,7.6
			c1.9,1.5,4.6,2.2,8.3,2.2L325.3,825.8z"/>
		<path class="st0" d="M431.9,778.7l-25.2,58.1h-4.2L384.7,799l-17.8,37.8h-4.2l-25.2-58.1h13l14.9,37.1l17.2-38.4h4.2l17.5,38
			l14.7-36.7H431.9z"/>
		<path class="st0" d="M488.4,785.9c-5.8-5.6-12.9-8.4-21.2-8.4c-8.4,0-15.5,2.9-21.3,8.6c-5.8,5.7-8.7,12.7-8.7,21.1
			c0,8.3,2.9,15.4,8.7,21.1c5.8,5.7,12.8,8.6,21.3,8.7c8.3,0,15.4-2.9,21.3-8.7c5.9-5.8,8.8-12.8,8.8-21.2S494.3,791.6,488.4,785.9z
			 M479.5,820.1c-3.4,3.5-7.5,5.2-12.5,5.2c-5.1,0-9.3-1.7-12.6-5.2c-3.4-3.5-5-7.9-5-13.1c0-5.3,1.6-9.7,5-13.2
			c3.4-3.5,7.5-5.2,12.6-5.3l0.1,0c5,0.1,9.1,1.8,12.5,5.3c3.4,3.5,5,7.9,5,13.2C484.6,812.3,482.9,816.7,479.5,820.1z"/>
		<path class="st0" d="M539,778.1c1.7,0,3.2,0.2,4.6,0.6v10.8H540c-4.7,0-8.7,1.4-11.8,4.2c-3.1,2.8-4.7,6.6-4.7,11.6v30.5h-12.1
			v-57h11.3v7.4c4-5.3,9.6-8,16.7-8H539z"/>
		<path class="st0" d="M456.9,658.5c1.7,0,3.2,0.2,4.6,0.6v10.8h-3.7c-4.7,0-8.7,1.4-11.8,4.2c-3.1,2.8-4.7,6.6-4.7,11.6v30.5h-12.1
			v-57h11.3v7.4c4-5.3,9.6-8,16.7-8H456.9z"/>
		<path class="st0" d="M555.8,748.8H568v87h-12.1V748.8z M607.7,835.7h-14.6l-24.8-32.2l22.2-24.9h15l-22.9,25L607.7,835.7z"/>
		<path class="st0" d="M164.3,629.1h12.1v87h-12.1V629.1z M216.2,716.1h-14.6l-24.8-32.2L199,659h15l-22.9,25L216.2,716.1z"/>
	</g>
	<g>
		<path class="st1" d="M281.2,359.4L427,443c5.1,2.9,11.5-0.8,11.5-6.6v-154c0-5.9-6.4-9.6-11.5-6.6L281.2,359.4z"/>
		<path class="st1" d="M418.6,239.7l-96.9-74c-4.5-3.4-10.9-1-12.1,4.5l-35.4,164.6l143.6-82.5C422.5,249.7,423,243,418.6,239.7z"/>
		<path class="st1" d="M321.7,553l97-74c4.4-3.3,3.9-10-0.8-12.7l-143.7-82.4l35.4,164.7C310.7,554,317.2,556.4,321.7,553z"/>
		<path class="st1" d="M243.9,359.4L282,181.9c1.5-7-6.5-12-12.1-7.7l-97.7,74.5c-5,3.8-8,9.8-8,16.1v189c0,6.3,2.9,12.3,8,16.1
			l97.7,74.5c5.7,4.3,13.6-0.7,12.1-7.7L243.9,359.4z"/>
	</g>
</g>
</svg>
