<svg id="Layer_1" data-name="Layer 1" xmlns="http://www.w3.org/2000/svg" xmlns:xlink="http://www.w3.org/1999/xlink" viewBox="0 0 366.33 70"><defs><style>.cls-1{fill:none;}.cls-2{fill:url(#linear-gradient);}.cls-3,.cls-5{fill:#fff;}.cls-4{clip-path:url(#clip-path);}.cls-5{opacity:0.2;}.cls-6{fill:url(#linear-gradient-2);}.cls-7{fill:url(#linear-gradient-3);}</style><linearGradient id="linear-gradient" x1="58.65" y1="4.4" x2="0.43" y2="90.08" gradientUnits="userSpaceOnUse"><stop offset="0" stop-color="#1abc9c"/><stop offset="1" stop-color="#1a5daf"/></linearGradient><clipPath id="clip-path"><circle id="SVGID" class="cls-1" cx="37.86" cy="35" r="32"/></clipPath><linearGradient id="linear-gradient-2" x1="37.83" y1="3.36" x2="28.84" y2="63.33" xlink:href="#linear-gradient"/><linearGradient id="linear-gradient-3" x1="47.42" y1="4.8" x2="38.43" y2="64.77" xlink:href="#linear-gradient"/></defs><title>etherwalletcx-logo</title><circle class="cls-2" cx="37.86" cy="35" r="32"/><path class="cls-3" d="M24.95,27.45h0v0h0Z"/><g class="cls-4"><polygon class="cls-5" points="66.83 35.27 56.81 59.8 51.51 47.28 56.34 35.47 53.73 35.47 49.79 45.29 45.89 35.47 43.32 35.47 48.15 47.28 42.89 59.8 32.83 35.27 27.78 23.37 32.98 10.85 43 35.38 45.97 35.38 34.23 7.7 31.81 7.7 26 21.28 20.15 7.7 17.77 7.7 6.07 35.38 9 35.38 19.06 10.85 24.32 23.37 19.49 35.19 22.06 35.19 25.96 25.36 29.91 35.27 41.6 62.96 43.98 62.96 49.83 49.27 55.64 62.96 58.06 62.96 69.8 35.27 66.83 35.27"/><path class="cls-6" d="M40.2,47.5a10.13,10.13,0,0,1-2.34.27c-5.58,0-10.33-4.25-10.67-10.56a19.86,19.86,0,0,1,.57-3.57L19.13,30a22.3,22.3,0,0,0-1.36,7.7c0,10.82,9.27,19.59,20.09,19.59a19.53,19.53,0,0,0,7.26-1.39Z"/><path class="cls-7" d="M37.86,17a19.52,19.52,0,0,0-8.15,1.77l4.86,8.26a10.09,10.09,0,0,1,3.29-.55c4.94,0,10.18,4.14,10.68,9.24l-14.05.06L56.4,45.1a20,20,0,0,0,1.52-8.32C57.92,26,48.68,17,37.86,17Z"/><path class="cls-3" d="M24.95,27.45h0v0h0Z"/><path class="cls-3" d="M40.2,45.36a10.13,10.13,0,0,1-2.34.27c-5.58,0-10.33-4.25-10.67-10.56a19.86,19.86,0,0,1,.57-3.57l-8.63-3.68a22.3,22.3,0,0,0-1.36,7.7c0,10.82,9.27,19.59,20.09,19.59a19.53,19.53,0,0,0,7.26-1.39Z"/><path class="cls-3" d="M37.86,14.89a19.52,19.52,0,0,0-8.15,1.77l4.86,8.26a10.09,10.09,0,0,1,3.29-.55c4.94,0,10.18,4.14,10.68,9.24l-14.05.06L56.4,43a20,20,0,0,0,1.52-8.32C57.92,23.82,48.68,14.89,37.86,14.89Z"/></g><path class="cls-3" d="M109.08,44.56V30.21l-5.59,10.69H101.2L95.61,30.21V44.56H91.4V22.88h4.52l6.41,12.34,6.47-12.34h4.49V44.56h-4.21Z"/><path class="cls-3" d="M118.06,47.67a8,8,0,0,0,1,.23,5.53,5.53,0,0,0,.82.08,1.75,1.75,0,0,0,.73-0.15,1.57,1.57,0,0,0,.61-0.53,5.23,5.23,0,0,0,.55-1.05q0.27-.67.58-1.68l-6.32-16h4.21L124.59,41l3.85-12.46h3.85l-6.72,19.18a5.73,5.73,0,0,1-2,2.75,5.58,5.58,0,0,1-3.48,1.07,6.65,6.65,0,0,1-1-.08,6.36,6.36,0,0,1-1.05-.26V47.67Z"/><path class="cls-3" d="M150.27,40.86v3.69H135.22V22.88H150v3.69H139.43v5.22h9.13v3.42h-9.13v5.65h10.84Z"/><path class="cls-3" d="M162.64,43.73a18.25,18.25,0,0,1-2,.73,8.47,8.47,0,0,1-2.5.37,5.82,5.82,0,0,1-1.6-.21,3.51,3.51,0,0,1-1.31-.69,3.35,3.35,0,0,1-.9-1.22,4.41,4.41,0,0,1-.34-1.82V31.7h-2.11V28.56H154V23.37h4.09v5.19h3.36V31.7h-3.36v7.82a1.45,1.45,0,0,0,.44,1.21,1.69,1.69,0,0,0,1.08.35,3.76,3.76,0,0,0,1.25-.21q0.61-.21,1-0.37Z"/><path class="cls-3" d="M180,44.56h-4.09v-9a4.53,4.53,0,0,0-.7-2.79,2.37,2.37,0,0,0-2-.9,3.13,3.13,0,0,0-1.16.24,4.54,4.54,0,0,0-1.16.69,5.86,5.86,0,0,0-1,1.05,4.16,4.16,0,0,0-.67,1.34v9.34h-4.09V22.27h4.09v9.25a6.17,6.17,0,0,1,2.4-2.4,6.77,6.77,0,0,1,3.34-.84,5.27,5.27,0,0,1,2.53.53A4,4,0,0,1,179,30.24a5.85,5.85,0,0,1,.76,2,12.48,12.48,0,0,1,.21,2.32v10Z"/><path class="cls-3" d="M191.25,44.86a8.88,8.88,0,0,1-3.48-.66,7.85,7.85,0,0,1-4.35-4.41,8.43,8.43,0,0,1-.6-3.15,8.91,8.91,0,0,1,.58-3.22,7.86,7.86,0,0,1,1.68-2.66A8,8,0,0,1,187.75,29a8.9,8.9,0,0,1,3.53-.67,8.68,8.68,0,0,1,3.5.67,8.05,8.05,0,0,1,2.63,1.8,7.67,7.67,0,0,1,1.65,2.63,8.75,8.75,0,0,1,.56,3.11q0,0.4,0,.76a3.14,3.14,0,0,1-.08.61H187.16a4.75,4.75,0,0,0,.46,1.68,4.11,4.11,0,0,0,2.26,2,4.31,4.31,0,0,0,1.53.27,4.72,4.72,0,0,0,2.31-.6,3.15,3.15,0,0,0,1.48-1.57l3.51,1a7.14,7.14,0,0,1-2.82,3A8.75,8.75,0,0,1,191.25,44.86Zm4.15-9.65a4.26,4.26,0,0,0-1.33-2.89,4.17,4.17,0,0,0-5.66,0,4.19,4.19,0,0,0-.9,1.25,4.41,4.41,0,0,0-.41,1.62h8.31Z"/><path class="cls-3" d="M212,32.1a8.07,8.07,0,0,0-3.33.72,4.2,4.2,0,0,0-2.11,2.06v9.68h-4.09v-16h3.76V32a7.29,7.29,0,0,1,1-1.48,7.76,7.76,0,0,1,1.25-1.15,5.82,5.82,0,0,1,1.36-.75,3.76,3.76,0,0,1,1.33-.26h0.5a1.66,1.66,0,0,1,.32,0V32.1Z"/><path class="cls-3" d="M222.42,22.94h3.88l2.44,7.18,2.44-7.18h3.91L231.4,32.8l2.75,6.93,6.14-16.86h4.58L236,44.56H232.5l-3.76-9.1L225,44.56h-3.54l-8.76-21.68h4.52l6.17,16.86,2.69-6.93Z"/><path class="cls-3" d="M249.85,44.86a6.07,6.07,0,0,1-2.17-.38,5.21,5.21,0,0,1-1.74-1.07,5,5,0,0,1-1.15-1.6,4.85,4.85,0,0,1-.41-2,4.44,4.44,0,0,1,.5-2.09,4.8,4.8,0,0,1,1.4-1.63A7,7,0,0,1,248.44,35a9.4,9.4,0,0,1,2.75-.38,11.85,11.85,0,0,1,2.09.18,8.54,8.54,0,0,1,1.82.52V34.42a3.21,3.21,0,0,0-.9-2.44,3.75,3.75,0,0,0-2.67-.85,7.08,7.08,0,0,0-2.5.46,11.63,11.63,0,0,0-2.5,1.34l-1.25-2.6a11.82,11.82,0,0,1,6.66-2A7.8,7.8,0,0,1,257.28,30a6.21,6.21,0,0,1,1.91,4.9v5a1.44,1.44,0,0,0,.23.92,1,1,0,0,0,.75.31v3.48a9.14,9.14,0,0,1-1.8.21,2.73,2.73,0,0,1-1.79-.52,2.23,2.23,0,0,1-.78-1.37L255.71,42a7.08,7.08,0,0,1-2.6,2.14A7.45,7.45,0,0,1,249.85,44.86Zm1.16-3a5.33,5.33,0,0,0,2-.37,3.58,3.58,0,0,0,1.45-1,1.47,1.47,0,0,0,.67-1.16V37.53a10,10,0,0,0-1.59-.44,8.58,8.58,0,0,0-1.65-.17,4.37,4.37,0,0,0-2.6.72,2.15,2.15,0,0,0-1,1.82,2.18,2.18,0,0,0,.79,1.73A2.88,2.88,0,0,0,251,41.87Z"/><path class="cls-3" d="M263.28,22.27h4.09V39.43a2,2,0,0,0,.43,1.37,1.54,1.54,0,0,0,1.22.49,3.06,3.06,0,0,0,.81-0.12,5.46,5.46,0,0,0,.84-0.31L271.22,44a7.9,7.9,0,0,1-1.92.61,10.52,10.52,0,0,1-2,.21,4.1,4.1,0,0,1-3-1,3.88,3.88,0,0,1-1.05-2.92V22.27Z"/><path class="cls-3" d="M273.27,22.27h4.09V39.43a2,2,0,0,0,.43,1.37,1.54,1.54,0,0,0,1.22.49,3.06,3.06,0,0,0,.81-0.12,5.46,5.46,0,0,0,.84-0.31L281.2,44a7.9,7.9,0,0,1-1.92.61,10.52,10.52,0,0,1-2,.21,4.1,4.1,0,0,1-3-1,3.88,3.88,0,0,1-1.05-2.92V22.27Z"/><path class="cls-3" d="M290.7,44.86a8.88,8.88,0,0,1-3.48-.66,7.85,7.85,0,0,1-4.35-4.41,8.43,8.43,0,0,1-.6-3.15,8.91,8.91,0,0,1,.58-3.22,7.86,7.86,0,0,1,1.68-2.66A8,8,0,0,1,287.2,29a8.9,8.9,0,0,1,3.53-.67,8.68,8.68,0,0,1,3.5.67,8.05,8.05,0,0,1,2.63,1.8,7.67,7.67,0,0,1,1.65,2.63,8.75,8.75,0,0,1,.56,3.11q0,0.4,0,.76a3.14,3.14,0,0,1-.08.61H286.61a4.75,4.75,0,0,0,.46,1.68,4.11,4.11,0,0,0,2.26,2,4.31,4.31,0,0,0,1.53.27,4.72,4.72,0,0,0,2.31-.6,3.15,3.15,0,0,0,1.48-1.57l3.51,1a7.14,7.14,0,0,1-2.82,3A8.75,8.75,0,0,1,290.7,44.86Zm4.15-9.65a4.26,4.26,0,0,0-1.33-2.89,4.17,4.17,0,0,0-5.66,0,4.19,4.19,0,0,0-.9,1.25,4.41,4.41,0,0,0-.41,1.62h8.31Z"/><path class="cls-3" d="M311.34,43.73a18.25,18.25,0,0,1-2,.73,8.47,8.47,0,0,1-2.5.37,5.82,5.82,0,0,1-1.6-.21,3.51,3.51,0,0,1-1.31-.69,3.35,3.35,0,0,1-.9-1.22,4.41,4.41,0,0,1-.34-1.82V31.7h-2.11V28.56h2.11V23.37h4.09v5.19h3.36V31.7h-3.36v7.82a1.45,1.45,0,0,0,.44,1.21,1.69,1.69,0,0,0,1.08.35,3.76,3.76,0,0,0,1.25-.21q0.61-.21,1-0.37Z"/><path class="cls-3" d="M320.5,33.56a11.23,11.23,0,0,1,.72-3.92,10.52,10.52,0,0,1,5.45-5.94,10.38,10.38,0,0,1,4.52-.95,9.86,9.86,0,0,1,5.18,1.31,8.39,8.39,0,0,1,3.25,3.42l-3.24,2.23a5.54,5.54,0,0,0-1-1.54,5.21,5.21,0,0,0-1.31-1,5.91,5.91,0,0,0-1.47-.53,7,7,0,0,0-1.5-.17,5.68,5.68,0,0,0-2.76.64,6.08,6.08,0,0,0-2,1.66,7.34,7.34,0,0,0-1.18,2.32,8.78,8.78,0,0,0-.4,2.58,8.41,8.41,0,0,0,.46,2.76,7.35,7.35,0,0,0,1.3,2.34,6.49,6.49,0,0,0,2,1.62,5.51,5.51,0,0,0,2.58.61,6.79,6.79,0,0,0,1.53-.18,5.8,5.8,0,0,0,1.51-.58,5.73,5.73,0,0,0,1.33-1,4.72,4.72,0,0,0,1-1.51l3.45,2a6.52,6.52,0,0,1-1.48,2.15,9.52,9.52,0,0,1-2.17,1.57,11.07,11.07,0,0,1-2.58,1,11.31,11.31,0,0,1-2.69.34,9.23,9.23,0,0,1-4.24-1,11,11,0,0,1-3.31-2.55,11.82,11.82,0,0,1-2.17-3.57A11.15,11.15,0,0,1,320.5,33.56Z"/><path class="cls-3" d="M345.14,22.88l5.4,8.06,5.37-8.06h4.55l-7.73,11,7.48,10.69h-4.55l-5.13-7.76-5.16,7.76h-4.58l7.48-10.69-7.73-11h4.58Z"/></svg>