<svg xmlns="http://www.w3.org/2000/svg" xmlns:xlink="http://www.w3.org/1999/xlink" width="422.389" height="489.788"><defs><linearGradient id="f" gradientTransform="scale(-113.89218 113.89218) rotate(-12.654 16.501 29.605)" gradientUnits="userSpaceOnUse" x2="1"><stop offset="0" stop-color="#fff"/><stop offset="1" stop-color="#d1d1d1"/></linearGradient><clipPath id="h"><path d="M0 768h1366V0H0z"/></clipPath><clipPath id="i"><path d="M671.448 659h158.128V386.536H671.448z"/></clipPath><clipPath id="j"><path d="M513.393 659h158.055V385.116H513.393z"/></clipPath><clipPath id="k"><path d="M587.911 468.864h170.867V357.671H587.911z"/></clipPath><clipPath id="l"><path d="M587.911 413.268c0 30.705 38.25 55.596 85.434 55.596 47.183 0 85.433-24.891 85.433-55.596 0-30.706-38.25-55.597-85.433-55.597-47.184 0-85.434 24.891-85.434 55.597"/></clipPath><radialGradient fx="0" fy="0" cx="0" cy="0" r="1" gradientUnits="userSpaceOnUse" gradientTransform="matrix(85.4338 0 0 -55.59661 673.345 413.268)" spreadMethod="pad" id="a"><stop offset="0" stop-color="#fff"/><stop offset=".626" stop-color="#fff"/><stop offset="1" stop-opacity="0" stop-color="#fff"/></radialGradient><mask maskUnits="userSpaceOnUse" x="0" y="0" width="1" height="1" id="m"><path d="M-32768 32767h65535v-65535h-65535z" fill="url(#a)"/></mask><radialGradient fx="0" fy="0" cx="0" cy="0" r="1" gradientUnits="userSpaceOnUse" gradientTransform="matrix(85.4338 0 0 -55.59661 673.345 413.268)" spreadMethod="pad" id="n"><stop offset="0" stop-color="#1d1d1b"/><stop offset=".626" stop-color="#1d1d1b"/><stop offset="1" stop-color="#1d1d1b"/></radialGradient><linearGradient x2="1" gradientUnits="userSpaceOnUse" gradientTransform="scale(-113.89218 113.89218) rotate(-12.654 16.501 29.605)" id="v"><stop offset="0" stop-color="#fff"/><stop offset="1" stop-color="#d1d1d1"/></linearGradient><linearGradient x2="1" gradientUnits="userSpaceOnUse" gradientTransform="scale(119.22402 -119.22402) rotate(-45 -1.5 -8.575)" id="w"><stop offset="0" stop-color="#fff"/><stop offset="1" stop-color="#cecece"/></linearGradient><linearGradient x2="1" gradientUnits="userSpaceOnUse" gradientTransform="scale(116.28767 -116.28767) rotate(76.992 5.907 1.149)" id="x"><stop offset="0" stop-color="#cecece"/><stop offset="1" stop-color="#fff"/></linearGradient><linearGradient x2="1" gradientUnits="userSpaceOnUse" gradientTransform="matrix(0 167.99771 167.99771 0 671.73 390.744)" id="b"><stop offset="0" stop-opacity="0" stop-color="#fff"/><stop offset=".32" stop-opacity="0" stop-color="#fff"/><stop offset="1" stop-color="#fff"/></linearGradient><linearGradient x2="1" gradientUnits="userSpaceOnUse" gradientTransform="matrix(0 167.99771 167.99771 0 671.73 390.744)" id="L"><stop offset="0" stop-color="#ddc454"/><stop offset=".32" stop-color="#ececec"/><stop offset="1" stop-color="#e5e5e5"/></linearGradient><clipPath id="y"><path d="M587.73 558.742h167.998V390.744H587.73z"/></clipPath><clipPath id="z"><path d="M587.73 474.743c0 46.391 37.608 83.999 83.999 83.999s84-37.608 84-83.999-37.609-83.999-84-83.999-83.999 37.608-83.999 83.999"/></clipPath><linearGradient x2="1" gradientUnits="userSpaceOnUse" gradientTransform="matrix(0 167.99771 167.99771 0 671.73 390.744)" id="c"><stop offset="0" stop-opacity="0" stop-color="#fff"/><stop offset=".318" stop-opacity="0" stop-color="#fff"/><stop offset="1" stop-color="#fff"/></linearGradient><mask maskUnits="userSpaceOnUse" x="0" y="0" width="1" height="1" id="A"><path d="M-32768 32767h65535v-65535h-65535z" fill="url(#c)"/></mask><clipPath id="B"><path d="M635.16 514.29h76.369v-76.369H635.16z"/></clipPath><clipPath id="C"><path d="M635.16 476.105c0 21.089 17.096 38.185 38.185 38.185 21.089 0 38.184-17.096 38.184-38.185 0-21.088-17.095-38.184-38.184-38.184s-38.185 17.096-38.185 38.184"/></clipPath><radialGradient fx="0" fy="0" cx="0" cy="0" r="1" gradientUnits="userSpaceOnUse" gradientTransform="matrix(38.18456 0 0 -38.18456 673.345 476.106)" spreadMethod="pad" id="d"><stop offset="0" stop-color="#fff"/><stop offset=".849" stop-color="#fff"/><stop offset="1" stop-opacity="0" stop-color="#fff"/></radialGradient><mask maskUnits="userSpaceOnUse" x="0" y="0" width="1" height="1" id="D"><path d="M-32768 32767h65535v-65535h-65535z" fill="url(#d)"/></mask><radialGradient fx="0" fy="0" cx="0" cy="0" r="1" gradientUnits="userSpaceOnUse" gradientTransform="matrix(38.18456 0 0 -38.18456 673.345 476.106)" spreadMethod="pad" id="E"><stop offset="0" stop-color="#fff"/><stop offset=".849" stop-color="#fff"/><stop offset="1" stop-color="#fff"/></radialGradient><clipPath id="p"><path d="M671.448 564.683h158.138V292.307H671.448z"/></clipPath><clipPath id="F"><path d="M513.393 659h316.183V472.001H513.393z"/></clipPath><clipPath id="G"><path d="M513.393 564.809L671.465 659l158.111-94.22L671.448 472z" clip-rule="evenodd"/></clipPath><linearGradient x2="1" gradientUnits="userSpaceOnUse" gradientTransform="matrix(0 186.99942 186.99942 0 671.485 472)" id="e"><stop offset="0" stop-opacity="0" stop-color="#fff"/><stop offset=".375" stop-opacity="0" stop-color="#fff"/><stop offset="1" stop-opacity=".7" stop-color="#fff"/></linearGradient><mask maskUnits="userSpaceOnUse" x="0" y="0" width="1" height="1" id="H"><path d="M-32768 32767h65535v-65535h-65535z" fill="url(#e)"/></mask><clipPath id="o"><path d="M513.343 564.81h158.105V292.307H513.343z"/></clipPath><linearGradient x2="1" gradientUnits="userSpaceOnUse" gradientTransform="rotate(-90 284.597 73.077) scale(223.99694)" id="g"><stop offset="0" stop-color="#ddc454"/><stop offset=".318" stop-color="#ddc454"/><stop offset="1" stop-color="#ddc454"/></linearGradient><clipPath id="I"><path d="M587.73 558.742h167.998V390.744H587.73z"/></clipPath><clipPath id="J"><path d="M587.73 474.743c0 46.391 37.608 83.999 83.999 83.999s84-37.608 84-83.999-37.609-83.999-84-83.999-83.999 37.608-83.999 83.999"/></clipPath><mask maskUnits="userSpaceOnUse" x="0" y="0" width="1" height="1" id="K"><path d="M-32768 32767h65535v-65535h-65535z" fill="url(#b)"/></mask><linearGradient xlink:href="#f" id="q" x1="596.796" y1="452.382" x2="745.968" y2="452.382" gradientUnits="userSpaceOnUse"/><linearGradient xlink:href="#f" id="u" gradientUnits="userSpaceOnUse" x1="596.796" y1="452.382" x2="745.968" y2="452.382"/><linearGradient xlink:href="#f" id="t" gradientUnits="userSpaceOnUse" x1="596.796" y1="452.382" x2="745.968" y2="452.382"/><linearGradient xlink:href="#f" id="s" gradientUnits="userSpaceOnUse" x1="596.796" y1="452.382" x2="745.968" y2="452.382"/><linearGradient xlink:href="#f" id="r" gradientUnits="userSpaceOnUse" x1="596.796" y1="452.382" x2="745.968" y2="452.382"/></defs><path d="M99.521 245.676c0-61.855 50.144-111.999 111.999-111.999s112 50.144 112 111.999-50.145 111.999-112 111.999S99.521 307.53 99.521 245.676" opacity=".83" fill="url(#g)"/><path d="M.405 365.18L211.168 239.59 421.53 363.284 211.145 488.923z" fill="#474c4e" fill-rule="evenodd"/><g clip-path="url(#h)" transform="matrix(1.33333 0 0 -1.33333 -684.119 878.667)"><g clip-path="url(#i)" opacity=".86"><path d="M671.448 659l158.128-94.22-.377-178.244-157.75 92.771z" fill="#899195" fill-rule="evenodd"/></g><g clip-path="url(#j)" opacity=".41"><path d="M671.448 659l-158.055-94.189V385.116l158.055 94.189z" fill="#a0adad" fill-rule="evenodd"/></g><g><g clip-path="url(#k)"><g clip-path="url(#l)" opacity=".77"><g mask="url(#m)"><path d="M587.911 413.268c0 30.705 38.25 55.596 85.434 55.596 47.183 0 85.433-24.891 85.433-55.596 0-30.706-38.25-55.597-85.433-55.597-47.184 0-85.434 24.891-85.434 55.597" fill="url(#n)"/></g></g></g></g></g><g fill="#fff"><g clip-path="url(#o)" opacity=".75" transform="matrix(1.3362 0 0 -1.33333 -685.588 878.667)"><path d="M513.343 385.129l158.105-92.821V470.57l-158.055 94.24z" fill-rule="evenodd"/></g></g><g fill="#fff"><g clip-path="url(#p)" opacity=".7" transform="matrix(1.3362 0 0 -1.33333 -686.492 878.667)"><path d="M829.586 564.683l-158.138-94.19V292.309l157.788 94.229z" fill-rule="evenodd"/></g></g><path d="M603.247 482.749c-12.821-12.108-4.078-41.239 5.036-62.727 15.37-17.763 38.077-29.002 63.41-29.002 32.262 0 60.263 18.23 74.275 44.949l-77.157 7.044 13.113 46.094-4.769 24.636s-52.451-10.729-73.908-30.994" fill="url(#u)" transform="matrix(1.33333 0 0 -1.33333 -684.119 878.667)"/><path d="M587.874 474.839c0-25.394 11.295-48.15 29.133-63.521-4.851 23.837-11.602 88.151 54.686 95.186 18.575-7.463 20.794-16.023 20.794-16.023l11.026-7.975-12.156 48.129-68.242 12.518c-21.33-15.196-35.241-40.13-35.241-68.314" fill="url(#v)" transform="matrix(1.33333 0 0 -1.33333 -684.119 878.667)"/><path d="M715.699 480.763l-30.597-6.359s-17.484 25.965-41.722-6.22c13.253-57.317 72.076-52.022 91.267-48.678 12.986 14.763 20.866 34.126 20.866 55.333 0 28.465-14.194 53.613-35.887 68.763z" fill="url(#w)" transform="matrix(1.33333 0 0 -1.33333 -684.119 878.667)"/><path d="M610.848 532.485c14.947 2.434 43.197 4.081 63.526-9.603 23.769-16 27.074-31.259 29.142-43.146 1.59-9.14-27.995-33.933-27.995-33.933s39.023-.282 51.305 42.907c4.826 16.976 4.021 34.027 1.781 47.657-14.948 13.833-34.942 22.291-56.914 22.291-23.959 0-45.569-10.055-60.845-26.173" fill="url(#x)" transform="matrix(1.33333 0 0 -1.33333 -684.119 878.667)"/><path d="M173.45 243.86c0-22.217 18.008-40.225 40.224-40.225 22.215 0 40.224 18.008 40.224 40.224 0 22.215-18.009 40.224-40.224 40.224-22.216 0-40.224-18.009-40.224-40.224" fill="#fff"/><g clip-path="url(#B)" opacity=".93" transform="matrix(1.33333 0 0 -1.33333 -684.119 878.667)"><g clip-path="url(#C)"><g mask="url(#D)"><path d="M635.16 476.105c0 21.089 17.096 38.185 38.185 38.185 21.089 0 38.184-17.096 38.184-38.185 0-21.088-17.095-38.184-38.184-38.184s-38.185 17.096-38.185 38.184" fill="url(#E)"/></g></g></g><g fill="#fff"><g clip-path="url(#F)" transform="matrix(1.33333 0 0 -1.33333 -684.119 878.667)"><g clip-path="url(#G)"><g mask="url(#H)"><path d="M513.393 564.809L671.465 659l158.111-94.22L671.448 472z" fill-rule="evenodd"/></g></g></g></g></svg>
