<svg width="159" height="47" viewBox="0 0 159 47" fill="none" xmlns="http://www.w3.org/2000/svg">
<path fill-rule="evenodd" clip-rule="evenodd" d="M152.75 47H5.875C2.64375 47 0 44.3563 0 41.125V5.875C0 2.64375 2.64375 0 5.875 0H152.75C155.981 0 158.625 2.64375 158.625 5.875V41.125C158.625 44.3563 155.981 47 152.75 47Z" fill="#313131"/>
<path d="M54.9629 12.1777V11.2939H52.0381V12.2803H53.7324L53.7275 12.4268C53.708 13.3984 52.9756 14.0527 51.9014 14.0527C50.6465 14.0527 49.8604 13.0664 49.8604 11.4648C49.8604 9.88281 50.6318 8.90137 51.8623 8.90137C52.7656 8.90137 53.3955 9.3457 53.6494 10.1465H54.9043C54.6797 8.70605 53.4883 7.77832 51.8623 7.77832C49.8555 7.77832 48.5713 9.21875 48.5713 11.4746C48.5713 13.7598 49.8408 15.1758 51.8818 15.1758C53.7617 15.1758 54.9629 14.0088 54.9629 12.1777Z" fill="white"/>
<path d="M61.2883 13.9111H57.9875V11.9385H61.1076V10.9131H57.9875V9.04297H61.2883V7.9541H56.7277V15H61.2883V13.9111Z" fill="white"/>
<path d="M66.1635 15V9.04297H68.3363V7.9541H62.7357V9.04297H64.9037V15H66.1635Z" fill="white"/>
<path d="M74.1805 15V7.9541H72.9207V15H74.1805Z" fill="white"/>
<path d="M79.2314 15V9.04297H81.4043V7.9541H75.8037V9.04297H77.9717V15H79.2314Z" fill="white"/>
<path d="M89.0258 7.77832C86.9799 7.77832 85.6908 9.19922 85.6908 11.4746C85.6908 13.75 86.9604 15.1758 89.0258 15.1758C91.0814 15.1758 92.3559 13.7451 92.3559 11.4746C92.3559 9.19922 91.0766 7.77832 89.0258 7.77832ZM89.0258 8.89648C90.2758 8.89648 91.0717 9.89746 91.0717 11.4746C91.0717 13.0469 90.2807 14.0576 89.0258 14.0576C87.7563 14.0576 86.9799 13.0469 86.9799 11.4746C86.9799 9.89746 87.7758 8.89648 89.0258 8.89648Z" fill="white"/>
<path d="M95.317 15V10.2051H95.4L98.857 15H99.9459V7.9541H98.735V12.7441H98.652L95.1949 7.9541H94.1012V15H95.317Z" fill="white"/>
<path fill-rule="evenodd" clip-rule="evenodd" d="M125.65 37.25H127.842V22.5614H125.65V37.25ZM145.398 27.8524L142.885 34.2209H142.81L140.201 27.8524H137.839L141.751 36.753L139.521 41.7045H141.808L147.836 27.8524H145.398ZM132.964 35.5815C132.245 35.5815 131.244 35.2232 131.244 34.3349C131.244 33.201 132.492 32.7662 133.568 32.7662C134.533 32.7662 134.985 32.9742 135.572 33.2574C135.401 34.618 134.23 35.5815 132.964 35.5815ZM133.229 27.5316C131.641 27.5316 129.997 28.2307 129.317 29.7806L131.263 30.5925C131.679 29.7806 132.453 29.515 133.266 29.515C134.4 29.515 135.553 30.1953 135.572 31.4056V31.556C135.174 31.3292 134.325 30.9896 133.285 30.9896C131.188 30.9896 129.051 32.1423 129.051 34.2961C129.051 36.2619 130.772 37.5285 132.699 37.5285C134.173 37.5285 134.985 36.867 135.496 36.0915H135.572V37.2254H137.688V31.5948C137.688 28.9863 135.742 27.5316 133.229 27.5316ZM119.678 29.6407H116.56V24.6059H119.678C121.318 24.6059 122.248 25.963 122.248 27.1227C122.248 28.2613 121.318 29.6407 119.678 29.6407ZM119.622 22.5614H114.369V37.25H116.56V31.6852H119.622C122.052 31.6852 124.441 29.9251 124.441 27.1227C124.441 24.3203 122.052 22.5614 119.622 22.5614ZM90.9744 35.5839C89.4598 35.5839 88.192 34.3161 88.192 32.5747C88.192 30.8146 89.4598 29.5268 90.9744 29.5268C92.4702 29.5268 93.6428 30.8146 93.6428 32.5747C93.6428 34.3161 92.4702 35.5839 90.9744 35.5839ZM93.4912 28.6749H93.416C92.9237 28.0886 91.9778 27.5586 90.7852 27.5586C88.286 27.5586 85.9959 29.7535 85.9959 32.5747C85.9959 35.3759 88.286 37.5532 90.7852 37.5532C91.9778 37.5532 92.9237 37.0233 93.416 36.417H93.4912V37.1361C93.4912 39.049 92.4702 40.0712 90.8228 40.0712C89.4786 40.0712 88.6455 39.1054 88.3048 38.2911L86.3931 39.0866C86.9418 40.412 88.4 42.0393 90.8228 42.0393C93.3972 42.0393 95.5745 40.5248 95.5745 36.8341V27.8606H93.4912V28.6749ZM97.0891 37.25H99.2852V22.5602H97.0891V37.25ZM102.521 32.4043C102.465 30.4738 104.017 29.4892 105.133 29.4892C106.005 29.4892 106.743 29.9239 106.988 30.549L102.521 32.4043ZM109.336 30.7382C108.92 29.6219 107.651 27.5586 105.058 27.5586C102.484 27.5586 100.345 29.5832 100.345 32.5559C100.345 35.3571 102.465 37.5532 105.304 37.5532C107.595 37.5532 108.92 36.1526 109.469 35.3383L107.765 34.2021C107.198 35.0352 106.421 35.5839 105.304 35.5839C104.187 35.5839 103.392 35.0728 102.881 34.0705L109.563 31.3069L109.336 30.7382ZM56.0992 29.092V31.2117H61.1717C61.0201 32.4043 60.623 33.275 60.0178 33.8813C59.2788 34.6192 58.1237 35.4323 56.0992 35.4323C52.9761 35.4323 50.5332 32.9155 50.5332 29.7923C50.5332 26.668 52.9761 24.1511 56.0992 24.1511C57.7842 24.1511 59.0144 24.8138 59.9227 25.6657L61.4184 24.1699C60.1494 22.9585 58.4657 22.0303 56.0992 22.0303C51.821 22.0303 48.2244 25.5141 48.2244 29.7923C48.2244 34.0705 51.821 37.5532 56.0992 37.5532C58.4081 37.5532 60.1494 36.7965 61.5124 35.3759C62.913 33.9753 63.349 32.0072 63.349 30.4162C63.349 29.9239 63.3114 29.4704 63.235 29.092H56.0992ZM69.117 35.5839C67.6025 35.5839 66.2959 34.3349 66.2959 32.5559C66.2959 30.757 67.6025 29.5268 69.117 29.5268C70.6304 29.5268 71.937 30.757 71.937 32.5559C71.937 34.3349 70.6304 35.5839 69.117 35.5839ZM69.117 27.5586C66.3523 27.5586 64.0998 29.6595 64.0998 32.5559C64.0998 35.4323 66.3523 37.5532 69.117 37.5532C71.8806 37.5532 74.1331 35.4323 74.1331 32.5559C74.1331 29.6595 71.8806 27.5586 69.117 27.5586ZM80.0598 35.5839C78.5452 35.5839 77.2386 34.3349 77.2386 32.5559C77.2386 30.757 78.5452 29.5268 80.0598 29.5268C81.5744 29.5268 82.8798 30.757 82.8798 32.5559C82.8798 34.3349 81.5744 35.5839 80.0598 35.5839ZM80.0598 27.5586C77.2962 27.5586 75.0437 29.6595 75.0437 32.5559C75.0437 35.4323 77.2962 37.5532 80.0598 37.5532C82.8234 37.5532 85.0759 35.4323 85.0759 32.5559C85.0759 29.6595 82.8234 27.5586 80.0598 27.5586Z" fill="white"/>
<path fill-rule="evenodd" clip-rule="evenodd" d="M12.2611 8.86768C11.9192 9.22958 11.7183 9.79006 11.7183 10.5174V36.4825C11.7183 37.2099 11.9192 37.7703 12.2611 38.1322L12.3481 38.2168L26.8934 23.6715V23.3284L12.3481 8.78308L12.2611 8.86768Z" fill="white"/>
<mask id="mask0" mask-type="alpha" maskUnits="userSpaceOnUse" x="26" y="18" width="13" height="11">
<path d="M31.7403 28.522L26.8934 23.6716V23.3285L31.7427 18.4792L37.5965 21.8045C39.2368 22.7374 39.2368 24.2626 37.5965 25.1944L31.8519 28.4585L31.7403 28.522Z" fill="#7B7F7E" fill-opacity="0.6"/>
</mask>
<g mask="url(#mask0)">
<path fill-rule="evenodd" clip-rule="evenodd" d="M31.7403 28.522L26.8934 23.6716V23.3285L31.7427 18.4792L37.5965 21.8045C39.2368 22.7374 39.2368 24.2626 37.5965 25.1944L31.8519 28.4585L31.7403 28.522Z" fill="white" fill-opacity="0.6"/>
</g>
<mask id="mask1" mask-type="alpha" maskUnits="userSpaceOnUse" x="12" y="23" width="20" height="16">
<path d="M31.8519 28.4585L26.8934 23.5L12.2611 38.1323C12.8028 38.7045 13.6958 38.775 14.7016 38.2039L31.8519 28.4585Z" fill="#7B7F7E" fill-opacity="0.7"/>
</mask>
<g mask="url(#mask1)">
<path fill-rule="evenodd" clip-rule="evenodd" d="M31.8519 28.4585L26.8934 23.5L12.2611 38.1323C12.8028 38.7045 13.6958 38.775 14.7016 38.2039L31.8519 28.4585Z" fill="white" fill-opacity="0.7"/>
</g>
<mask id="mask2" mask-type="alpha" maskUnits="userSpaceOnUse" x="12" y="8" width="20" height="16">
<path d="M31.8519 18.5416L14.7016 8.79616C13.6958 8.22511 12.8028 8.29561 12.2611 8.86783L26.8934 23.5001L31.8519 18.5416Z" fill="#7B7F7E" fill-opacity="0.8"/>
</mask>
<g mask="url(#mask2)">
<path fill-rule="evenodd" clip-rule="evenodd" d="M31.8519 18.5416L14.7016 8.79616C13.6958 8.22511 12.8028 8.29561 12.2611 8.86783L26.8934 23.5001L31.8519 18.5416Z" fill="white" fill-opacity="0.8"/>
</g>
</svg>
