<svg xmlns="http://www.w3.org/2000/svg" width="20" height="20" viewBox="0 0 512 512"><path fill="#d9534f" d="M256 0C114.844 0 0 114.844 0 256s114.844 256 256 256 256-114.844 256-256S397.156 0 256 0zm102.625 313.375c12.5 12.492 12.5 32.758 0 45.25C352.383 364.875 344.188 368 336 368s-16.383-3.125-22.625-9.375L256 301.25l-57.375 57.375C192.383 364.875 184.188 368 176 368s-16.383-3.125-22.625-9.375c-12.5-12.492-12.5-32.758 0-45.25L210.75 256l-57.375-57.375c-12.5-12.492-12.5-32.758 0-45.25 12.484-12.5 32.766-12.5 45.25 0L256 210.75l57.375-57.375c12.484-12.5 32.766-12.5 45.25 0 12.5 12.492 12.5 32.758 0 45.25L301.25 256l57.375 57.375z"/></svg>
