<svg id="Capa_1" data-name="Capa 1" xmlns="http://www.w3.org/2000/svg" viewBox="0 0 161.69 192.36">
  <title>idea</title>
  <g>
    <path d="M82.94,35.35a49,49,0,0,0-32.53,84.33,25.28,25.28,0,0,1,7.87,18.22v13.51h52.08V137.9a25.17,25.17,0,0,1,7.83-18.17A49,49,0,0,0,82.94,35.35Z" transform="translate(-3.49 -3.49)" style="fill: #ffdb57"/>
    <path d="M91.14,35.81a49,49,0,0,1,18.92,82.07A25.17,25.17,0,0,0,102.23,136v13.51h-.67a7.76,7.76,0,0,1,1.23,1.85h7.58V137.9a25.17,25.17,0,0,1,7.83-18.17A49,49,0,0,0,91.14,35.81Z" transform="translate(-3.49 -3.49)" style="fill: #ffbe49"/>
    <path d="M110.37,169.44H58.29L65,181.56A22.11,22.11,0,0,0,84.33,193h0a22.11,22.11,0,0,0,19.38-11.47Z" transform="translate(-3.49 -3.49)" style="fill: #0092bb"/>
    <path d="M58.29,169.44l5.14,9.36H98.86l-1.52,2.76a22.11,22.11,0,0,1-16.2,11.24h0a22.11,22.11,0,0,0,3.18.23h0a22.11,22.11,0,0,0,19.38-11.47l6.66-12.12Z" transform="translate(-3.49 -3.49)" style="opacity: 0.10000000149011612;isolation: isolate"/>
    <path d="M109.22,174.33H59.44A10.93,10.93,0,0,1,48.51,163.4v-5.93a10.93,10.93,0,0,1,10.93-10.93h49.78a10.93,10.93,0,0,1,10.93,10.93v5.93A10.93,10.93,0,0,1,109.22,174.33Z" transform="translate(-3.49 -3.49)" style="fill: #fff"/>
    <path d="M109.22,146.54h-7.58a10.93,10.93,0,0,1,10.93,10.93v5.93a10.93,10.93,0,0,1-10.93,10.93h7.58a10.93,10.93,0,0,0,10.93-10.93v-5.93A10.93,10.93,0,0,0,109.22,146.54Z" transform="translate(-3.49 -3.49)" style="opacity: 0.10000000149011612;isolation: isolate"/>
    <path d="M45.64,109.54A46.18,46.18,0,0,1,119.7,54.63,2.82,2.82,0,0,0,124,51a51.82,51.82,0,0,0-83.08,61.62,2.82,2.82,0,1,0,4.72-3.08ZM84.33,22.68a2.82,2.82,0,0,0,2.82-2.82V6.3a2.82,2.82,0,0,0-5.64,0V19.86A2.82,2.82,0,0,0,84.33,22.68Zm18.16,49.8v3.67a2.94,2.94,0,1,0,5.87,0V72.48a2.94,2.94,0,1,0-5.87,0ZM38.75,41.56a2.82,2.82,0,0,0,2-4.81l-9.59-9.59a2.82,2.82,0,1,0-4,4l9.59,9.59A2.81,2.81,0,0,0,38.75,41.56Zm-18.88,40H6.31a2.82,2.82,0,0,0,0,5.64H19.86a2.82,2.82,0,1,0,0-5.64ZM137.51,27.16l-9.59,9.59a2.82,2.82,0,1,0,4,4l9.59-9.59a2.82,2.82,0,1,0-4-4Zm24.85,54.35H148.8a2.82,2.82,0,0,0,0,5.64h13.56a2.82,2.82,0,0,0,0-5.64Zm-101.06-9v3.67a2.94,2.94,0,0,0,5.87,0V72.48a2.94,2.94,0,1,0-5.87,0Zm58.85,49.28A51.85,51.85,0,0,0,131.74,63.4a2.82,2.82,0,0,0-5.15,2.28,46.22,46.22,0,0,1-10.33,52,28.14,28.14,0,0,0-8.7,20.21v5.82H61.11V137.9a28,28,0,0,0-6.32-17.62,2.82,2.82,0,0,0-4.37,3.56,22.4,22.4,0,0,1,5.06,14.07v6.41a13.79,13.79,0,0,0-9.65,11.26s0,.1,0,.15a13.81,13.81,0,0,0-.12,1.75v5.93a13.81,13.81,0,0,0,.12,1.78v0a13.77,13.77,0,0,0,13.5,11.92l3.17,5.77a24.93,24.93,0,0,0,43.7,0l3.17-5.77a13.77,13.77,0,0,0,13.49-11.9v-.07a13.83,13.83,0,0,0,.12-1.77v-5.93a13.77,13.77,0,0,0-.12-1.77v-.07a13.78,13.78,0,0,0-9.66-11.32V137.9A22.48,22.48,0,0,1,120.15,121.76ZM101.25,180.2a19.29,19.29,0,0,1-33.82,0l-1.68-3.05h37.18Zm16.09-18.12H105.56a2.82,2.82,0,0,0-2.82,2.82c0,1.56,1.26,3.82,2.82,3.82h11.53c-1.44,2.28-5,2.79-7.87,2.79H59.44c-2.89,0-6.43-.52-7.87-2.79H92c1.56,0,2.82-2.26,2.82-3.82A2.82,2.82,0,0,0,92,162.08H51.33v-4.29h66v4.29Zm-.25-7.93H51.58c1.44-2.28,5-4.8,7.87-4.8h49.78C112.11,149.36,115.65,151.88,117.09,154.16ZM88.52,89.21a5.54,5.54,0,0,1-8.37,0A3.4,3.4,0,1,0,75,93.68a12.34,12.34,0,0,0,18.62,0,3.4,3.4,0,1,0-5.12-4.47Z" transform="translate(-3.49 -3.49)"/>
  </g>
</svg>
