<svg xmlns="http://www.w3.org/2000/svg" width="20" height="20" viewBox="0 0 511.626 511.627"><path fill="#999" d="M361.161 291.652c15.037-21.796 22.56-45.922 22.56-72.375 0-7.422-.76-15.417-2.286-23.984l-79.938 143.321c24.738-9.513 44.628-25.176 59.664-46.962zM372.872 94.221c.191-.378.28-1.235.28-2.568 0-3.237-1.522-5.802-4.571-7.715-.568-.38-2.423-1.475-5.568-3.287a526.3 526.3 0 0 1-8.989-5.282 194.001 194.001 0 0 0-9.422-5.28c-3.426-1.809-6.375-3.284-8.846-4.427-2.479-1.141-4.189-1.713-5.141-1.713-3.426 0-6.092 1.525-7.994 4.569l-15.413 27.696c-17.316-3.234-34.451-4.854-51.391-4.854-51.201 0-98.404 12.946-141.613 38.831C70.998 156.08 34.836 191.385 5.711 236.114 1.903 242.019 0 248.586 0 255.819c0 7.231 1.903 13.801 5.711 19.698 16.748 26.073 36.592 49.396 59.528 69.949 22.936 20.561 48.011 37.018 75.229 49.396-8.375 14.273-12.562 22.556-12.562 24.842 0 3.425 1.524 6.088 4.57 7.99 23.219 13.329 35.97 19.985 38.256 19.985 3.422 0 6.089-1.529 7.992-4.575l13.99-25.406c20.177-35.967 50.248-89.931 90.222-161.878 39.972-71.949 69.95-125.815 89.936-161.599zM158.456 362.885C108.97 340.616 68.33 304.93 36.547 255.822c28.931-44.921 65.19-78.518 108.777-100.783-11.61 19.792-17.417 41.206-17.417 64.237 0 20.365 4.661 39.68 13.99 57.955 9.327 18.274 22.27 33.4 38.83 45.392l-22.271 40.262zm107.069-206.998c-2.662 2.667-5.906 3.999-9.712 3.999-16.368 0-30.361 5.808-41.971 17.416-11.613 11.615-17.416 25.603-17.416 41.971 0 3.811-1.336 7.044-3.999 9.71-2.668 2.667-5.902 3.999-9.707 3.999-3.809 0-7.045-1.334-9.71-3.999-2.667-2.666-3.999-5.903-3.999-9.71 0-23.79 8.52-44.206 25.553-61.242 17.034-17.034 37.447-25.553 61.241-25.553 3.806 0 7.043 1.336 9.713 3.999 2.662 2.664 3.996 5.901 3.996 9.707.001 3.808-1.333 7.044-3.989 9.703z"/><path fill="#999" d="M505.916 236.114c-10.853-18.08-24.603-35.594-41.255-52.534-16.646-16.939-34.022-31.496-52.105-43.68l-17.987 31.977c31.785 21.888 58.625 49.87 80.51 83.939-23.024 35.782-51.723 65-86.07 87.648-34.358 22.661-71.712 35.693-112.065 39.115l-21.129 37.688c42.257 0 82.18-9.038 119.769-27.121 37.59-18.076 70.668-43.488 99.216-76.225 13.322-15.421 23.695-29.219 31.121-41.401 3.806-6.476 5.708-13.046 5.708-19.702-.003-6.661-1.905-13.228-5.713-19.704z"/></svg>
