<?xml version="1.0" encoding="iso-8859-1"?><svg xmlns="http://www.w3.org/2000/svg" xmlns:xlink="http://www.w3.org/1999/xlink" version="1.1" x="0px" y="0px" viewBox="0 0 490.773 490.773" style="enable-background:new 0 0 490.773 490.773; opacity:.8" xml:space="preserve" width="70px" height="70px"><path d="M10.773,234.72H10.56C4.672,234.72,0,239.499,0,245.387s4.885,10.667,10.773,10.667s10.667-4.779,10.667-10.667 S16.683,234.72,10.773,234.72z" fill="#FFFFFF"/><path d="M53.44,234.72h-0.213c-5.888,0-10.56,4.779-10.56,10.667s4.885,10.667,10.773,10.667s10.667-4.779,10.667-10.667 S59.349,234.72,53.44,234.72z" fill="#FFFFFF"/><path d="M96.107,234.72h-0.213c-5.888,0-10.56,4.779-10.56,10.667s4.885,10.667,10.773,10.667s10.667-4.779,10.667-10.667 S102.016,234.72,96.107,234.72z" fill="#FFFFFF"/><path d="M138.773,234.72h-0.213c-5.888,0-10.56,4.779-10.56,10.667s4.885,10.667,10.773,10.667s10.667-4.779,10.667-10.667 S144.683,234.72,138.773,234.72z" fill="#FFFFFF"/><path d="M181.44,234.72h-0.213c-5.888,0-10.56,4.779-10.56,10.667s4.885,10.667,10.773,10.667s10.667-4.779,10.667-10.667 S187.349,234.72,181.44,234.72z" fill="#FFFFFF"/><path d="M224.107,234.72h-0.213c-5.888,0-10.56,4.779-10.56,10.667s4.885,10.667,10.773,10.667s10.667-4.779,10.667-10.667 S230.016,234.72,224.107,234.72z" fill="#FFFFFF"/><path d="M266.773,234.72h-0.213c-5.888,0-10.56,4.779-10.56,10.667s4.885,10.667,10.773,10.667s10.667-4.779,10.667-10.667 S272.683,234.72,266.773,234.72z" fill="#FFFFFF"/><path d="M53.44,277.387h-0.213c-5.888,0-10.56,4.779-10.56,10.667s4.885,10.667,10.773,10.667s10.667-4.779,10.667-10.667 S59.349,277.387,53.44,277.387z" fill="#FFFFFF"/><path d="M96.107,277.387h-0.213c-5.888,0-10.56,4.779-10.56,10.667s4.885,10.667,10.773,10.667s10.667-4.779,10.667-10.667 S102.016,277.387,96.107,277.387z" fill="#FFFFFF"/><path d="M138.773,277.387h-0.213c-5.888,0-10.56,4.779-10.56,10.667s4.885,10.667,10.773,10.667s10.667-4.779,10.667-10.667 S144.683,277.387,138.773,277.387z" fill="#FFFFFF"/><path d="M181.44,277.387h-0.213c-5.888,0-10.56,4.779-10.56,10.667s4.885,10.667,10.773,10.667s10.667-4.779,10.667-10.667 S187.349,277.387,181.44,277.387z" fill="#FFFFFF"/><path d="M224.107,277.387h-0.213c-5.888,0-10.56,4.779-10.56,10.667s4.885,10.667,10.773,10.667s10.667-4.779,10.667-10.667 S230.016,277.387,224.107,277.387z" fill="#FFFFFF"/><path d="M96.107,320.053h-0.213c-5.888,0-10.56,4.779-10.56,10.667c0,5.888,4.885,10.667,10.773,10.667 s10.667-4.779,10.667-10.667C106.773,324.832,102.016,320.053,96.107,320.053z" fill="#FFFFFF"/><path d="M138.773,320.053h-0.213c-5.888,0-10.56,4.779-10.56,10.667c0,5.888,4.885,10.667,10.773,10.667 s10.667-4.779,10.667-10.667C149.44,324.832,144.683,320.053,138.773,320.053z" fill="#FFFFFF"/><path d="M181.44,320.053h-0.213c-5.888,0-10.56,4.779-10.56,10.667c0,5.888,4.885,10.667,10.773,10.667 s10.667-4.779,10.667-10.667C192.107,324.832,187.349,320.053,181.44,320.053z" fill="#FFFFFF"/><path d="M224.107,320.053h-0.213c-5.888,0-10.56,4.779-10.56,10.667c0,5.888,4.885,10.667,10.773,10.667 s10.667-4.779,10.667-10.667C234.773,324.832,230.016,320.053,224.107,320.053z" fill="#FFFFFF"/><path d="M138.773,362.72h-0.213c-5.888,0-10.56,4.779-10.56,10.667c0,5.888,4.885,10.667,10.773,10.667 s10.667-4.779,10.667-10.667C149.44,367.499,144.683,362.72,138.773,362.72z" fill="#FFFFFF"/><path d="M181.44,362.72h-0.213c-5.888,0-10.56,4.779-10.56,10.667c0,5.888,4.885,10.667,10.773,10.667s10.667-4.779,10.667-10.667 C192.107,367.499,187.349,362.72,181.44,362.72z" fill="#FFFFFF"/><path d="M224.107,362.72h-0.213c-5.888,0-10.56,4.779-10.56,10.667c0,5.888,4.885,10.667,10.773,10.667 s10.667-4.779,10.667-10.667C234.773,367.499,230.016,362.72,224.107,362.72z" fill="#FFFFFF"/><path d="M181.44,405.387h-0.213c-5.888,0-10.56,4.779-10.56,10.667s4.885,10.667,10.773,10.667s10.667-4.779,10.667-10.667 S187.349,405.387,181.44,405.387z" fill="#FFFFFF"/><path d="M224.107,405.387h-0.213c-5.888,0-10.56,4.779-10.56,10.667s4.885,10.667,10.773,10.667s10.667-4.779,10.667-10.667 S230.016,405.387,224.107,405.387z" fill="#FFFFFF"/><path d="M224.107,448.053h-0.213c-5.888,0-10.56,4.779-10.56,10.667c0,5.888,4.885,10.667,10.773,10.667 s10.667-4.779,10.667-10.667C234.773,452.832,230.016,448.053,224.107,448.053z" fill="#FFFFFF"/><path d="M53.44,192.053h-0.213c-5.888,0-10.56,4.779-10.56,10.667s4.885,10.667,10.773,10.667s10.667-4.779,10.667-10.667 S59.349,192.053,53.44,192.053z" fill="#FFFFFF"/><path d="M96.107,192.053h-0.213c-5.888,0-10.56,4.779-10.56,10.667s4.885,10.667,10.773,10.667s10.667-4.779,10.667-10.667 S102.016,192.053,96.107,192.053z" fill="#FFFFFF"/><path d="M138.773,192.053h-0.213c-5.888,0-10.56,4.779-10.56,10.667s4.885,10.667,10.773,10.667s10.667-4.779,10.667-10.667 S144.683,192.053,138.773,192.053z" fill="#FFFFFF"/><path d="M181.44,192.053h-0.213c-5.888,0-10.56,4.779-10.56,10.667s4.885,10.667,10.773,10.667s10.667-4.779,10.667-10.667 S187.349,192.053,181.44,192.053z" fill="#FFFFFF"/><path d="M224.107,192.053h-0.213c-5.888,0-10.56,4.779-10.56,10.667s4.885,10.667,10.773,10.667s10.667-4.779,10.667-10.667 S230.016,192.053,224.107,192.053z" fill="#FFFFFF"/><path d="M96.107,149.387h-0.213c-5.888,0-10.539,4.779-10.539,10.667s4.885,10.667,10.773,10.667s10.667-4.779,10.667-10.667 S102.016,149.387,96.107,149.387z" fill="#FFFFFF"/><path d="M138.773,149.387h-0.213c-5.888,0-10.539,4.779-10.539,10.667s4.885,10.667,10.773,10.667s10.667-4.779,10.667-10.667 S144.683,149.387,138.773,149.387z" fill="#FFFFFF"/><path d="M181.44,149.387h-0.213c-5.888,0-10.539,4.779-10.539,10.667s4.885,10.667,10.773,10.667s10.667-4.779,10.667-10.667 S187.349,149.387,181.44,149.387z" fill="#FFFFFF"/><path d="M224.107,149.387h-0.213c-5.888,0-10.56,4.779-10.56,10.667s4.885,10.667,10.773,10.667s10.667-4.779,10.667-10.667 S230.016,149.387,224.107,149.387z" fill="#FFFFFF"/><path d="M138.773,106.72h-0.213c-5.888,0-10.539,4.779-10.539,10.667s4.885,10.667,10.773,10.667s10.667-4.779,10.667-10.667 S144.683,106.72,138.773,106.72z" fill="#FFFFFF"/><path d="M181.44,106.72h-0.213c-5.888,0-10.539,4.779-10.539,10.667s4.885,10.667,10.773,10.667s10.667-4.779,10.667-10.667 S187.349,106.72,181.44,106.72z" fill="#FFFFFF"/><path d="M224.107,106.72h-0.213c-5.888,0-10.56,4.779-10.56,10.667s4.885,10.667,10.773,10.667s10.667-4.779,10.667-10.667 S230.016,106.72,224.107,106.72z" fill="#FFFFFF"/><path d="M181.44,64.053h-0.213c-5.888,0-10.539,4.779-10.539,10.667s4.885,10.667,10.773,10.667s10.667-4.779,10.667-10.667 S187.349,64.053,181.44,64.053z" fill="#FFFFFF"/><path d="M224.107,64.053h-0.213c-5.888,0-10.56,4.779-10.56,10.667s4.885,10.667,10.773,10.667s10.667-4.779,10.667-10.667 S230.016,64.053,224.107,64.053z" fill="#FFFFFF"/><path d="M224.107,21.387h-0.213c-5.888,0-10.56,4.779-10.56,10.667s4.885,10.667,10.773,10.667s10.667-4.779,10.667-10.667 S230.016,21.387,224.107,21.387z" fill="#FFFFFF"/><path d="M309.44,234.72h-0.213c-5.888,0-10.56,4.779-10.56,10.667s4.885,10.667,10.773,10.667s10.667-4.779,10.667-10.667 S315.349,234.72,309.44,234.72z" fill="#FFFFFF"/><path d="M352.107,234.72h-0.213c-5.888,0-10.56,4.779-10.56,10.667s4.885,10.667,10.773,10.667 c5.888,0,10.667-4.779,10.667-10.667S358.016,234.72,352.107,234.72z" fill="#FFFFFF"/><path d="M394.773,234.72h-0.213c-5.888,0-10.56,4.779-10.56,10.667s4.885,10.667,10.773,10.667 c5.888,0,10.667-4.779,10.667-10.667S400.683,234.72,394.773,234.72z" fill="#FFFFFF"/><path d="M437.44,234.72h-0.213c-5.888,0-10.56,4.779-10.56,10.667s4.885,10.667,10.773,10.667s10.667-4.779,10.667-10.667 S443.349,234.72,437.44,234.72z" fill="#FFFFFF"/><path d="M480.107,234.72h-0.213c-5.888,0-10.56,4.779-10.56,10.667s4.885,10.667,10.773,10.667 c5.888,0,10.667-4.779,10.667-10.667S486.016,234.72,480.107,234.72z" fill="#FFFFFF"/><path d="M266.773,192.053h-0.213c-5.888,0-10.56,4.779-10.56,10.667s4.885,10.667,10.773,10.667s10.667-4.779,10.667-10.667 S272.683,192.053,266.773,192.053z" fill="#FFFFFF"/><path d="M309.44,192.053h-0.213c-5.888,0-10.56,4.779-10.56,10.667s4.885,10.667,10.773,10.667s10.667-4.779,10.667-10.667 S315.349,192.053,309.44,192.053z" fill="#FFFFFF"/><path d="M352.107,192.053h-0.213c-5.888,0-10.56,4.779-10.56,10.667s4.885,10.667,10.773,10.667 c5.888,0,10.667-4.779,10.667-10.667S358.016,192.053,352.107,192.053z" fill="#FFFFFF"/><path d="M394.773,192.053h-0.213c-5.888,0-10.56,4.779-10.56,10.667s4.885,10.667,10.773,10.667 c5.888,0,10.667-4.779,10.667-10.667S400.683,192.053,394.773,192.053z" fill="#FFFFFF"/><path d="M437.44,192.053h-0.213c-5.888,0-10.56,4.779-10.56,10.667s4.885,10.667,10.773,10.667s10.667-4.779,10.667-10.667 S443.349,192.053,437.44,192.053z" fill="#FFFFFF"/><path d="M480.107,192.053h-0.213c-5.888,0-10.56,4.779-10.56,10.667s4.907,10.667,10.773,10.667 c5.888,0,10.667-4.779,10.667-10.667S485.995,192.053,480.107,192.053z" fill="#FFFFFF"/><path d="M266.773,277.387h-0.213c-5.888,0-10.56,4.779-10.56,10.667s4.885,10.667,10.773,10.667s10.667-4.779,10.667-10.667 S272.683,277.387,266.773,277.387z" fill="#FFFFFF"/><path d="M309.44,277.387h-0.213c-5.888,0-10.56,4.779-10.56,10.667s4.885,10.667,10.773,10.667s10.667-4.779,10.667-10.667 S315.349,277.387,309.44,277.387z" fill="#FFFFFF"/><path d="M352.107,277.387h-0.213c-5.888,0-10.56,4.779-10.56,10.667s4.885,10.667,10.773,10.667 c5.888,0,10.667-4.779,10.667-10.667S358.016,277.387,352.107,277.387z" fill="#FFFFFF"/><path d="M394.773,277.387h-0.213c-5.888,0-10.56,4.779-10.56,10.667s4.885,10.667,10.773,10.667 c5.888,0,10.667-4.779,10.667-10.667S400.683,277.387,394.773,277.387z" fill="#FFFFFF"/><path d="M437.44,277.387h-0.213c-5.888,0-10.56,4.779-10.56,10.667s4.885,10.667,10.773,10.667s10.667-4.779,10.667-10.667 S443.349,277.387,437.44,277.387z" fill="#FFFFFF"/><path d="M480.107,277.387h-0.213c-5.888,0-10.56,4.779-10.56,10.667s4.885,10.667,10.773,10.667 c5.888,0,10.667-4.779,10.667-10.667S486.016,277.387,480.107,277.387z" fill="#FFFFFF"/></svg>
