<?xml version="1.0" encoding="UTF-8"?>
<svg width="101px" height="40px" viewBox="0 0 101 40" version="1.1" xmlns="http://www.w3.org/2000/svg"
     xmlns:xlink="http://www.w3.org/1999/xlink">
    <!-- Generator: Sketch 48.2 (47327) - http://www.bohemiancoding.com/sketch -->
    <title>logo-header</title>
    <desc>Created with Sketch.</desc>
    <defs></defs>
    <g id="Beta_Version-Copy" stroke="none" stroke-width="1" fill="none" fill-rule="evenodd"
       transform="translate(-204.000000, -12.000000)">
        <g id="logo-header" transform="translate(204.000000, 12.000000)">
            <g id="logo" fill-rule="nonzero">
                <path d="M36.3041992,17.6 L35.1616211,17.6 L35.1616211,8.44033203 L36.3041992,8.44033203 L36.3041992,12.8900391 L36.4057617,12.8900391 L40.4174805,8.44033203 L41.8520508,8.44033203 L38.1894531,12.3949219 L42.1884766,17.6 L40.7094727,17.6 L37.4023438,13.1883789 L36.3041992,14.4007813 L36.3041992,17.6 Z M47.3173828,17.6 L46.1748047,17.6 L46.1748047,13.6581055 L42.9248047,8.44033203 L44.2260742,8.44033203 L46.6953125,12.5091797 L46.796875,12.5091797 L49.2661133,8.44033203 L50.5673828,8.44033203 L47.3173828,13.6581055 L47.3173828,17.6 Z M55.6772461,17.6 L52.1035156,17.6 L52.1035156,8.44033203 L55.6074219,8.44033203 C56.4495485,8.44033203 57.111814,8.64557086 57.5942383,9.05605469 C58.0766626,9.46653851 58.3178711,10.0230108 58.3178711,10.7254883 C58.3178711,11.199449 58.1644709,11.6268536 57.857666,12.0077148 C57.5508611,12.3885761 57.1774111,12.6192053 56.7373047,12.6996094 L56.7373047,12.8011719 C57.3636099,12.8815759 57.860838,13.1217265 58.2290039,13.5216309 C58.5971698,13.9215352 58.78125,14.424053 58.78125,15.0291992 C58.78125,15.8332397 58.5072456,16.4627093 57.9592285,16.917627 C57.4112115,17.3725446 56.6505583,17.6 55.6772461,17.6 Z M53.2460938,9.44960938 L53.2460938,12.3885742 L55.0742188,12.3885742 C55.7682326,12.3885742 56.2897932,12.2658541 56.638916,12.0204102 C56.9880389,11.7749662 57.1625977,11.4089217 57.1625977,10.9222656 C57.1625977,10.4567685 57.0049658,10.0949557 56.6896973,9.83681641 C56.3744288,9.57867709 55.9332711,9.44960938 55.3662109,9.44960938 L53.2460938,9.44960938 Z M53.2460938,16.5907227 L55.5058594,16.5907227 C56.1956415,16.5907227 56.7182599,16.4531915 57.0737305,16.178125 C57.429201,15.9030585 57.6069336,15.5010443 57.6069336,14.9720703 C57.6069336,14.4430963 57.4217955,14.0442559 57.0515137,13.7755371 C56.6812319,13.5068183 56.1300492,13.3724609 55.3979492,13.3724609 L53.2460938,13.3724609 L53.2460938,16.5907227 Z M66.2460938,16.5716797 L66.2460938,17.6 L60.5712891,17.6 L60.5712891,8.44033203 L66.2460938,8.44033203 L66.2460938,9.46865234 L61.7138672,9.46865234 L61.7138672,12.4076172 L66.0112305,12.4076172 L66.0112305,13.4232422 L61.7138672,13.4232422 L61.7138672,16.5716797 L66.2460938,16.5716797 Z M69.3818359,9.45595703 L69.3818359,12.9598633 L71.6352539,12.9598633 C72.223473,12.9598633 72.6773259,12.808579 72.9968262,12.5060059 C73.3163265,12.2034327 73.4760742,11.7707385 73.4760742,11.2079102 C73.4760742,10.6577772 73.3089209,10.2282568 72.9746094,9.91933594 C72.6402978,9.61041512 72.1769235,9.45595703 71.5844727,9.45595703 L69.3818359,9.45595703 Z M69.3818359,13.9754883 L69.3818359,17.6 L68.2392578,17.6 L68.2392578,8.44033203 L71.7368164,8.44033203 C72.6212609,8.44033203 73.3290175,8.68894608 73.8601074,9.18618164 C74.3911973,9.6834172 74.6567383,10.3446248 74.6567383,11.1698242 C74.6567383,11.8088248 74.4938167,12.3610654 74.1679688,12.8265625 C73.8421208,13.2920596 73.3914417,13.6157869 72.815918,13.7977539 L74.9360352,17.6 L73.5966797,17.6 L71.6352539,13.9754883 L69.3818359,13.9754883 Z"
                      id="Kyber" fill="#000000"></path>
                <path d="M36.2915039,32.6 L35.1616211,32.6 L35.1616211,23.440332 L36.2724609,23.440332 L41.2426758,30.56875 L41.3442383,30.56875 L41.3442383,23.440332 L42.4741211,23.440332 L42.4741211,32.6 L41.3632812,32.6 L36.3930664,25.4969727 L36.2915039,25.4969727 L36.2915039,32.6 Z M50.4086914,31.5716797 L50.4086914,32.6 L44.7338867,32.6 L44.7338867,23.440332 L50.4086914,23.440332 L50.4086914,24.4686523 L45.8764648,24.4686523 L45.8764648,27.4076172 L50.1738281,27.4076172 L50.1738281,28.4232422 L45.8764648,28.4232422 L45.8764648,31.5716797 L50.4086914,31.5716797 Z M55.9248047,32.6 L54.7822266,32.6 L54.7822266,24.4686523 L51.8305664,24.4686523 L51.8305664,23.440332 L58.8764648,23.440332 L58.8764648,24.4686523 L55.9248047,24.4686523 L55.9248047,32.6 Z M65.6494141,25.3700195 L65.4970703,25.8937012 C65.3955073,26.242824 65.2643237,26.6913872 65.1035156,27.2394043 C64.9427075,27.7874214 64.7734384,28.369284 64.5957031,28.9850098 C64.4179679,29.6007355 64.2486987,30.1825982 64.0878906,30.7306152 C63.9270825,31.2786323 63.7958989,31.7271955 63.6943359,32.0763184 L63.5419922,32.6 L62.4628906,32.6 L59.9682617,23.440332 L61.1616211,23.440332 L62.9833984,30.8861328 L63.0595703,30.8861328 L65.1098633,23.440332 L66.2651367,23.440332 L68.3154297,30.8861328 L68.3916016,30.8861328 L70.2133789,23.440332 L71.4067383,23.440332 L68.9121094,32.6 L67.8330078,32.6 L65.7255859,25.3700195 L65.6494141,25.3700195 Z M76.5419922,23.2245117 C77.8453841,23.2245117 78.8694624,23.656148 79.6142578,24.5194336 C80.3590532,25.3827192 80.7314453,26.5485604 80.7314453,28.0169922 C80.7314453,29.4811922 80.3601111,30.6470334 79.6174316,31.5145508 C78.8747521,32.3820681 77.8496159,32.8158203 76.5419922,32.8158203 C75.2301367,32.8158203 74.2007687,32.3820681 73.4538574,31.5145508 C72.7069461,30.6470334 72.3334961,29.4811922 72.3334961,28.0169922 C72.3334961,26.5443286 72.7111779,25.3774294 73.4665527,24.5162598 C74.2219276,23.6550901 75.2470638,23.2245117 76.5419922,23.2245117 Z M76.5419922,24.2782227 C75.6109979,24.2782227 74.8725613,24.6146451 74.3266602,25.2875 C73.780759,25.9603549 73.5078125,26.8701766 73.5078125,28.0169922 C73.5078125,29.1511124 73.7754693,30.0588182 74.310791,30.7401367 C74.8461127,31.4214552 75.589839,31.7621094 76.5419922,31.7621094 C77.48145,31.7621094 78.2188287,31.4214552 78.7541504,30.7401367 C79.2894721,30.0588182 79.5571289,29.1511124 79.5571289,28.0169922 C79.5571289,26.8701766 79.2884141,25.9603549 78.7509766,25.2875 C78.213539,24.6146451 77.4772182,24.2782227 76.5419922,24.2782227 Z M83.7783203,24.455957 L83.7783203,27.9598633 L86.0317383,27.9598633 C86.6199574,27.9598633 87.0738103,27.808579 87.3933105,27.5060059 C87.7128108,27.2034327 87.8725586,26.7707385 87.8725586,26.2079102 C87.8725586,25.6577772 87.7054053,25.2282568 87.3710938,24.9193359 C87.0367822,24.6104151 86.5734079,24.455957 85.980957,24.455957 L83.7783203,24.455957 Z M83.7783203,28.9754883 L83.7783203,32.6 L82.6357422,32.6 L82.6357422,23.440332 L86.1333008,23.440332 C87.0177453,23.440332 87.7255019,23.6889461 88.2565918,24.1861816 C88.7876817,24.6834172 89.0532227,25.3446248 89.0532227,26.1698242 C89.0532227,26.8088248 88.8903011,27.3610654 88.5644531,27.8265625 C88.2386051,28.2920596 87.7879261,28.6157869 87.2124023,28.7977539 L89.3325195,32.6 L87.9931641,32.6 L86.0317383,28.9754883 L83.7783203,28.9754883 Z M92.1953125,32.6 L91.0527344,32.6 L91.0527344,23.440332 L92.1953125,23.440332 L92.1953125,27.8900391 L92.296875,27.8900391 L96.3085938,23.440332 L97.7431641,23.440332 L94.0805664,27.3949219 L98.0795898,32.6 L96.6005859,32.6 L93.293457,28.1883789 L92.1953125,29.4007813 L92.1953125,32.6 Z"
                      id="Network" fill="#000000"></path>
                <polygon id="Shape" fill="#348F8E" points="9.308 39.17 20.927 29.057 9.122 16.097"></polygon>
                <polygon id="Shape" fill="#5AAF84"
                         points="0.762 10.028 2.662 28.835 9.347 38.635 9.017 0.536"></polygon>
                <polygon id="Shape" fill="#BDDDCC" points="9.122 16.043 21.03 29.133 21.463 9.815"></polygon>
                <polygon id="Shape" fill="#ECF6F2" points="9.054 0.537 9.18 16.097 21.395 9.954"></polygon>
            </g>
            <text id="BETA" font-family="Montserrat-Medium, Montserrat" font-size="8" font-weight="400"
                  letter-spacing="0.711111307" fill="#31C09E">
                <tspan x="77.0417774" y="12">BETA</tspan>
            </text>
        </g>
    </g>
</svg>