<svg id="Layer_1" data-name="Layer 1" xmlns="http://www.w3.org/2000/svg" xmlns:xlink="http://www.w3.org/1999/xlink" viewBox="0 0 315 70"><defs><style>.cls-1{fill:none;}.cls-2{fill:url(#linear-gradient);}.cls-3,.cls-5{fill:#fff;}.cls-4{clip-path:url(#clip-path);}.cls-5{opacity:0.2;}.cls-6{fill:url(#linear-gradient-2);}.cls-7{fill:url(#linear-gradient-3);}</style><linearGradient id="linear-gradient" x1="57.55" y1="4.4" x2="-0.67" y2="90.08" gradientUnits="userSpaceOnUse"><stop offset="0" stop-color="#1abc9c"/><stop offset="1" stop-color="#1a5daf"/></linearGradient><clipPath id="clip-path"><circle id="SVGID" class="cls-1" cx="36.76" cy="35" r="32"/></clipPath><linearGradient id="linear-gradient-2" x1="36.72" y1="3.36" x2="27.74" y2="63.33" xlink:href="#linear-gradient"/><linearGradient id="linear-gradient-3" x1="46.32" y1="4.8" x2="37.33" y2="64.77" xlink:href="#linear-gradient"/></defs><title>etherwallet-logo</title><circle class="cls-2" cx="36.76" cy="35" r="32"/><path class="cls-3" d="M23.84,27.45h0v0h0Z"/><g class="cls-4"><polygon class="cls-5" points="65.73 35.27 55.71 59.8 50.41 47.28 55.24 35.47 52.63 35.47 48.69 45.29 44.79 35.47 42.22 35.47 47.05 47.28 41.79 59.8 31.73 35.27 26.68 23.37 31.88 10.85 41.9 35.38 44.86 35.38 33.13 7.7 30.71 7.7 24.9 21.28 19.05 7.7 16.67 7.7 4.97 35.38 7.9 35.38 17.96 10.85 23.22 23.37 18.39 35.19 20.96 35.19 24.86 25.36 28.8 35.27 40.5 62.96 42.88 62.96 48.73 49.27 54.54 62.96 56.96 62.96 68.69 35.27 65.73 35.27"/><path class="cls-6" d="M39.1,47.5a10.13,10.13,0,0,1-2.34.27c-5.58,0-10.33-4.25-10.67-10.56a19.86,19.86,0,0,1,.57-3.57L18,30a22.3,22.3,0,0,0-1.36,7.7c0,10.82,9.27,19.59,20.09,19.59A19.53,19.53,0,0,0,44,55.86Z"/><path class="cls-7" d="M36.76,17a19.52,19.52,0,0,0-8.15,1.77l4.86,8.26a10.09,10.09,0,0,1,3.29-.55c4.94,0,10.18,4.14,10.68,9.24l-14.05.06L55.3,45.1a20,20,0,0,0,1.52-8.32C56.82,26,47.58,17,36.76,17Z"/><path class="cls-3" d="M23.84,27.45h0v0h0Z"/><path class="cls-3" d="M39.1,45.36a10.13,10.13,0,0,1-2.34.27c-5.58,0-10.33-4.25-10.67-10.56a19.86,19.86,0,0,1,.57-3.57L18,27.82a22.3,22.3,0,0,0-1.36,7.7c0,10.82,9.27,19.59,20.09,19.59A19.53,19.53,0,0,0,44,53.72Z"/><path class="cls-3" d="M36.76,14.89a19.52,19.52,0,0,0-8.15,1.77l4.86,8.26a10.09,10.09,0,0,1,3.29-.55c4.94,0,10.18,4.14,10.68,9.24l-14.05.06L55.3,43a20,20,0,0,0,1.52-8.32C56.82,23.82,47.58,14.89,36.76,14.89Z"/></g><path class="cls-3" d="M108,44.56V30.21l-5.59,10.69H100.1L94.51,30.21V44.56H90.3V22.88h4.52l6.41,12.34,6.47-12.34h4.49V44.56H108Z"/><path class="cls-3" d="M117,47.67a8,8,0,0,0,1,.23,5.53,5.53,0,0,0,.82.08,1.75,1.75,0,0,0,.73-0.15,1.57,1.57,0,0,0,.61-0.53,5.23,5.23,0,0,0,.55-1.05q0.27-.67.58-1.68l-6.32-16h4.21L123.49,41l3.85-12.46h3.85l-6.72,19.18a5.73,5.73,0,0,1-2,2.75A5.58,5.58,0,0,1,119,51.55a6.65,6.65,0,0,1-1-.08,6.36,6.36,0,0,1-1.05-.26V47.67Z"/><path class="cls-3" d="M149.17,40.86v3.69H134.12V22.88h14.78v3.69H138.33v5.22h9.13v3.42h-9.13v5.65h10.84Z"/><path class="cls-3" d="M161.54,43.73a18.25,18.25,0,0,1-2,.73,8.47,8.47,0,0,1-2.5.37,5.82,5.82,0,0,1-1.6-.21,3.51,3.51,0,0,1-1.31-.69,3.35,3.35,0,0,1-.9-1.22,4.41,4.41,0,0,1-.34-1.82V31.7h-2.11V28.56h2.11V23.37H157v5.19h3.36V31.7H157v7.82a1.45,1.45,0,0,0,.44,1.21,1.69,1.69,0,0,0,1.08.35,3.76,3.76,0,0,0,1.25-.21q0.61-.21,1-0.37Z"/><path class="cls-3" d="M178.85,44.56h-4.09v-9a4.53,4.53,0,0,0-.7-2.79,2.37,2.37,0,0,0-2-.9,3.13,3.13,0,0,0-1.16.24,4.54,4.54,0,0,0-1.16.69,5.86,5.86,0,0,0-1,1.05,4.16,4.16,0,0,0-.67,1.34v9.34H164V22.27h4.09v9.25a6.17,6.17,0,0,1,2.4-2.4,6.77,6.77,0,0,1,3.34-.84,5.27,5.27,0,0,1,2.53.53,4,4,0,0,1,1.53,1.42,5.85,5.85,0,0,1,.76,2,12.48,12.48,0,0,1,.21,2.32v10Z"/><path class="cls-3" d="M190.15,44.86a8.88,8.88,0,0,1-3.48-.66,7.85,7.85,0,0,1-4.35-4.41,8.43,8.43,0,0,1-.6-3.15,8.91,8.91,0,0,1,.58-3.22A7.86,7.86,0,0,1,184,30.77,8,8,0,0,1,186.65,29a8.9,8.9,0,0,1,3.53-.67,8.68,8.68,0,0,1,3.5.67,8.05,8.05,0,0,1,2.63,1.8,7.67,7.67,0,0,1,1.65,2.63,8.75,8.75,0,0,1,.56,3.11q0,0.4,0,.76a3.14,3.14,0,0,1-.08.61H186.06a4.75,4.75,0,0,0,.46,1.68,4.11,4.11,0,0,0,2.26,2,4.31,4.31,0,0,0,1.53.27,4.72,4.72,0,0,0,2.31-.6,3.15,3.15,0,0,0,1.48-1.57l3.51,1a7.14,7.14,0,0,1-2.82,3A8.75,8.75,0,0,1,190.15,44.86Zm4.15-9.65A4.26,4.26,0,0,0,193,32.33a4.17,4.17,0,0,0-5.66,0,4.19,4.19,0,0,0-.9,1.25,4.41,4.41,0,0,0-.41,1.62h8.31Z"/><path class="cls-3" d="M210.85,32.1a8.07,8.07,0,0,0-3.33.72,4.2,4.2,0,0,0-2.11,2.06v9.68h-4.09v-16h3.76V32a7.29,7.29,0,0,1,1-1.48,7.76,7.76,0,0,1,1.25-1.15,5.82,5.82,0,0,1,1.36-.75,3.76,3.76,0,0,1,1.33-.26h0.5a1.66,1.66,0,0,1,.32,0V32.1Z"/><path class="cls-3" d="M221.32,22.94h3.88l2.44,7.18,2.44-7.18H234L230.3,32.8,233,39.73l6.14-16.86h4.58l-8.82,21.68H231.4l-3.76-9.1-3.76,9.1h-3.54l-8.76-21.68h4.52l6.17,16.86L225,32.8Z"/><path class="cls-3" d="M248.74,44.86a6.07,6.07,0,0,1-2.17-.38,5.21,5.21,0,0,1-1.74-1.07,5,5,0,0,1-1.15-1.6,4.85,4.85,0,0,1-.41-2,4.44,4.44,0,0,1,.5-2.09,4.8,4.8,0,0,1,1.4-1.63A7,7,0,0,1,247.34,35a9.4,9.4,0,0,1,2.75-.38,11.85,11.85,0,0,1,2.09.18,8.54,8.54,0,0,1,1.82.52V34.42a3.21,3.21,0,0,0-.9-2.44,3.75,3.75,0,0,0-2.67-.85,7.08,7.08,0,0,0-2.5.46,11.63,11.63,0,0,0-2.5,1.34l-1.25-2.6a11.82,11.82,0,0,1,6.66-2A7.8,7.8,0,0,1,256.18,30a6.21,6.21,0,0,1,1.91,4.9v5a1.44,1.44,0,0,0,.23.92,1,1,0,0,0,.75.31v3.48a9.14,9.14,0,0,1-1.8.21,2.73,2.73,0,0,1-1.79-.52,2.23,2.23,0,0,1-.78-1.37L254.61,42a7.08,7.08,0,0,1-2.6,2.14A7.45,7.45,0,0,1,248.74,44.86Zm1.16-3a5.33,5.33,0,0,0,2-.37,3.58,3.58,0,0,0,1.45-1,1.47,1.47,0,0,0,.67-1.16V37.53a10,10,0,0,0-1.59-.44,8.58,8.58,0,0,0-1.65-.17,4.37,4.37,0,0,0-2.6.72,2.15,2.15,0,0,0-1,1.82,2.18,2.18,0,0,0,.79,1.73A2.88,2.88,0,0,0,249.9,41.87Z"/><path class="cls-3" d="M262.18,22.27h4.09V39.43a2,2,0,0,0,.43,1.37,1.54,1.54,0,0,0,1.22.49,3.06,3.06,0,0,0,.81-0.12,5.46,5.46,0,0,0,.84-0.31L270.12,44a7.9,7.9,0,0,1-1.92.61,10.52,10.52,0,0,1-2,.21,4.1,4.1,0,0,1-3-1,3.88,3.88,0,0,1-1.05-2.92V22.27Z"/><path class="cls-3" d="M272.16,22.27h4.09V39.43a2,2,0,0,0,.43,1.37,1.54,1.54,0,0,0,1.22.49,3.06,3.06,0,0,0,.81-0.12,5.46,5.46,0,0,0,.84-0.31L280.1,44a7.9,7.9,0,0,1-1.92.61,10.52,10.52,0,0,1-2,.21,4.1,4.1,0,0,1-3-1,3.88,3.88,0,0,1-1.05-2.92V22.27Z"/><path class="cls-3" d="M289.6,44.86a8.88,8.88,0,0,1-3.48-.66,7.85,7.85,0,0,1-4.35-4.41,8.43,8.43,0,0,1-.6-3.15,8.91,8.91,0,0,1,.58-3.22,7.86,7.86,0,0,1,1.68-2.66A8,8,0,0,1,286.1,29a8.9,8.9,0,0,1,3.53-.67,8.68,8.68,0,0,1,3.5.67,8.05,8.05,0,0,1,2.63,1.8,7.67,7.67,0,0,1,1.65,2.63A8.75,8.75,0,0,1,298,36.5q0,0.4,0,.76a3.14,3.14,0,0,1-.08.61H285.51a4.75,4.75,0,0,0,.46,1.68,4.11,4.11,0,0,0,2.26,2,4.31,4.31,0,0,0,1.53.27,4.72,4.72,0,0,0,2.31-.6,3.15,3.15,0,0,0,1.48-1.57l3.51,1a7.14,7.14,0,0,1-2.82,3A8.75,8.75,0,0,1,289.6,44.86Zm4.15-9.65a4.26,4.26,0,0,0-1.33-2.89,4.17,4.17,0,0,0-5.66,0,4.19,4.19,0,0,0-.9,1.25,4.41,4.41,0,0,0-.41,1.62h8.31Z"/><path class="cls-3" d="M310.24,43.73a18.25,18.25,0,0,1-2,.73,8.47,8.47,0,0,1-2.5.37,5.82,5.82,0,0,1-1.6-.21,3.51,3.51,0,0,1-1.31-.69,3.35,3.35,0,0,1-.9-1.22,4.41,4.41,0,0,1-.34-1.82V31.7h-2.11V28.56h2.11V23.37h4.09v5.19H309V31.7h-3.36v7.82a1.45,1.45,0,0,0,.44,1.21,1.69,1.69,0,0,0,1.08.35,3.76,3.76,0,0,0,1.25-.21q0.61-.21,1-0.37Z"/></svg>