<svg width="579" height="126" viewBox="0 0 579 126" xmlns="http://www.w3.org/2000/svg"><g fill="#ffffff" fill-rule="evenodd"><path d="M37.752 125.873c-18.928 0-37.383-13.566-37.383-44.324 0-30.759 18.455-44.167 37.383-44.167 9.307 0 16.563 2.367 21.768 5.837L53.841 55.68c-3.47-2.524-8.675-4.101-13.88-4.101-11.357 0-21.768 8.991-21.768 29.812s10.726 29.97 21.768 29.97c5.205 0 10.41-1.578 13.88-4.101l5.679 12.776c-5.363 3.628-12.461 5.837-21.768 5.837M102.898 125.873c-24.133 0-37.383-19.087-37.383-44.324 0-25.238 13.25-44.167 37.383-44.167 24.134 0 37.384 18.929 37.384 44.167 0 25.237-13.25 44.324-37.384 44.324zm0-74.768c-13.407 0-20.032 11.988-20.032 30.286 0 18.297 6.625 30.443 20.032 30.443 13.408 0 20.033-12.146 20.033-30.443 0-18.298-6.625-30.286-20.033-30.286zM163.468 23.659c-5.678 0-10.253-4.416-10.253-9.779 0-5.363 4.575-9.78 10.253-9.78s10.253 4.417 10.253 9.78c0 5.363-4.575 9.779-10.253 9.779zm-8.675 15.459h17.351v85.02h-17.351v-85.02zM240.443 124.137V67.352c0-9.937-5.994-16.089-17.824-16.089-6.309 0-12.146 1.104-15.616 2.524v70.35H189.81V43.376c8.518-3.47 19.402-5.994 32.651-5.994 23.819 0 35.333 10.411 35.333 28.393v58.362h-17.351M303.536 125.873c-11.042 0-21.925-2.682-28.55-5.994V.314h17.193v41.012c4.101-1.893 10.726-3.47 16.562-3.47 21.926 0 36.753 15.773 36.753 41.8 0 32.02-16.563 46.217-41.958 46.217zm2.208-74.61c-4.732 0-10.253 1.104-13.565 2.84v55.838c2.524 1.104 7.414 2.208 12.303 2.208 13.723 0 23.819-9.464 23.819-31.231 0-18.613-8.834-29.655-22.557-29.655zM392.341 125.873c-24.449 0-36.752-9.938-36.752-26.658 0-23.66 25.237-27.919 50.948-29.339v-5.363c0-10.726-7.098-14.512-17.982-14.512-8.044 0-17.824 2.524-23.502 5.206l-4.417-11.831c6.783-2.997 18.297-5.994 29.654-5.994 20.348 0 32.652 7.887 32.652 28.866v53.631c-6.152 3.312-18.613 5.994-30.601 5.994zm14.196-44.482c-17.351.946-34.702 2.366-34.702 17.509 0 8.99 6.941 14.511 20.033 14.511 5.521 0 11.988-.946 14.669-2.208V81.391zM461.743 125.873c-9.937 0-20.348-2.682-26.499-5.994l5.836-13.25c4.416 2.681 13.723 5.52 20.19 5.52 9.306 0 15.458-4.574 15.458-11.672 0-7.729-6.467-10.726-15.142-13.881-11.358-4.259-24.134-9.464-24.134-25.395 0-14.039 10.884-23.819 29.812-23.819 10.253 0 18.771 2.524 24.765 5.994l-5.364 11.988c-3.785-2.366-11.356-5.047-17.508-5.047-8.991 0-14.039 4.732-14.039 10.884 0 7.729 6.31 10.41 14.67 13.565 11.83 4.417 24.922 9.306 24.922 25.869 0 15.3-11.672 25.238-32.967 25.238M578.625 81.233l-56.47 7.887c1.735 15.3 11.673 23.029 26.027 23.029 8.517 0 17.666-2.05 23.502-5.205l5.048 12.935c-6.625 3.47-17.982 5.994-29.654 5.994-26.816 0-41.801-17.194-41.801-44.324 0-26.027 14.512-44.167 38.33-44.167 22.083 0 35.175 14.512 35.175 37.384 0 2.05 0 4.259-.157 6.467zm-35.333-31.232c-13.25 0-21.925 10.096-22.241 27.762l41.169-5.679c-.158-14.827-7.571-22.083-18.928-22.083z"/></g></svg>
