<svg id="Capa_1" data-name="Capa 1" xmlns="http://www.w3.org/2000/svg" xmlns:xlink="http://www.w3.org/1999/xlink" viewBox="0 0 627.95 878.22"><defs><style>.cls-1{fill:none;}.cls-2{clip-path:url(#clip-path);}.cls-3{fill:#1aa59c;}.cls-4{fill:#1aa49c;}.cls-5{fill:#19a39d;}.cls-6{fill:#19a29d;}.cls-7{fill:#19a19d;}.cls-8{fill:#18a09d;}.cls-9{fill:#189f9e;}.cls-10{fill:#179e9e;}.cls-11{fill:#179d9e;}.cls-12{fill:#179c9e;}.cls-13{fill:#169b9f;}.cls-14{fill:#169a9f;}.cls-15{fill:#16999f;}.cls-16{fill:#15989f;}.cls-17{fill:#1597a0;}.cls-18{fill:#1596a0;}.cls-19{fill:#1495a0;}.cls-20{fill:#1494a1;}.cls-21{fill:#1393a1;}.cls-22{fill:#1392a1;}.cls-23{fill:#1391a1;}.cls-24{fill:#1290a2;}.cls-25{fill:#128fa2;}.cls-26{fill:#128ea2;}.cls-27{fill:#118da2;}.cls-28{fill:#118ca3;}.cls-29{fill:#108ba3;}.cls-30{fill:#108aa3;}.cls-31{fill:#1089a3;}.cls-32{fill:#0f88a4;}.cls-33{fill:#0f87a4;}.cls-34{fill:#0f86a4;}.cls-35{fill:#0e85a5;}.cls-36{fill:#0e84a5;}.cls-37{fill:#0e83a5;}.cls-38{fill:#0d82a5;}.cls-39{fill:#0d80a6;}.cls-40{fill:#0c7fa6;}.cls-41{fill:#0c7ea6;}.cls-42{fill:#0c7da6;}.cls-43{fill:#0b7ca7;}.cls-44{fill:#0b7ba7;}.cls-45{fill:#0b7aa7;}.cls-46{fill:#0a79a8;}.cls-47{fill:#0a78a8;}.cls-48{fill:#0a77a8;}.cls-49{fill:#0976a8;}.cls-50{fill:#0975a9;}.cls-51{fill:#0874a9;}.cls-52{fill:#0873a9;}.cls-53{fill:#0872a9;}.cls-54{fill:#0771aa;}.cls-55{fill:#0770aa;}.cls-56{fill:#076faa;}.cls-57{fill:#066eaa;}.cls-58{fill:#066dab;}.cls-59{fill:#056cab;}.cls-60{fill:#fff;}.cls-61{fill:#ffce00;}.cls-62{fill:#8b572a;}.cls-63{fill:#dfdfe3;}.cls-64{fill:#ffa21a;}.cls-65{fill:#4d3325;opacity:0.5;}.cls-65,.cls-68{isolation:isolate;}.cls-66{fill:#81cc3b;}.cls-67{fill:#7bba38;}.cls-68{opacity:0.1;}</style><clipPath id="clip-path"><circle class="cls-1" cx="313.97" cy="168.05" r="138.51"/></clipPath></defs><title>onboarding_icon-01</title><g class="cls-2"><polygon class="cls-3" points="452.49 68.58 395.04 29.54 452.49 29.54 452.49 68.58"/><polygon class="cls-3" points="452.49 76.11 383.95 29.54 395.04 29.54 452.49 68.58 452.49 76.11"/><polygon class="cls-4" points="452.49 83.64 372.88 29.54 383.95 29.54 452.49 76.11 452.49 83.64"/><polygon class="cls-5" points="452.49 91.17 361.8 29.54 372.88 29.54 452.49 83.64 452.49 91.17"/><polygon class="cls-6" points="452.49 98.69 350.72 29.54 361.8 29.54 452.49 91.17 452.49 98.69"/><polygon class="cls-7" points="452.49 106.22 339.64 29.54 350.72 29.54 452.49 98.69 452.49 106.22"/><polygon class="cls-8" points="452.49 113.75 328.56 29.54 339.64 29.54 452.49 106.22 452.49 113.75"/><polygon class="cls-9" points="452.49 121.28 317.48 29.54 328.56 29.54 452.49 113.75 452.49 121.28"/><polygon class="cls-10" points="452.49 128.81 306.4 29.54 317.48 29.54 452.49 121.28 452.49 128.81"/><polygon class="cls-11" points="452.49 136.34 295.32 29.54 306.4 29.54 452.49 128.81 452.49 136.34"/><polygon class="cls-12" points="452.49 143.87 284.24 29.54 295.32 29.54 452.49 136.34 452.49 143.87"/><polygon class="cls-13" points="452.49 151.4 273.16 29.54 284.24 29.54 452.49 143.87 452.49 151.4"/><polygon class="cls-14" points="452.49 158.93 262.08 29.54 273.16 29.54 452.49 151.4 452.49 158.93"/><polygon class="cls-15" points="452.49 166.46 251 29.54 262.08 29.54 452.49 158.93 452.49 166.46"/><polygon class="cls-16" points="452.49 173.99 239.92 29.54 251 29.54 452.49 166.46 452.49 173.99"/><polygon class="cls-17" points="452.49 181.51 228.84 29.54 239.92 29.54 452.49 173.99 452.49 181.51"/><polygon class="cls-18" points="452.49 189.04 217.76 29.54 228.84 29.54 452.49 181.51 452.49 189.04"/><polygon class="cls-19" points="452.49 196.57 212.5 33.49 215.19 29.54 217.76 29.54 452.49 189.04 452.49 196.57"/><polygon class="cls-20" points="452.49 204.1 209 38.65 212.5 33.49 452.49 196.57 452.49 204.1"/><polygon class="cls-21" points="452.49 211.63 205.5 43.8 209 38.65 452.49 204.1 452.49 211.63"/><polygon class="cls-22" points="452.49 219.16 202 48.95 205.5 43.8 452.49 211.63 452.49 219.16"/><polygon class="cls-23" points="452.49 226.69 198.5 54.1 202 48.95 452.49 219.16 452.49 226.69"/><polygon class="cls-24" points="452.49 234.22 195 59.25 198.5 54.1 452.49 226.69 452.49 234.22"/><polygon class="cls-25" points="452.49 241.75 191.5 64.4 195 59.25 452.49 234.22 452.49 241.75"/><polygon class="cls-26" points="452.49 248.11 451.94 248.91 188 69.55 191.5 64.4 452.49 241.75 452.49 248.11"/><rect class="cls-27" x="315.11" y="2.25" width="6.23" height="319.11" transform="translate(5.54 334.06) rotate(-55.8)"/><rect class="cls-28" x="311.61" y="7.4" width="6.23" height="319.11" transform="translate(-0.25 333.43) rotate(-55.8)"/><rect class="cls-29" x="308.11" y="12.55" width="6.23" height="319.11" transform="translate(-6.05 332.79) rotate(-55.8)"/><polygon class="cls-30" points="441.44 264.36 437.94 269.51 175.47 91.15 175.47 88 177.5 85 441.44 264.36"/><polygon class="cls-31" points="437.94 269.51 434.44 274.66 175.47 98.68 175.47 91.15 437.94 269.51"/><polygon class="cls-32" points="434.44 274.66 430.94 279.81 175.47 106.21 175.47 98.68 434.44 274.66"/><polygon class="cls-33" points="430.94 279.81 427.44 284.96 175.47 113.73 175.47 106.21 430.94 279.81"/><polygon class="cls-34" points="427.44 284.96 423.94 290.11 175.47 121.26 175.47 113.73 427.44 284.96"/><polygon class="cls-35" points="423.94 290.11 420.44 295.26 175.47 128.79 175.47 121.26 423.94 290.11"/><polygon class="cls-36" points="420.44 295.26 416.94 300.41 175.47 136.32 175.47 128.79 420.44 295.26"/><polygon class="cls-37" points="416.94 300.41 413.44 305.56 175.47 143.85 175.47 136.32 416.94 300.41"/><polygon class="cls-38" points="413.44 305.56 412.76 306.56 403.83 306.56 175.47 151.38 175.47 143.85 413.44 305.56"/><polygon class="cls-39" points="392.75 306.56 175.47 158.91 175.47 151.38 403.83 306.56 392.75 306.56"/><polygon class="cls-40" points="381.67 306.56 175.47 166.44 175.47 158.91 392.75 306.56 381.67 306.56"/><polygon class="cls-41" points="370.59 306.56 175.47 173.97 175.47 166.44 381.67 306.56 370.59 306.56"/><polygon class="cls-42" points="359.51 306.56 175.47 181.5 175.47 173.97 370.59 306.56 359.51 306.56"/><polygon class="cls-43" points="348.43 306.56 175.47 189.03 175.47 181.5 359.51 306.56 348.43 306.56"/><polygon class="cls-44" points="337.35 306.56 175.47 196.55 175.47 189.03 348.43 306.56 337.35 306.56"/><polygon class="cls-45" points="326.27 306.56 175.47 204.08 175.47 196.55 337.35 306.56 326.27 306.56"/><polygon class="cls-46" points="315.19 306.56 175.47 211.61 175.47 204.08 326.27 306.56 315.19 306.56"/><polygon class="cls-47" points="304.11 306.56 175.47 219.14 175.47 211.61 315.19 306.56 304.11 306.56"/><polygon class="cls-48" points="293.03 306.56 175.47 226.67 175.47 219.14 304.11 306.56 293.03 306.56"/><polygon class="cls-49" points="281.95 306.56 175.47 234.2 175.47 226.67 293.03 306.56 281.95 306.56"/><polygon class="cls-50" points="270.87 306.56 175.47 241.73 175.47 234.2 281.95 306.56 270.87 306.56"/><polygon class="cls-51" points="259.79 306.56 175.47 249.26 175.47 241.73 270.87 306.56 259.79 306.56"/><polygon class="cls-52" points="248.71 306.56 175.47 256.79 175.47 249.26 259.79 306.56 248.71 306.56"/><polygon class="cls-53" points="237.63 306.56 175.47 264.31 175.47 256.79 248.71 306.56 237.63 306.56"/><polygon class="cls-54" points="226.55 306.56 175.47 271.84 175.47 264.31 237.63 306.56 226.55 306.56"/><polygon class="cls-55" points="215.47 306.56 175.47 279.37 175.47 271.84 226.55 306.56 215.47 306.56"/><polygon class="cls-56" points="204.39 306.56 175.47 286.9 175.47 279.37 215.47 306.56 204.39 306.56"/><polygon class="cls-57" points="193.31 306.56 175.47 294.43 175.47 286.9 204.39 306.56 193.31 306.56"/><polygon class="cls-58" points="182.23 306.56 175.47 301.96 175.47 294.43 193.31 306.56 182.23 306.56"/><polygon class="cls-59" points="175.47 301.96 182.23 306.56 175.47 306.56 175.47 301.96"/></g><path d="M314,312.56c-79.68,0-144.51-64.83-144.51-144.51S234.29,23.54,314,23.54,458.49,88.37,458.49,168.05,393.66,312.56,314,312.56Zm0-277c-73.07,0-132.51,59.44-132.51,132.51S240.91,300.56,314,300.56s132.51-59.44,132.51-132.51S387,35.54,314,35.54Z"/><g class="cls-2"><path class="cls-60" d="M324.09,212.89A43.85,43.85,0,0,1,314,214.07c-24.16,0-44.71-18.4-46.2-45.69-.19-3.42,1.75-12.27,2.49-15.47L232.91,137c-3.81,9.64-5.9,22.33-5.9,33.33,0,46.82,40.14,84.78,87,84.78a84.55,84.55,0,0,0,31.44-6Z"/><path d="M314.1,260.1H314a92.52,92.52,0,0,1-64.51-26.24C231.76,216.77,222,194.2,222,170.31c0-12.12,2.34-25.27,6.25-35.17a5,5,0,0,1,6.61-2.76l37.36,15.92a5,5,0,0,1,2.91,5.73c-1.47,6.33-2.47,12.24-2.37,14.06,1.29,23.74,18.62,41,41.2,41h0a38.89,38.89,0,0,0,8.95-1,5,5,0,0,1,5.46,2.33l21.32,36.19a5,5,0,0,1-2.46,7.18A89.15,89.15,0,0,1,314.1,260.1ZM235.88,143.69A96.08,96.08,0,0,0,232,170.31c0,21.15,8.67,41.16,24.4,56.35A82.57,82.57,0,0,0,314,250.1h.11a79.16,79.16,0,0,0,24-3.69l-16.46-27.94a48.86,48.86,0,0,1-7.58.59h0c-27.62,0-49.62-21.68-51.19-50.42-.16-3,.77-8.32,1.7-12.77Z"/><path class="cls-60" d="M314,81a84.47,84.47,0,0,0-35.3,7.7l21,35.74A43.65,43.65,0,0,1,314,122.06c21.39,0,44.07,17.93,46.25,40l-60.83.26,94.84,40.19c5-10.77,6.55-23.37,6.55-36C400.82,119.67,360.8,81,314,81Z"/><path d="M394.22,207.53a5,5,0,0,1-1.95-.4l-94.84-40.19a5,5,0,0,1,1.93-9.6l54.82-.24c-4.68-16.31-22.41-30-40.22-30a39.1,39.1,0,0,0-12.62,2.11,5,5,0,0,1-5.94-2.19l-21-35.73a5,5,0,0,1,2.22-7.08A90.1,90.1,0,0,1,313.91,76H314a91.8,91.8,0,0,1,64.47,26.61c17.64,17.28,27.35,40,27.32,63.91,0,15.38-2.29,27.84-7,38.08A5,5,0,0,1,394.22,207.53Zm-70.47-40.29,67.75,28.71c2.87-8.07,4.27-17.75,4.27-29.41,0-21.23-8.62-41.38-24.32-56.76A81.86,81.86,0,0,0,314,86h-.07a80.11,80.11,0,0,0-28,5.1L302,118.54a48.54,48.54,0,0,1,11.89-1.47h0c24.94,0,48.87,20.8,51.22,44.52a5,5,0,0,1-5,5.49Z"/></g><rect class="cls-61" x="352.29" y="404.47" width="46.5" height="10.5"/><path class="cls-62" d="M535.94,430V575.19h-.86a7.5,7.5,0,0,0-7.5,7.5h0v2.83h-48a19.63,19.63,0,0,1-2.86-2.82c-1.87-2.34-3.29-5.82-4.8-9.5-2.41-5.88-5.13-12.54-10.84-17.1s-12.76-5.71-19-6.75c-3.94-.66-7.66-1.28-10.39-2.59s-5.37-3.76-8.28-6.39c-4.75-4.29-10.13-9.16-17.36-10.8-7-1.59-13.81.41-19.84,2.17-3.89,1.14-7.57,2.22-10.7,2.22s-6.81-1.08-10.71-2.22c-6-1.76-12.86-3.76-19.83-2.17-7.23,1.64-12.62,6.51-17.36,10.8-2.91,2.63-5.66,5.12-8.28,6.39s-6.46,1.93-10.4,2.59c-6.25,1-13.33,2.22-19,6.75s-8.43,11.22-10.84,17.1c-1.5,3.68-2.93,7.16-4.8,9.51a19.63,19.63,0,0,1-2.86,2.81h-48v-2.83a7.5,7.5,0,0,0-7.5-7.5h-.86V430H535.94ZM517,555.38a7.51,7.51,0,0,0-5.71-13.89L485.93,552a7.5,7.5,0,0,0,2.87,14.4,7.65,7.65,0,0,0,2.87-.57Zm-34.63-45.75a7.5,7.5,0,1,0-10.43-10.78l-.18.18L459,511.77a7.5,7.5,0,1,0,10.61,10.61Zm-42.49-39.48A7.51,7.51,0,0,0,426,464.38h0L415.52,489.7a7.5,7.5,0,0,0,4.06,9.8h0a7.64,7.64,0,0,0,2.86.57,7.51,7.51,0,0,0,6.94-4.63ZM383,479.5v-18a7.5,7.5,0,0,0-15,0v18a7.5,7.5,0,0,0,15,0Zm-51.54,20a7.52,7.52,0,0,0,4.06-9.8l-10.49-25.32a7.5,7.5,0,1,0-13.86,5.74h0l10.49,25.32a7.49,7.49,0,0,0,6.93,4.63,7.65,7.65,0,0,0,2.87-.57Zm-39.45,22.88a7.49,7.49,0,0,0,0-10.59h0L279.28,499a7.5,7.5,0,0,0-10.79,10.42l.18.18,12.77,12.78a7.5,7.5,0,0,0,10.61,0Zm-22.84,39.4a7.51,7.51,0,0,0-4.06-9.8l-25.32-10.49a7.51,7.51,0,1,0-5.74,13.89h0l25.32,10.49a7.64,7.64,0,0,0,2.87.51A7.51,7.51,0,0,0,269.21,561.78Z"/><path class="cls-62" d="M527.58,634.17V744.38A66,66,0,0,0,501.2,790H249.88a66,66,0,0,0-26.38-45.57V634.17H332.06v43.11a7.5,7.5,0,0,0,7.5,7.5h72a7.5,7.5,0,0,0,7.5-7.5V634.17Z"/><path class="cls-61" d="M375.54,628a7.41,7.41,0,1,1-7.42,7.41A7.41,7.41,0,0,1,375.54,628Z"/><path class="cls-63" d="M404,601v68.82H347.06V601H404ZM398,635.38a22.42,22.42,0,1,0-22.43,22.41h0A22.44,22.44,0,0,0,398,635.38Z"/><path class="cls-61" d="M208.5,590.19V736.06a65.49,65.49,0,0,0-16.68-4.17V590.19Z"/><polygon class="cls-61" points="332.06 600.52 332.06 619.17 223.5 619.17 223.5 600.52 225.53 600.52 332.06 600.52"/><rect class="cls-61" x="419.01" y="600.52" width="108.57" height="18.65"/><path class="cls-61" d="M559.28,590.19v141.7a65.28,65.28,0,0,0-16.68,4.17V590.19Z"/><path class="cls-61" d="M559.28,747V790h-43A51.11,51.11,0,0,1,559.28,747Z"/><path class="cls-61" d="M234.76,790H191.82V747A51.12,51.12,0,0,1,234.76,790Z"/><path class="cls-64" d="M461,585.52H290.09c1.08-2.19,2-4.43,2.91-6.64,1.88-4.6,3.65-8.94,6.31-11.06s7.23-2.86,12.11-3.67,9.79-1.63,14.46-3.88,8.25-5.55,11.82-8.77,7.22-6.53,10.62-7.31c3.17-.72,7.61.58,12.3,1.95,4.52,1.32,9.64,2.82,14.92,2.82s10.4-1.5,14.92-2.82c4.69-1.37,9.12-2.67,12.3-1.94,3.4.77,6.9,3.94,10.61,7.3s7.26,6.56,11.83,8.77,9.64,3.07,14.45,3.88,9.49,1.57,12.12,3.67,4.43,6.46,6.3,11C459,581.08,459.9,583.38,461,585.52Z"/><path d="M574.28,582.69V797.45a7.5,7.5,0,0,1-7.5,7.5H184.28a7.5,7.5,0,0,1-7.5-7.5V582.69a7.5,7.5,0,0,1,7.5-7.5H200.1V422.47a7.5,7.5,0,0,1,7.5-7.5H337.28V397a7.5,7.5,0,0,1,7.5-7.5h61.5a7.5,7.5,0,0,1,7.5,7.5h0v18H543.44a7.5,7.5,0,0,1,7.5,7.5V575.19h15.82a7.5,7.5,0,0,1,7.52,7.48ZM559.28,790V747a51.11,51.11,0,0,0-43,42.94Zm0-58.06V590.19h-16.7V736.06A65.28,65.28,0,0,1,559.28,731.89ZM536,575.19V430H215.14V575.19H216a7.5,7.5,0,0,1,7.5,7.5h0v2.83h48a19.63,19.63,0,0,0,2.86-2.81c1.87-2.35,3.3-5.83,4.8-9.51,2.41-5.88,5.13-12.54,10.84-17.1s12.76-5.71,19-6.75c3.94-.66,7.67-1.28,10.4-2.59s5.37-3.76,8.28-6.39c4.74-4.29,10.13-9.16,17.36-10.8,7-1.59,13.8.41,19.83,2.17,3.9,1.14,7.58,2.22,10.71,2.22s6.81-1.08,10.7-2.22c6-1.76,12.87-3.76,19.84-2.17,7.23,1.64,12.61,6.51,17.36,10.8,2.91,2.63,5.65,5.12,8.28,6.39s6.45,1.93,10.39,2.59c6.25,1,13.34,2.22,19,6.75s8.43,11.22,10.84,17.1c1.51,3.68,2.93,7.16,4.8,9.5a19.64,19.64,0,0,0,2.86,2.82h48v-2.83a7.5,7.5,0,0,1,7.5-7.5H536Zm-8.38,169.19V634.17H419v43.11a7.5,7.5,0,0,1-7.5,7.5H339.56a7.5,7.5,0,0,1-7.5-7.5V634.17H223.5V744.38A66,66,0,0,1,249.88,790H501.2A66,66,0,0,1,527.58,744.38Zm0-125.21V600.52H419v18.65ZM290.09,585.52H461c-1.08-2.19-2-4.44-2.91-6.65-1.87-4.59-3.65-8.93-6.3-11s-7.24-2.86-12.12-3.67-9.79-1.63-14.45-3.88-8.26-5.55-11.83-8.77-7.21-6.53-10.61-7.3c-3.18-.73-7.61.57-12.3,1.94-4.52,1.32-9.64,2.82-14.92,2.82s-10.4-1.5-14.92-2.82c-4.69-1.37-9.13-2.67-12.3-1.95-3.4.78-6.91,3.95-10.62,7.31s-7.26,6.56-11.82,8.77-9.65,3.07-14.46,3.88-9.48,1.57-12.11,3.67-4.43,6.46-6.31,11.06C292.09,581.09,291.17,583.38,290.09,585.52ZM404,669.78V601H347.06v68.82ZM398.79,415v-10.5H352.28V415Zm-66.73,204.2V600.52H223.5v18.65ZM216,790h18.76A51.12,51.12,0,0,0,191.82,747V790Zm-7.5-53.89V590.19H191.82v141.7A65.49,65.49,0,0,1,208.5,736.06Z"/><path class="cls-64" d="M488.8,572.38a13.5,13.5,0,0,1-5.16-26L509,535.89a13.53,13.53,0,0,1,10.33,25h0L494,571.38A13.68,13.68,0,0,1,488.8,572.38Z"/><path d="M514.12,540.92A7.5,7.5,0,0,1,517,555.38l-25.32,10.49a7.65,7.65,0,0,1-2.87.57A7.5,7.5,0,0,1,485.93,552l25.35-10.52a7.47,7.47,0,0,1,2.87-.58m0-12h0a19.39,19.39,0,0,0-7.47,1.49l-25.31,10.49a19.48,19.48,0,0,0,14.8,36h0l25.32-10.49A19.5,19.5,0,0,0,514,528.93Z"/><path class="cls-64" d="M464.28,530.54a13.51,13.51,0,0,1-9.55-23l12.73-12.74a13.5,13.5,0,0,1,19.37,18.81l-.27.27-12.69,12.7A13.41,13.41,0,0,1,464.28,530.54Z"/><path d="M477.06,496.8a7.5,7.5,0,0,1,5.3,12.81l-12.73,12.77A7.5,7.5,0,0,1,459,511.78L471.75,499a7.47,7.47,0,0,1,5.31-2.21m0-12h0a19.37,19.37,0,0,0-13.78,5.7l-12.72,12.73a19.5,19.5,0,0,0,27.58,27.57l12.73-12.74a19.5,19.5,0,0,0-13.79-33.29Z"/><path class="cls-64" d="M422.44,506.07A13.51,13.51,0,0,1,410,487.39l10.49-25.31a13.52,13.52,0,1,1,25,10.32L435,497.73A13.48,13.48,0,0,1,422.44,506.07Z"/><path d="M432.93,459.75a7.51,7.51,0,0,1,6.93,10.38l-10.48,25.31a7.51,7.51,0,0,1-6.94,4.63,7.64,7.64,0,0,1-2.86-.57,7.5,7.5,0,0,1-4.06-9.8h0L426,464.38a7.49,7.49,0,0,1,6.93-4.64m0-12h0a19.43,19.43,0,0,0-18,12.06l-10.48,25.3A19.5,19.5,0,0,0,415,510.58h.1A19.5,19.5,0,0,0,440.49,500L451,474.67a19.51,19.51,0,0,0-18-27Z"/><path d="M375.54,613a22.41,22.41,0,1,1-22.42,22.42A22.41,22.41,0,0,1,375.54,613ZM383,635.38a7.42,7.42,0,1,0-7.43,7.41h0A7.42,7.42,0,0,0,383,635.38Z"/><path class="cls-64" d="M375.54,493a13.52,13.52,0,0,1-13.5-13.5v-18a13.5,13.5,0,0,1,27,0h0v18A13.52,13.52,0,0,1,375.54,493Z"/><path d="M375.54,454a7.5,7.5,0,0,1,7.5,7.5h0v18a7.5,7.5,0,0,1-15,0v-18a7.49,7.49,0,0,1,7.48-7.5h0m0-12a19.52,19.52,0,0,0-19.5,19.5v18a19.5,19.5,0,0,0,39,0v-18A19.52,19.52,0,0,0,375.54,442Z"/><path class="cls-64" d="M328.63,506.07a13.45,13.45,0,0,1-12.48-8.35l-10.49-25.34a13.5,13.5,0,1,1,24.83-10.6l.11.26,10.5,25.34A13.53,13.53,0,0,1,333.8,505,13.68,13.68,0,0,1,328.63,506.07Z"/><path d="M318.13,459.75a7.51,7.51,0,0,1,6.93,4.64l10.49,25.32a7.52,7.52,0,0,1-4.06,9.8,7.65,7.65,0,0,1-2.87.57,7.49,7.49,0,0,1-6.93-4.63L311.2,470.13a7.51,7.51,0,0,1,6.93-10.38m0-12h0a19.5,19.5,0,0,0-18,27l10.49,25.31A19.5,19.5,0,0,0,336,510.65h.12a19.54,19.54,0,0,0,10.54-25.47l-10.49-25.33a19.46,19.46,0,0,0-18-12Z"/><path class="cls-64" d="M286.75,530.54a13.46,13.46,0,0,1-9.54-3.94l-12.75-12.76a13.5,13.5,0,1,1,18.83-19.35l.27.27,12.72,12.74a13.5,13.5,0,0,1-9.54,23Z"/><path d="M274,496.8a7.49,7.49,0,0,1,5.31,2.2l12.73,12.74a7.51,7.51,0,0,1-10.61,10.64l-12.73-12.74a7.5,7.5,0,0,1,5.3-12.8m0-12a19.5,19.5,0,0,0-13.79,33.29L273,530.87a19.5,19.5,0,0,0,27.93-27.22l-.35-.35L287.8,490.56a19.39,19.39,0,0,0-13.8-5.72Z"/><path class="cls-64" d="M262.28,572.38a13.59,13.59,0,0,1-5.11-1L231.8,560.87a13.5,13.5,0,1,1,10.08-25l.26.11,25.32,10.49a13.5,13.5,0,0,1-5.18,26Z"/><path d="M237,540.92a7.48,7.48,0,0,1,2.87.58L265.14,552a7.5,7.5,0,0,1-2.86,14.39,7.64,7.64,0,0,1-2.86-.57l-25.33-10.43A7.5,7.5,0,0,1,237,540.94m0-12h0a19.5,19.5,0,0,0-7.47,37.52L254.82,577h0a19.5,19.5,0,0,0,14.82-36.07l-25.22-10.5a19.38,19.38,0,0,0-7.47-1.49Z"/><path class="cls-65" d="M243.54,697.38h64a10.67,10.67,0,0,0,0-21.33h-64a10.67,10.67,0,0,0-.65,21.33Z"/><path class="cls-65" d="M304.13,746.73h64a10.67,10.67,0,0,0,0-21.33h-64a10.67,10.67,0,1,0-.65,21.33h.65Z"/><path class="cls-65" d="M438.69,716.49h64a10.67,10.67,0,0,0,.65-21.33H438.69a10.67,10.67,0,0,0-.65,21.33Z"/><path class="cls-65" d="M396,792.82h64a10.67,10.67,0,0,0,.65-21.33H396a10.67,10.67,0,0,0-.65,21.33Z"/><path d="M223.59,652.91l-81.76-28.86a4.81,4.81,0,0,0-3.2,0L56.87,652.91a4.82,4.82,0,0,0-3.21,4.54v57.71c0,74.68,11.07,102,84.4,139a4.79,4.79,0,0,0,4.33,0c73.33-37,84.4-64.27,84.4-139V657.45A4.82,4.82,0,0,0,223.59,652.91Z"/><path class="cls-66" d="M140.23,636.92,68,660.85l-2.08,54.31c0,8.7.14,16.66.49,24h73.81Z"/><path class="cls-67" d="M216.68,739.2c.36-7.38.5-15.34.5-24L215,660.89l-74.8-25V739.2Z"/><path class="cls-66" d="M140.23,737.05V840.12c59.57-30.37,73.85-49.8,76.45-103.07Z"/><path class="cls-67" d="M65.94,737.05c2.59,53.27,14.72,72.7,74.29,103.07V737.05Z"/><path class="cls-68" d="M140.23,823.62C72.4,789,63.28,775.5,63.28,704v9c0,71.53,9.12,94.69,77,129.27,67.83-34.58,77-57.73,77-129.27v-9C217.18,775.5,208.06,789,140.23,823.62Z"/><path d="M111.38,710.38a28.79,28.79,0,0,0,10.44,22.19l-5.58,39.66a4.81,4.81,0,0,0,4.76,5.48h38.5a4.81,4.81,0,0,0,4.76-5.48l-5.58-39.66a28.85,28.85,0,1,0-47.3-22.19Z"/><path class="cls-63" d="M159.5,710.38a19.23,19.23,0,0,1-8.63,16,4.82,4.82,0,0,0-2.1,4.68l5.2,37H126.5l5.2-37a4.82,4.82,0,0,0-2.1-4.68,19.23,19.23,0,1,1,29.9-16Z"/><path class="cls-68" d="M135.77,768.06l4.78-34a4.82,4.82,0,0,0-2.1-4.68,19.23,19.23,0,0,1,10.6-35.27c.59,0,1.15.12,1.73.17a19.22,19.22,0,0,0-21.15,32.1,4.82,4.82,0,0,1,2.1,4.68l-5.2,37Z"/></svg>