<svg id="Capa_1" data-name="Capa 1" xmlns="http://www.w3.org/2000/svg" xmlns:xlink="http://www.w3.org/1999/xlink" viewBox="0 0 674.17 564.11"><defs><style>.cls-1{fill:#dfdfe3;}.cls-1,.cls-17,.cls-18,.cls-2{isolation:isolate;}.cls-2{fill:#f9f9f9;}.cls-10,.cls-3{stroke:#000;stroke-miterlimit:10;}.cls-3{stroke-width:12px;fill:url(#linear-gradient);}.cls-17,.cls-4{fill:#fff;}.cls-5{fill:#193651;}.cls-6{fill:#81cc3b;}.cls-7{fill:#ff2434;}.cls-8{fill:#00aeef;}.cls-9{fill:#ffce00;}.cls-10{fill:none;stroke-width:9px;}.cls-11{fill:#1a1a1a;}.cls-12{fill:#ffca28;}.cls-13{fill:#ffa21a;opacity:0.39;}.cls-14{fill:#303c42;}.cls-15{fill:#fdd1b0;}.cls-16{fill:#fdcab4;}.cls-17{opacity:0.2;}.cls-18{opacity:0.1;}</style><linearGradient id="linear-gradient" x1="511.07" y1="-110.01" x2="-103.62" y2="834.76" gradientUnits="userSpaceOnUse"><stop offset="0" stop-color="#1aa59c"/><stop offset="1" stop-color="#005daf"/></linearGradient></defs><title>onboarding_icons</title><polygon class="cls-1" points="331.58 547.75 200.38 547.75 213.18 487.75 318.78 487.75 331.58 547.75"/><rect class="cls-2" x="17.98" y="107.75" width="496" height="380"/><rect class="cls-3" x="25.98" y="115.75" width="480" height="301.86"/><circle cx="265.98" cy="448.55" r="13.6"/><rect class="cls-4" x="95.58" y="120.55" width="340" height="238.87"/><path d="M522,495.75v-396H10v396h193.6l-9.6,44H178v16H354v-16H338l-9.6-44Zm-312,44,9.6-44h92.8l9.6,44Zm-184-424h61.6v255h356v-255H506v364H26Z"/><rect x="192.38" y="440.55" width="16" height="16"/><rect x="323.58" y="440.55" width="16" height="16"/><rect class="cls-5" x="150.78" y="166.95" width="156.8" height="16"/><rect class="cls-5" x="332.38" y="166.95" width="48.8" height="16"/><rect class="cls-5" x="211.58" y="223.75" width="169.6" height="16"/><rect class="cls-5" x="150.78" y="223.75" width="35.2" height="16"/><rect class="cls-6" x="90.05" y="70.64" width="351.07" height="294.45"/><rect class="cls-2" x="118.36" y="98.95" width="294.45" height="237.82"/><rect class="cls-2" x="90.05" y="14.02" width="351.07" height="56.62"/><path d="M84.38,8.35v362.4h362.4V8.35ZM435.46,359.43H95.71V76.3H435.46ZM95.71,65V19.68H435.46V65Z"/><rect x="118.36" y="36.67" width="11.32" height="11.32"/><rect x="151.77" y="36.67" width="11.32" height="11.32"/><rect x="185.18" y="36.67" width="11.32" height="11.32"/><path class="cls-7" d="M342.33,279.81a32.09,32.09,0,0,1,15.22,33.82,34.33,34.33,0,0,0,7.31-8.62A32.47,32.47,0,1,0,309,271.9a34.33,34.33,0,0,0-4,10.55A33.19,33.19,0,0,1,342.33,279.81Z"/><path class="cls-8" d="M346.94,298.52c23.15-11.63,33.5-37.45,23.44-64.63h0C341.5,238,324,259.58,324.72,285.35Z"/><path class="cls-9" d="M329.2,288c-5,5.6-6.72,13.65-3.91,21.93h0c8.61-1.51,14.84-6.91,17.36-14Z"/><circle class="cls-4" cx="357.32" cy="255.91" r="7.58" transform="translate(-45.02 432.79) rotate(-59.34)"/><rect class="cls-10" x="151.78" y="169.45" width="121.6" height="70.54"/><rect class="cls-10" x="212.58" y="123.75" width="169.6" height="19.87"/><rect class="cls-10" x="151.78" y="123.75" width="35.2" height="19.87"/><g id="Symbols"><g id="icon_coins--piggy" data-name="icon coins--piggy"><g id="piggy-bank"><path id="Shape" class="cls-11" d="M653.22,417.38a35.15,35.15,0,0,1-6.93-.69,70.65,70.65,0,0,0,1.61-15.28,16,16,0,0,0-31.94,0c0,8.75,7,17,17,21.94a46.12,46.12,0,0,1-5.26,9.14c-13-21.5-38.26-37.89-69.1-44.18a37.26,37.26,0,0,0,11-13.67,37.2,37.2,0,1,0-35.16-52.9,37,37,0,0,0-22.73,65c-17.85,2.44-34.64,8.27-48.76,17.06a37,37,0,0,0-22.65-7.72,5.32,5.32,0,0,0-5.32,5.32,36.92,36.92,0,0,0,6.4,20.67,70.67,70.67,0,0,0-14.8,27.23h-2.25A21.31,21.31,0,0,0,403,470.61a33.91,33.91,0,0,0,16.06,28.93l37.17,23.16v27.75a5.32,5.32,0,0,0,5.32,5.32h21.29a5.33,5.33,0,0,0,4.76-2.94l6.3-12.6a141.72,141.72,0,0,0,73.69,0l6.3,12.6a5.33,5.33,0,0,0,4.76,2.94H600a5.32,5.32,0,0,0,5.32-5.32V522.27c20.34-15,31.94-35.59,31.94-57A61.29,61.29,0,0,0,632.94,443a56.22,56.22,0,0,0,10.14-16.07A46.06,46.06,0,0,0,653.22,428a5.32,5.32,0,1,0,0-10.65Zm-17-4.41c-5.92-3.36-9.57-8-9.57-11.56a5.32,5.32,0,0,1,10.65,0A60.48,60.48,0,0,1,636.18,413Z"/><circle id="Oval" class="cls-9" cx="568.05" cy="337.54" r="26.61"/><path id="Shape-2" data-name="Shape" class="cls-12" d="M509.5,358.83a26.55,26.55,0,0,1,21.77-26.06,36.61,36.61,0,0,0-.48,4.76,37.13,37.13,0,0,0,.88,7.89,5.18,5.18,0,0,0-.88,2.76v21.29a5.32,5.32,0,0,0,10.65,0v-5.94a37.18,37.18,0,0,0,16.77,9.78,26.46,26.46,0,0,1-48.71-14.48Z"/><path id="Shape-3" data-name="Shape" class="cls-9" d="M509.5,358.83a26.55,26.55,0,0,1,21.77-26.06,36.61,36.61,0,0,0-.48,4.76,37.13,37.13,0,0,0,.88,7.89,5.18,5.18,0,0,0-.88,2.76v21.29a5.32,5.32,0,0,0,10.65,0v-5.94a37.18,37.18,0,0,0,16.77,9.78,26.46,26.46,0,0,1-48.71-14.48Z"/><path id="Shape-4" data-name="Shape" class="cls-13" d="M541.44,363.53v5.94a5.32,5.32,0,0,1-10.65,0V348.18a5.18,5.18,0,0,1,.88-2.76,37.17,37.17,0,0,1-.88-7.89,36.6,36.6,0,0,1,.48-4.76,26.89,26.89,0,0,0-9,3.47,36.77,36.77,0,0,0-2.14,11.94,37.54,37.54,0,0,0,25.75,35.34,26.48,26.48,0,0,0,12.31-10.21A37.19,37.19,0,0,1,541.44,363.53Z"/><path id="Shape-5" data-name="Shape" class="cls-14" d="M568.05,353.5a5.32,5.32,0,0,0,5.32-5.32V326.89a5.32,5.32,0,1,0-10.65,0v21.29A5.32,5.32,0,0,0,568.05,353.5Z"/><path id="SVGCleanerId_0" data-name="SVGCleanerId 0" class="cls-15" d="M597,515.15a5.33,5.33,0,0,0-2.29,4.38v25.6H582l-6.83-13.65a5.3,5.3,0,0,0-6.36-2.7,130.3,130.3,0,0,1-76,0,5.32,5.32,0,0,0-6.36,2.7l-6.83,13.65H466.92V519.75a5.32,5.32,0,0,0-2.51-4.52l-39.68-24.72a23.31,23.31,0,0,1-11-19.9A10.66,10.66,0,0,1,424.34,460h6.47a5.32,5.32,0,0,0,5.22-4.3c2-10.48,7.62-20.72,16.13-29.61a5.32,5.32,0,0,0,.16-7.19,26.62,26.62,0,0,1-6-11.43,26.57,26.57,0,0,1,12.47,6.85,5.3,5.3,0,0,0,6.7.58c17.84-12.1,41-18.77,65.3-18.77,52.83,0,95.81,31,95.81,69.2C626.61,484.2,616.08,501.91,597,515.15Z"/><path id="SVGCleanerId_0-2" data-name="SVGCleanerId 0" class="cls-16" d="M597,515.15a5.33,5.33,0,0,0-2.29,4.38v25.6H582l-6.83-13.65a5.3,5.3,0,0,0-6.36-2.7,130.3,130.3,0,0,1-76,0,5.32,5.32,0,0,0-6.36,2.7l-6.83,13.65H466.92V519.75a5.32,5.32,0,0,0-2.51-4.52l-39.68-24.72a23.31,23.31,0,0,1-11-19.9A10.66,10.66,0,0,1,424.34,460h6.47a5.32,5.32,0,0,0,5.22-4.3c2-10.48,7.62-20.72,16.13-29.61a5.32,5.32,0,0,0,.16-7.19,26.62,26.62,0,0,1-6-11.43,26.57,26.57,0,0,1,12.47,6.85,5.3,5.3,0,0,0,6.7.58c17.84-12.1,41-18.77,65.3-18.77,52.83,0,95.81,31,95.81,69.2C626.61,484.2,616.08,501.91,597,515.15Z"/><path id="Shape-6" data-name="Shape" class="cls-11" d="M456.27,438.67a10.65,10.65,0,1,0,10.65,10.65A10.66,10.66,0,0,0,456.27,438.67Z"/><path id="Shape-7" data-name="Shape" class="cls-17" d="M452.16,426c-1,1.07-1.87,2.22-2.81,3.33,20.48-10.77,47-17.32,76.12-17.32,39.61,0,74.56,12.1,95.75,30.57-13-27-48.6-46.54-90.43-46.54-24.27,0-47.46,6.66-65.3,18.77a5.3,5.3,0,0,1-6.7-.58,26.57,26.57,0,0,0-12.47-6.85,26.62,26.62,0,0,0,6,11.43A5.32,5.32,0,0,1,452.16,426Z"/><path id="Shape-8" data-name="Shape" class="cls-18" d="M522.81,518.51c-28.78,0-55.21-5.43-76.34-14.47l17.95,11.18a5.32,5.32,0,0,1,2.51,4.52v25.38H479.6l6.83-13.65a5.32,5.32,0,0,1,6.36-2.7,130.3,130.3,0,0,0,76,0,5.3,5.3,0,0,1,6.36,2.7L582,545.13h12.68v-25.6a5.33,5.33,0,0,1,2.29-4.38,75.63,75.63,0,0,0,20.58-20.73C594.6,509.15,560.71,518.51,522.81,518.51Z"/><path id="Shape-9" data-name="Shape" class="cls-11" d="M569.71,412.32c-22.28-7.31-55.56-7.31-77.84,0a5.32,5.32,0,1,0,3.32,10.12c20.17-6.62,51-6.62,71.2,0a5.26,5.26,0,0,0,1.66.26,5.32,5.32,0,0,0,1.66-10.38Z"/></g></g></g></svg>