<svg id="Capa_1" data-name="Capa 1" xmlns="http://www.w3.org/2000/svg" xmlns:xlink="http://www.w3.org/1999/xlink" viewBox="0 0 527.44 445.03"><defs><style>.cls-1{fill:#dfdfe3;}.cls-2{fill:#ffa21a;}.cls-3{fill:#a1abb8;}.cls-4{fill:#7d8694;}.cls-5,.cls-8{fill:#fff;}.cls-6{fill:url(#linear-gradient);}.cls-7{fill:#ffce00;}.cls-8{stroke:#000;stroke-linejoin:round;stroke-width:2px;}</style><linearGradient id="linear-gradient" x1="343.48" y1="91.29" x2="132.55" y2="342.07" gradientUnits="userSpaceOnUse"><stop offset="0" stop-color="#1aa59c"/><stop offset="1" stop-color="#005daf"/></linearGradient></defs><title>onboarding_icons</title><rect class="cls-1" x="15.72" y="14.52" width="448" height="400"/><path class="cls-2" d="M495.72,270.52h16v-32h-16v-32h-144v32h16v32h-16v16a72,72,0,1,0,16,142.19v1.81h144v-32h-16v-32h16v-32h-16v-64Z"/><path class="cls-3" d="M273.34,374.52H55.72v-48h24v-80h-24v-64h24v-80h-24v-48h368v144h-32v-64h16v-16h-32v80H358.59c-7.7-58.8-58-104.38-118.86-104.38a120,120,0,1,0,38.14,233.68,79.84,79.84,0,0,0-4.53,46.7Z"/><path class="cls-4" d="M295.21,301.95A104.51,104.51,0,1,1,310.63,290"/><rect x="71.72" y="70.52" width="16" height="16"/><rect x="391.72" y="70.52" width="16" height="16"/><rect x="71.72" y="342.52" width="16" height="16"/><rect x="231.72" y="278.52" width="16" height="24"/><rect x="231.72" y="126.52" width="16" height="24"/><rect x="151.72" y="206.52" width="24" height="16"/><rect x="303.72" y="206.52" width="24" height="16"/><rect x="285.43" y="256.26" width="15.99" height="24" transform="translate(-103.74 286.17) rotate(-45.02)"/><rect x="177.96" y="148.76" width="15.99" height="24" transform="translate(-59.2 178.64) rotate(-45.02)"/><rect x="173.99" y="260.27" width="24" height="15.99" transform="translate(-135.21 210.04) rotate(-44.99)"/><rect x="281.45" y="152.78" width="24" height="15.99" transform="translate(-27.75 254.54) rotate(-44.99)"/><path d="M287.07,207.88l14.78-15.32-21.12-2.63a48,48,0,1,0,6.34,18Zm-47.34,43.8a37.16,37.16,0,1,1,37.16-37.16A37.16,37.16,0,0,1,239.72,251.68Z"/><path class="cls-5" d="M351.72,310.52a48,48,0,1,0,48,48A48,48,0,0,0,351.72,310.52Zm0,90.19a42.19,42.19,0,1,1,42.19-42.19A42.23,42.23,0,0,1,351.72,400.71Z"/><path d="M503.72,294.52v-16h16v-48h-16v-32h-32V6.52H7.72v416h72v16h72v-16H303.93a79.28,79.28,0,0,0,55.79,15.59v.41h160v-48h-16v-16h16v-48h-16v-32Zm-16-80v16h-128v-16Zm-57.62,160h57.62v16H425A78.74,78.74,0,0,0,430.11,374.52Zm-14.54-64h72.15v16H425A79.93,79.93,0,0,0,415.57,310.52Zm-7.85-16h-8.21a79.43,79.43,0,0,0-39.79-15.59v-.41h128v16Zm-112.51,7.43A104.51,104.51,0,1,1,310.63,290,80.34,80.34,0,0,0,295.21,301.95Zm-21.87,72.57H55.72v-48h24v-80h-24v-64h24v-80h-24v-48h368v144h-32v-64h16v-16h-32v80H358.59c-7.7-58.8-58-104.38-118.86-104.38a120,120,0,1,0,38.14,233.68,79.84,79.84,0,0,0-4.53,46.7Zm-209.62-112v48h-16v-48Zm0-144v48h-16v-48Zm296,128v16H349.45a119.82,119.82,0,0,0,5.71-16Zm-16,27.24v5.17c-1.17.12-2.3.34-3.46.51C341.47,277.58,342.62,275.68,343.72,273.76Zm-264,132.76h-56v-384h432v176h-16v-160h-400v64h-8v80h8v64h-8v80h8v64H278.45a79.93,79.93,0,0,0,9.42,16H79.72Zm208-48a63.7,63.7,0,0,1,17.74-44.1,120.92,120.92,0,0,0,14.78-11.55,63.63,63.63,0,0,1,71.48,5.77v1.88h2.19a64,64,0,1,1-106.19,48Zm216,64H399.51a80.46,80.46,0,0,0,16-16h88.16Zm0-64h-72a79.87,79.87,0,0,0-1.62-16h73.62Zm-128-96v-16h128v16Z"/><circle class="cls-6" cx="239.77" cy="214.59" r="37.5"/><rect class="cls-7" x="47.72" y="118.52" width="16" height="48"/><rect class="cls-7" x="47.72" y="262.52" width="16" height="48"/><path class="cls-8" d="M243.46,226.43a11.58,11.58,0,0,1-2.67.31c-6.38,0-11.81-4.86-12.2-12.07a22.71,22.71,0,0,1,.66-4.09l-9.87-4.2a25.49,25.49,0,0,0-1.56,8.8c0,12.37,10.6,22.39,23,22.39a22.33,22.33,0,0,0,8.3-1.59Z"/><path class="cls-8" d="M240.79,191.6a22.31,22.31,0,0,0-9.32,2l5.56,9.44a11.54,11.54,0,0,1,3.76-.63c5.65,0,11.64,4.74,12.21,10.57l-16.07.07,25,10.61a22.9,22.9,0,0,0,1.74-9.51C263.72,201.82,253.15,191.6,240.79,191.6Z"/></svg>