<svg id="Capa_1" data-name="Capa 1" xmlns="http://www.w3.org/2000/svg" xmlns:xlink="http://www.w3.org/1999/xlink" viewBox="0 0 576.05 491.69"><defs><style>.cls-1{fill:url(#linear-gradient);}.cls-2{fill:#81cc3b;}.cls-3{fill:#ffa21a;}</style><linearGradient id="linear-gradient" x1="287.22" y1="-433.18" x2="287.22" y2="678.5" gradientUnits="userSpaceOnUse"><stop offset="0" stop-color="#1aa59c"/><stop offset="1" stop-color="#005daf"/></linearGradient></defs><title>onboarding_icons</title><path class="cls-1" d="M47.42,479.51V12.17H527V479.52Zm437.13-35.58V380H310.14v64Zm-218,0V380H86.41v64Zm218-95.76v-64H310.14v64Zm-218,0v-64H86.41v64Zm218-96.88v-64H310.14v64Zm-218,0v-64H86.41v64Zm216.87-99.14v-64H309v64Zm-218,0v-64H85.29v64Z"/><path d="M521,18.17V473.52H53.42V18.17H521m-218,140H489.42v-76H303v76m-223.73,0H271.42v-76H79.29v76M304.14,257.3H490.55v-76H304.14v76m-223.73,0H272.55v-76H80.41v76m223.73,96.88H490.55v-76H304.14v76m-223.73,0H272.55v-76H80.41v76m223.73,95.76H490.55V374H304.14v76m-223.73,0H272.55V374H80.41v76M533,6.17H41.42V485.51H533V6.17Zm-218,88H477.42v52H315v-52Zm-223.73,0H259.42v52H91.29v-52Zm224.86,99.14H478.55v52H316.14v-52Zm-223.73,0H260.55v52H92.41v-52Zm223.73,96.88H478.55v52H316.14v-52Zm-223.73,0H260.55v52H92.41v-52ZM316.14,386H478.55v52H316.14V386ZM92.41,386H260.55v52H92.41V386Z"/><path class="cls-2" d="M31.63,284V149.42H542.81V284Zm462.71-34.58V188H79v61.46Z"/><path d="M536.81,155.42V278H37.63V155.42H536.81M73,255.41H500.34V182H73v73.46m475.84-112H25.63V290H548.81V143.42ZM85,194H488.34v49.46H85V194Z"/><polygon class="cls-3" points="530.97 219.5 561.79 188.68 561.79 250.32 530.97 219.5"/><polygon class="cls-3" points="45.08 219.5 14.26 250.32 14.26 188.68 45.08 219.5"/></svg>