<svg id="Layer_1" data-name="Layer 1" xmlns="http://www.w3.org/2000/svg" xmlns:xlink="http://www.w3.org/1999/xlink" viewBox="0 0 400 132.95"><defs><style>.cls-1{fill:#354e6b;}.cls-2{fill:#55769d;}.cls-3{fill:url(#linear-gradient);}.cls-4{fill:url(#linear-gradient-2);}.cls-5{fill:#466284;}.cls-6{fill:url(#linear-gradient-3);}.cls-7{fill:url(#linear-gradient-4);}.cls-8{fill:url(#linear-gradient-5);}.cls-9{fill:url(#linear-gradient-6);}.cls-10{fill:url(#linear-gradient-7);}.cls-11{fill:url(#linear-gradient-8);}.cls-12{fill:url(#linear-gradient-9);}.cls-13{fill:#fff;}.cls-14{fill:url(#linear-gradient-10);}.cls-15{fill:url(#linear-gradient-11);}</style><linearGradient id="linear-gradient" y1="102.53" x2="66.12" y2="102.53" gradientUnits="userSpaceOnUse"><stop offset="0.27" stop-color="#55769d"/><stop offset="1" stop-color="#435f80"/></linearGradient><linearGradient id="linear-gradient-2" x1="52.18" y1="10.2" x2="23.04" y2="94.73" gradientUnits="userSpaceOnUse"><stop offset="0.13" stop-color="#2c415b"/><stop offset="0.38" stop-color="#3c5676"/><stop offset="0.69" stop-color="#55769d"/><stop offset="0.79" stop-color="#53749a"/><stop offset="0.86" stop-color="#4d6c91"/><stop offset="0.93" stop-color="#436081"/><stop offset="0.98" stop-color="#364f6b"/><stop offset="1" stop-color="#314963"/></linearGradient><linearGradient id="linear-gradient-3" x1="87.78" y1="48.88" x2="13.02" y2="5.72" gradientUnits="userSpaceOnUse"><stop offset="0" stop-color="#55769d"/><stop offset="0.48" stop-color="#54749b"/><stop offset="0.69" stop-color="#506f94"/><stop offset="0.85" stop-color="#486587"/><stop offset="0.91" stop-color="#445f80"/></linearGradient><linearGradient id="linear-gradient-4" x1="130.65" y1="24.63" x2="57.41" y2="24.63" gradientUnits="userSpaceOnUse"><stop offset="0.25" stop-color="#20344c"/><stop offset="0.41" stop-color="#273d57"/><stop offset="0.68" stop-color="#395473"/><stop offset="1" stop-color="#55769d"/></linearGradient><linearGradient id="linear-gradient-5" x1="-28.31" y1="24.61" x2="47.41" y2="24.61" gradientUnits="userSpaceOnUse"><stop offset="0.25" stop-color="#55769d"/><stop offset="0.41" stop-color="#4e6d92"/><stop offset="0.69" stop-color="#3c5776"/><stop offset="1" stop-color="#233850"/></linearGradient><linearGradient id="linear-gradient-6" x1="52.82" y1="-29.23" x2="51.33" y2="32.92" gradientUnits="userSpaceOnUse"><stop offset="0.01" stop-color="#55769d"/><stop offset="0.2" stop-color="#517197"/><stop offset="0.45" stop-color="#476487"/><stop offset="0.74" stop-color="#354e6c"/><stop offset="1" stop-color="#21354d"/></linearGradient><linearGradient id="linear-gradient-7" x1="66.11" y1="-8.57" x2="4.9" y2="50.84" gradientUnits="userSpaceOnUse"><stop offset="0.25" stop-color="#55769d"/><stop offset="0.41" stop-color="#4e6d92"/><stop offset="0.69" stop-color="#3c5676"/><stop offset="1" stop-color="#22364e"/></linearGradient><linearGradient id="linear-gradient-8" x1="43.89" y1="-0.64" x2="94.9" y2="44.85" xlink:href="#linear-gradient-7"/><linearGradient id="linear-gradient-9" x1="-12.14" y1="88.32" x2="97.32" y2="127.38" xlink:href="#linear-gradient"/><linearGradient id="linear-gradient-10" x1="37.32" y1="-25.62" x2="102.47" y2="32.43" gradientUnits="userSpaceOnUse"><stop offset="0.46" stop-color="#55769d" stop-opacity="0"/><stop offset="0.58" stop-color="#527298" stop-opacity="0.06"/><stop offset="0.71" stop-color="#486689" stop-opacity="0.23"/><stop offset="0.82" stop-color="#385170" stop-opacity="0.51"/><stop offset="0.94" stop-color="#21354d" stop-opacity="0.91"/><stop offset="0.97" stop-color="#1c2e45"/></linearGradient><linearGradient id="linear-gradient-11" x1="52.13" y1="132.98" x2="52.13" y2="-36.4" xlink:href="#linear-gradient-7"/></defs><title>shapeshift_logo</title><path class="cls-1" d="M107.06,76.06c-5.81,0-12,2.29-12,7.84,0,5,5.68,6.4,12.41,7.51,9.15,1.44,18.16,3.27,18.16,13.59S115.75,118.6,107,118.6c-8.1,0-15.81-2.94-19.34-10.58l4.7-2.74c2.94,5.42,9.08,8,14.7,8S120,111.54,120,104.81c.07-5.68-6.34-7.32-13.2-8.36C98,95.08,89.42,93.05,89.42,83.77,89.29,74.23,99,71,106.93,71c6.8,0,13.26,1.37,17.31,8.3l-4.31,2.68C117.44,78,112.15,76.13,107.06,76.06Z"/><path class="cls-1" d="M134.94,72V90.76c2.74-4.25,7.06-5.68,11.17-5.75,9.08,0,13.52,6,13.52,14.9v17.77h-5.29V100c0-6.34-3.27-9.93-9.15-9.93A10.16,10.16,0,0,0,135,100.56v17.12h-5.36V71.95h5.29Z"/><path class="cls-1" d="M192.36,117.81l-.13-5.88a13.66,13.66,0,0,1-11.89,6.53c-9.28,0-16.53-6.4-16.53-16.92s7.38-16.73,16.59-16.66c4.83,0,9.6,2.22,12,6.4l.07-5.88h5.23v32.27h-5.16ZM180.6,90C174.2,90,169,94.55,169,101.74s5.16,11.83,11.56,11.83c15.55,0,15.55-23.65.07-23.65Z"/><path class="cls-1" d="M201.94,85.54H207l.26,6.21a14.27,14.27,0,0,1,12.41-6.79c9.28.2,16.07,6.73,16.07,16.66,0,10.19-6.73,16.79-16.4,16.79-4.57,0-9.67-2-12.22-6.53v21h-5.23Zm28.49,16.2c0-7.25-4.77-11.56-11.37-11.56s-11.3,5-11.3,11.56a11.22,11.22,0,0,0,11.3,11.63C225.52,113.37,230.42,109,230.42,101.74Z"/><path class="cls-1" d="M270.35,112.52c-3.27,3.85-8.89,5.75-13.92,5.75-10,0-17-6.6-17-16.86,0-9.73,7-16.73,16.73-16.73s17.38,6.08,16.14,18.95H244.87c.59,5.95,5.49,9.67,11.69,9.67,3.66,0,8.1-1.44,10.26-4.05l3.59,3.27Zm-3.14-13.33c-.26-6.27-4.57-9.67-10.91-9.67-5.62,0-10.52,3.4-11.43,9.6h22.34Z"/><path class="cls-2" d="M294.13,76.06c-5.81,0-12,2.29-12,7.84,0,5,5.68,6.4,12.41,7.51,9.15,1.44,18.16,3.27,18.16,13.59s-9.87,13.59-18.62,13.59c-8.1,0-15.81-2.94-19.34-10.58l4.7-2.74c2.94,5.42,9.08,8,14.7,8s12.94-1.76,12.94-8.49c.07-5.68-6.34-7.32-13.2-8.36-8.82-1.37-17.38-3.4-17.38-12.67C276.36,74.23,286.09,71,294,71c6.8,0,13.26,1.37,17.31,8.3L307,81.94C304.52,78,299.23,76.13,294.13,76.06Z"/><path class="cls-2" d="M322,72V90.76c2.74-4.25,7.06-5.68,11.17-5.75,9.08,0,13.52,6,13.52,14.9v17.77h-5.29V100c0-6.34-3.27-9.93-9.15-9.93a10.16,10.16,0,0,0-10.19,10.52v17.12h-5.36V71.95H322Z"/><path class="cls-2" d="M351.07,117.68h5.36V85.86h-5.36ZM353.82,81l-4.24-4.64,4.24-4.64,4.24,4.64Z"/><polygon class="cls-2" points="366.43 117.75 366.43 117.68 366.37 117.68 366.43 117.75"/><path class="cls-2" d="M371.72,83.25c0-4.83,2.22-7,5.68-7h.2l1.21-4.6a12,12,0,0,0-1.54-.11c-6.79,0-10.85,4.31-10.85,11.69V85.8H360.1v4.7h6.34v27.18h5.29V90.5h6.41V85.8h-6.41Z"/><path class="cls-2" d="M398.94,113.2a8,8,0,0,1-1.24.11c-3.85,0-5.1-2.42-5.1-6.21V90.46h6.88V85.82h-6.81V76l-5.36.59v9.23h-6.47v4.64h6.47V107.1c0,7.12,3.27,11.17,10.19,11a14.34,14.34,0,0,0,2.49-.3Z"/><polygon class="cls-3" points="0.02 72.12 0 89 23.14 125.08 47.96 132.95 66.12 121.42 0.02 72.12"/><polygon class="cls-4" points="37.28 38.53 0.05 71.21 51.94 101.08 52.13 39.51 37.28 38.53"/><polygon class="cls-5" points="31.98 58.74 51.99 112.17 52.13 61.72 31.98 58.74"/><polygon class="cls-1" points="72 58.93 51.99 112.17 52.13 61.72 72 58.93"/><polygon class="cls-6" points="87.92 0.03 68.06 10.46 52.16 13.95 36.12 10.46 16.32 0 23.14 31.52 16.65 49.22 39.38 63.33 52.03 77.04 52.03 77.17 52.09 77.1 52.15 77.17 52.15 77.04 64.8 63.33 87.58 49.23 81.11 31.55 87.92 0.03"/><polygon class="cls-7" points="87.92 0.03 82.4 31.61 87.58 49.23 81.11 31.55 87.92 0.03"/><polygon class="cls-8" points="16.32 0 21.87 31.59 16.65 49.22 23.14 31.52 16.32 0"/><polygon class="cls-9" points="16.32 0 39.44 9.66 64.81 9.66 87.92 0.03 68.06 10.46 52.16 13.95 36.12 10.46 16.32 0"/><polygon class="cls-10" points="23.14 31.52 21.99 34.67 45.98 12.59 23.14 31.52"/><polygon class="cls-11" points="81.11 31.55 58.38 12.59 82.21 34.53 81.11 31.55"/><polygon class="cls-12" points="0.05 71.21 55.82 101.98 62.88 119.63 47.94 125.34 24.68 122.92 0.04 89 0.05 71.21"/><polygon class="cls-13" points="46.2 96.71 24.74 122.84 24.68 122.92 47.91 130.72 47.94 130.73 66.08 121.44 66.12 121.42 66.12 107.63 46.2 96.71"/><polygon class="cls-14" points="81.11 31.55 87.92 0.03 68.06 10.46 58.38 12.59 81.11 31.55"/><polygon class="cls-13" points="52.13 77.17 45.82 70.25 52.13 63.34 58.45 70.25 52.13 77.17"/><polygon class="cls-15" points="51.52 13.8 52.16 13.95 52.74 13.82 52.12 54.06 51.52 13.8"/></svg>