<svg xmlns="http://www.w3.org/2000/svg" xmlns:xlink="http://www.w3.org/1999/xlink" viewBox="0 0 24.706 23.493">
  <defs>
    <linearGradient id="a">
      <stop offset="0" stop-color="#f1f1f1"/>
      <stop offset="1" stop-color="#fbfbfb" stop-opacity=".886"/>
    </linearGradient>
    <clipPath id="b">
      <path d="M0 327.655h339.279V0H0z"/>
    </clipPath>
    <linearGradient id="c" x1="32.219" x2="31.858" y1="-.695" y2="48.55" gradientUnits="userSpaceOnUse" xlink:href="#a"/>
  </defs>
  <g clip-path="url(#b)" transform="matrix(.35278 0 0 -.35278 -19.497 39.732)">
    <path fill="url(#c)" d="M0 0a.62.62 0 0 0-.28.264c-.193.423-.059.829.757 2.289l13.817 25.174 11.492-.021L12.254 2.499C11.502 1.085 11.151.454 11.062.354c-.057-.062-.252-.188-.436-.28-.334-.166-.334-.166-5.38-.164C1.22-.087.159-.069 0 0zm54.37.077c-.248.123-.402.263-.574.522a3.589 3.589 0 0 0-.234.38c0 .016-.301.574-.669 1.242l-4.122 7.413-16.436.096v7.976h11.998s-11.026 20.4-11.12 20.526c-.147.196-.366.271-.875.271-.824 0-.863-.276-1.243-.894-.613-1.17-2.003-3.672-2.003-3.672l-11.505-.015 6.512 11.504c1.112 1.477 2.363 2.354 3.919 2.749.581.148.666.151 4.021.151 3.306 0 3.451-.005 4.087-.147 1.479-.33 2.451-.851 3.467-1.862a10.732 10.732 0 0 0 1.791-2.275l22.4-40.607C64.844 1.523 65.098.987 65.098.66c0-.368-.078-.523-.328-.653-.167-.086-.855-.099-5.127-.099-4.935 0-4.935 0-5.273.169z" transform="translate(57.618 54.236)"/>
  </g>
</svg>
