<svg xmlns="http://www.w3.org/2000/svg" width="405.41" height="434.704" viewBox="0 0 107.265 115.015"><defs><linearGradient y2="35.617" x2="245.221" y1="35.617" x1="112.769" gradientUnits="userSpaceOnUse" id="a"><stop offset="0" stop-color="#64c4aa"/><stop offset=".5" stop-color="#e6e6e6"/><stop offset="1" stop-color="#e3e3e3"/></linearGradient><linearGradient y2="95.066" x2="245.222" y1="95.066" x1="112.767" gradientUnits="userSpaceOnUse" id="b"><stop offset="0" stop-color="#64c4aa"/><stop offset=".5" stop-color="#e6e6e6"/><stop offset="1" stop-color="#b2b2b2"/></linearGradient><linearGradient y2="121.029" x2="245.221" y1="121.029" x1="112.769" gradientUnits="userSpaceOnUse" id="c"><stop offset="0" stop-color="#d9d9d9"/><stop offset=".5" stop-color="#cfcfcf"/><stop offset="1" stop-color="#b8b8b8"/></linearGradient><linearGradient y2="32.813" x2="245.221" y1="32.813" x1="112.769" gradientUnits="userSpaceOnUse" id="d"><stop offset="0" stop-color="#fff"/><stop offset=".5" stop-color="#dfdfdf"/><stop offset="1" stop-color="silver"/></linearGradient><linearGradient y2="71.687" x2="245.221" y1="71.687" x1="112.768" gradientUnits="userSpaceOnUse" id="e"><stop offset="0" stop-color="#e4e4e4"/><stop offset=".5" stop-color="#d8d8d8"/><stop offset="1" stop-color="#a8a8a8"/></linearGradient><linearGradient y2="18.77" x2="245.223" y1="18.77" x1="112.767" gradientUnits="userSpaceOnUse" id="f"><stop offset="0" stop-color="#f0f0f0"/><stop offset=".5" stop-color="#d2d2d2"/><stop offset="1" stop-color="#adadad"/></linearGradient><linearGradient y2="28.114" x2="245.221" y1="28.114" x1="112.768" gradientUnits="userSpaceOnUse" id="g"><stop offset="0" stop-color="#ddd"/><stop offset=".5" stop-color="#e3dfdf"/><stop offset="1" stop-color="#b7b7b7"/></linearGradient><linearGradient y2="52.107" x2="245.222" y1="52.107" x1="112.768" gradientUnits="userSpaceOnUse" id="h"><stop offset="0" stop-color="#f0f0f0"/><stop offset=".5" stop-color="#cdd2d7"/><stop offset="1" stop-color="#adadad"/></linearGradient><linearGradient y2="69.919" x2="245.219" y1="69.919" x1="112.77" gradientUnits="userSpaceOnUse" id="i"><stop offset="0" stop-color="#c6c6c6"/><stop offset=".5" stop-color="#c9c9c9"/><stop offset="1" stop-color="#b0b0b0"/></linearGradient><linearGradient y2="103.983" x2="245.22" y1="103.983" x1="112.769" gradientUnits="userSpaceOnUse" id="j"><stop offset="0" stop-color="#fff"/><stop offset=".5" stop-color="#e7e7e7"/><stop offset="1" stop-color="#bdbdbd"/></linearGradient><linearGradient y2="105.883" x2="245.22" y1="105.883" x1="112.768" gradientUnits="userSpaceOnUse" id="k"><stop offset="0" stop-color="#64c4aa"/><stop offset=".5" stop-color="#e0e0e0"/><stop offset="1" stop-color="#dedede"/></linearGradient><linearGradient y2="109.259" x2="245.221" y1="109.259" x1="112.768" gradientUnits="userSpaceOnUse" id="l"><stop offset="0" stop-color="#f0f0f0"/><stop offset=".5" stop-color="#cfcfcf"/><stop offset="1" stop-color="#b3b3b3"/></linearGradient></defs><path d="M239.784 70.212l.142-.082.005-28.383.001-2.206a10.464 10.464 0 0 0-4.338-7.424l-1.768-1.021-48.981-28.291-1.501-.867a10.388 10.388 0 0 0-3.085-.917l31.844 53.209z" fill="url(#a)" transform="matrix(.8361 0 0 .8361 -95.985 -.836)"/><path d="M216.833 84.186l-21.75 12.543c.895.522 3.475 2.026 3.643 2.147l.538.311a7.397 7.397 0 0 1 2.498 5.07h-.002c.049.561.004 1.126-.081 1.689z" fill="url(#b)" transform="matrix(.8361 0 0 .8361 -95.985 -.836)"/><path d="M190.675 111.299l-10.497-6.061v31.582l17.719-25.443c-2.187 1.185-4.911 1.256-7.222-.078z" fill="url(#c)" transform="matrix(.8361 0 0 .8361 -95.985 -.836)"/><path d="M156.41 36.477a7.384 7.384 0 0 1 .793-5.386 7.385 7.385 0 0 1 4.525-3.458L177.575 1c-1.189.145-2.313.49-3.346.999l-1.302.751-.295.171-49.836 28.76-7.996-4.615v23.31l24.684 14.25z" fill="url(#d)" transform="matrix(.8361 0 0 .8361 -95.985 -.836)"/><path fill="url(#e)" d="M214.1 72.5l-33.922-19.583v35.207l4.043 2.333z" transform="matrix(.8361 0 0 .8361 -95.985 -.836)"/><path d="M167.325 28.379l10.387 5.997V3.163L163.191 27.42a7.345 7.345 0 0 1 4.134.959z" fill="url(#f)" transform="matrix(.8361 0 0 .8361 -95.985 -.836)"/><path fill="url(#g)" d="M180.178 3.275V35.8l29.712 17.153z" transform="matrix(.8361 0 0 .8361 -95.985 -.836)"/><path d="M156.918 37.901l-16.367 27.344 1.853 1.067 35.308-14.514v-.308l-17.797-10.275c-1.376-.794-2.378-1.972-2.997-3.314z" fill="url(#h)" transform="matrix(.8361 0 0 .8361 -95.985 -.836)"/><path fill="url(#i)" d="M177.712 86.699v-33.56l-33.966 13.949z" transform="matrix(.8361 0 0 .8361 -95.985 -.836)"/><path d="M118.135 69.417l-.136.079-.035.02-.004 28.999c-.005.135-.021.268-.021.404 0 .134.016.267.021.401a10.472 10.472 0 0 0 4.766 8.396l.92.529 49.115 28.367.165.095a10.384 10.384 0 0 0 4.57 1.842l-40.341-58.151z" fill="url(#j)" transform="matrix(.8361 0 0 .8361 -95.985 -.836)"/><path d="M185.444 91.164l8.406 4.854L221 80.36l-31.738 45.576-8.791 12.625c1.254-.176 2.44-.56 3.512-1.138l.159-.089 1.26-.729 49.706-28.688 7.983 4.609V89.239L215.32 73.204z" fill="url(#k)" transform="matrix(.8361 0 0 .8361 -95.985 -.836)"/><path fill="url(#l)" d="M177.712 136.702v-32.905l-38.066-21.982z" transform="matrix(.8361 0 0 .8361 -95.985 -.836)"/><g opacity=".1"><path d="M125.938 20.17l8.685 5.013V-.914l-12.141 20.282a6.141 6.141 0 0 1 3.456.801z" fill="#eee7ff"/></g></svg>
