<svg xmlns="http://www.w3.org/2000/svg" width="32" height="32"><path d="M18.459.893a15.254 15.254 0 0 0-2.527-.215C7.504.678.678 7.504.678 15.932a15.28 15.28 0 0 0 2.727 8.706c1.048-1.541 3.467-2.604 6.271-2.604 1.926 0 3.668.508 4.916 1.325zm8.105 4.114c2.635 5.826.324 8.937.324 8.937-1.788-5.377-6.965-6.162-6.965-6.162s-3.405 18.35-3.405 18.581c0 1.988-2.111 3.668-4.977 4.176 1.386.417 2.866.647 4.391.647 8.428 0 15.254-6.826 15.254-15.254 0-4.283-1.772-8.151-4.622-10.925z" fill="#fbfbfb"/></svg>
