<?xml version="1.0" encoding="UTF-8"?>
<!DOCTYPE svg PUBLIC "-//W3C//DTD SVG 1.1//EN" "http://www.w3.org/Graphics/SVG/1.1/DTD/svg11.dtd">
<!-- Creator: CorelDRAW -->
<svg xmlns="http://www.w3.org/2000/svg" xml:space="preserve" width="210mm" height="297mm" style="shape-rendering:geometricPrecision; text-rendering:geometricPrecision; image-rendering:optimizeQuality; fill-rule:evenodd; clip-rule:evenodd"
viewBox="0 0 210 297"
 xmlns:xlink="http://www.w3.org/1999/xlink">
 <defs>
  <style type="text/css">
   <![CDATA[
    .fil0 {fill:#FEFEFE}
   ]]>
  </style>
 </defs>
 <g id="Layer_x0020_1">
  <metadata id="CorelCorpID_0Corel-Layer"/>
  <path class="fil0" d="M164.549 138.83c-15.884,0 -29.3506,-10.3423 -34.0494,-24.6581 -1.1551,3.5188 -1.7883,7.2747 -1.7883,11.1797 0,19.791 16.0487,35.8381 35.8373,35.8381 19.7947,0 35.8378,-16.0467 35.8378,-35.8381 0,-3.905 -0.6324,-7.6605 -1.7871,-11.1797 -4.6989,14.3154 -18.1622,24.6585 -34.0503,24.6581z"/>
  <path class="fil0" d="M58.579 219.065c-15.0629,-0.0028 -27.3181,-12.2584 -27.3197,-27.3202l0 -23.9256 15.1132 0 23.1195 0 35.7404 51.2458 -46.6534 0zm105.97 -41.7891c-15.7795,0 -29.1713,-10.2074 -33.9541,-24.3763 -1.2148,3.5995 -1.8836,7.4519 -1.8836,11.4622 0,16.2762 10.8583,30.0118 25.7218,34.3799 -3.0811,11.5825 -13.575,20.1741 -26.0835,20.3082l-37.1104 -52.7693c17.2952,-2.6565 25.9438,-11.7704 25.9438,-27.3419 0,-4.5682 -0.8635,-8.8571 -2.5877,-12.867 -1.8179,-4.1488 -4.5694,-7.4357 -8.252,-9.8599 -3.1706,-2.0981 -6.888,-3.5663 -11.1532,-4.4056 -4.2655,-0.8394 -10.0348,-1.2588 -17.3079,-1.2588l-43.9434 -0.0004c4.3985,-9.2074 13.7753,-15.6003 24.6399,-15.6019l71.1761 -0.0008c0.0004,-0.0016 0.0012,-0.0032 0.0016,-0.0051 3.8524,15.639 17.9676,27.2421 34.7922,27.2421 19.7947,-0.0008 35.8378,-16.0467 35.8378,-35.8377 0,-19.7923 -16.0431,-35.8385 -35.8378,-35.8385 -16.4812,0 -30.3601,11.1357 -34.5413,26.2912l-71.4329 -0.0004c-21.0147,0.0048 -38.7392,14.3455 -43.9237,33.7515l-14.2643 -0.0004 0 19.0906 22.2517 0 23.7341 0 38.0878 0c2.8995,0 5.0989,0.2493 7.3174,1.3205 2.1013,1.0139 4.6363,2.2778 4.6363,7.8406 0,5.5627 -2.2837,7.5682 -4.5944,8.5722 -2.5777,1.1203 -4.6062,1.3577 -7.3593,1.3577l-61.8219 -0.0004 -22.2517 0 0 19.091 12.7242 0 0 23.9268c0.0027,25.0657 20.3981,45.4618 45.4657,45.4678l69.4844 -0.0004c22.5224,-0.004 41.2624,-16.4757 44.8378,-38.0028 15.7653,-3.7638 27.4879,-17.9335 27.4879,-34.8488 0,-4.0103 -0.6672,-7.8619 -1.8833,-11.4622 -4.7811,14.1685 -18.1709,24.3763 -33.9541,24.3763z"/>
 </g>
</svg>
