<svg xmlns="http://www.w3.org/2000/svg" width="382.857" height="371.429" viewBox="0 0 101.298 98.274"><g transform="translate(1.646 -18.108)"><path d="M96.506 70.379l.001.003-32.371 18.66-.012-.02a1.114 1.114 0 0 1-1.663-.529l-9.268-15.836a.71.71 0 0 1 .576-1.122l10.015-.015a.633.633 0 0 1 .34 1.13 3.185 3.185 0 1 0 4.244 4.733c1.134-1.134 6.814-6.878 7.898-7.962a2.8 2.8 0 0 0 0-3.958c-1.077-1.077-6.783-6.846-7.897-7.96a3.184 3.184 0 1 0-4.212 4.76.634.634 0 0 1-.41 1.1H53.625a.71.71 0 0 1-.485-1.019l9.336-15.962a1.116 1.116 0 0 1 1.648-.49l.012-.02 32.37 18.66v.003a3.306 3.306 0 0 1 0 5.844zM21.288 23.015A3.306 3.306 0 0 0 19.637 26h-.003l.026 37.363h.023a1.116 1.116 0 0 0 1.248 1.183l18.492.106a.71.71 0 0 0 .64-.93l-5.062-8.768a.635.635 0 0 0-1.16.195 3.184 3.184 0 1 1-6.228-1.268c.408-1.522 2.551-9.348 2.947-10.819a2.798 2.798 0 0 1 3.428-1.979c1.48.397 9.294 2.443 10.842 2.859a3.184 3.184 0 1 1-1.976 6.042.632.632 0 0 0-.807.86l5.02 8.665a.709.709 0 0 0 1.26-.062l9.08-15.943a1.112 1.112 0 0 0-.374-1.705l.012-.02-32.346-18.703-.001.003a3.305 3.305 0 0 0-3.41-.063z" clip-rule="evenodd" fill="#f6f6f6" fill-rule="evenodd" stroke-width=".907"/><path d="M19.659 108.904h-.004l.026-37.365h.023a1.113 1.113 0 0 1 1.29-1.176l18.347-.108a.709.709 0 0 1 .684 1.06l-4.995 8.68a.635.635 0 0 1-1.148-.269 3.183 3.183 0 1 0-6.22 1.31c.415 1.55 2.548 9.34 2.946 10.82a2.8 2.8 0 0 0 3.428 1.98c1.471-.395 9.32-2.45 10.841-2.859a3.184 3.184 0 1 0-2.015-6.027.633.633 0 0 1-.749-.906l5.062-8.767a.71.71 0 0 1 1.126.09l9.155 16.066a1.115 1.115 0 0 1-.4 1.672l.011.02-32.346 18.703-.002-.003a3.305 3.305 0 0 1-5.06-2.922z" clip-rule="evenodd" fill-rule="evenodd" stroke-width=".907" fill="#ccc"/><rect width=".012" height=".02" x="66.77" y="90.08" ry=".006" fill="#484848" stroke-width="4" stroke-linecap="round" stroke-linejoin="round"/><rect width=".002" height=".003" x="34.433" y="108.8" ry=".001" fill="#484848" stroke-width="4" stroke-linecap="round" stroke-linejoin="round"/></g></svg>
