<svg xmlns="http://www.w3.org/2000/svg" data-name="Layer 1" viewBox="0 0 299.75 299.75"><path fill="#dadada" d="M81.81 207.63l29.25-29.57-28.31-28.18H0z"/><path fill="#f4f4f4" d="M81.81 92.13l29.25 29.56-28.31 28.19H0zM92.13 217.94l29.56-29.25L149.88 217v82.75z"/><path fill="#dadada" d="M207.63 217.94l-29.57-29.25L149.88 217v82.75z"/><path fill="#f4f4f4" d="M217.94 207.63l-29.25-29.57L217 149.88h82.75z"/><path fill="#dadada" d="M217.94 92.13l-29.25 29.56L217 149.88h82.75z"/><g><path fill="#dadada" d="M207.63 81.81l-29.57 29.25-28.18-28.31V0z"/><path fill="#f4f4f4" d="M92.13 81.81l29.56 29.25 28.19-28.31V0z"/></g><path fill="#dadada" d="M102.68 149.873l47.2-47.2 47.2 47.2-47.2 47.2z"/></svg>
