<?xml version="1.0" standalone="no"?>
<!DOCTYPE svg PUBLIC "-//W3C//DTD SVG 20010904//EN"
 "http://www.w3.org/TR/2001/REC-SVG-20010904/DTD/svg10.dtd">
<svg version="1.0" xmlns="http://www.w3.org/2000/svg"
 width="16.000000pt" height="16.000000pt" viewBox="0 0 16.000000 16.000000"
 preserveAspectRatio="xMidYMid meet">
<metadata>
Created by potrace 1.11, written by Peter Selinger 2001-2013
</metadata>
<g transform="translate(0.000000,16.000000) scale(0.003200,-0.003200)"
fill="#000000" stroke="none">
<path d="M2355 4894 c-517 -39 -960 -209 -1360 -524 -114 -90 -317 -298 -406
-415 -245 -326 -398 -684 -466 -1090 -26 -157 -26 -573 0 -730 150 -895 752
-1612 1597 -1903 255 -87 483 -125 765 -125 257 -1 445 25 685 94 550 159
1053 546 1363 1047 437 707 470 1613 86 2351 -123 236 -239 393 -438 592 -148
149 -279 253 -439 352 -266 165 -584 280 -900 327 -126 18 -389 31 -487 24z
m432 -923 c136 -30 234 -65 368 -131 149 -74 272 -162 388 -277 361 -358 505
-818 421 -1345 -14 -88 -64 -268 -82 -296 -6 -9 -216 76 -817 330 l-808 343
517 3 516 2 0 21 c0 39 -31 142 -62 203 -110 221 -320 389 -563 452 -92 24
-265 24 -354 0 -35 -9 -65 -16 -66 -14 -2 2 -83 138 -180 303 -162 276 -175
301 -158 312 41 31 296 101 423 117 85 11 367 -3 457 -23z m-1379 -1071 c169
-72 311 -135 315 -139 5 -5 1 -46 -9 -92 -62 -287 50 -604 278 -788 164 -133
394 -200 590 -173 45 7 83 10 86 7 3 -2 85 -141 183 -307 l178 -303 -38 -17
c-22 -9 -84 -28 -139 -41 -671 -170 -1383 153 -1700 771 -174 338 -204 734
-86 1130 14 45 27 82 30 82 3 0 144 -59 312 -130z"/>
</g>
</svg>
