<svg id="Layer_1" data-name="Layer 1" xmlns="http://www.w3.org/2000/svg" viewBox="0 0 841.89 469.61"><defs><style>.cls-1{fill:#34908e;}.cls-1,.cls-2,.cls-3,.cls-4,.cls-5{stroke:#fff;stroke-miterlimit:10;stroke-width:2.68px;}.cls-2{fill:#5ab085;}.cls-3{fill:#bedecd;}.cls-4{fill:#edf7f3;}.cls-5{fill:#424242;}.cls-6{fill:#231f20;}</style></defs><title>color-black</title><g id="Vector_No-Gradient" data-name="Vector No-Gradient"><polygon class="cls-1" points="225.8 378.24 317.92 299.25 224.32 198.04 225.8 378.24"/><polygon class="cls-2" points="157.38 150.32 172.56 297.42 225.96 374.07 223.32 76.08 157.38 150.32"/><polygon class="cls-3" points="224.32 198.04 317.92 299.25 321.33 149.89 224.32 198.04"/><polygon class="cls-4" points="223.32 76.08 224.32 198.04 321.33 149.89 223.32 76.08"/><path class="cls-5" d="M229,77.72a5.69,5.69,0,1,1-5.56-5.81A5.69,5.69,0,0,1,229,77.72Z"/><circle class="cls-5" cx="321.33" cy="149.89" r="5.69" transform="translate(-2.44 294.44) rotate(-49.07)"/><path class="cls-5" d="M163,152a5.69,5.69,0,1,1-5.56-5.82A5.69,5.69,0,0,1,163,152Z"/><path class="cls-5" d="M178.21,299.07a5.69,5.69,0,1,1-5.56-5.81A5.68,5.68,0,0,1,178.21,299.07Z"/><path class="cls-5" d="M231.65,374.2a5.69,5.69,0,1,1-5.56-5.82A5.69,5.69,0,0,1,231.65,374.2Z"/><path class="cls-5" d="M323.07,300.43a5.69,5.69,0,1,1-5.56-5.82A5.69,5.69,0,0,1,323.07,300.43Z"/><path class="cls-5" d="M228.63,200a5.69,5.69,0,1,1-5.56-5.82A5.69,5.69,0,0,1,228.63,200Z"/></g><path class="cls-6" d="M439,215.5a2.58,2.58,0,0,1-.74,1.81,2.39,2.39,0,0,1-1.77.79,3.13,3.13,0,0,1-1.94-.84l-25.24-21.52v19.48a2.63,2.63,0,0,1-2.78,2.88,3,3,0,0,1-2.09-.74,2.83,2.83,0,0,1-.79-2.14V154.65a2.83,2.83,0,0,1,.79-2.14,3,3,0,0,1,2.09-.74,2.63,2.63,0,0,1,2.78,2.88v38.77l23.1-20.78a3.17,3.17,0,0,1,1.95-.83A2.7,2.7,0,0,1,437,174.5a2.66,2.66,0,0,1-1.11,2.23l-20,17.71,21.89,18.74A3.18,3.18,0,0,1,439,215.5Z"/><path class="cls-6" d="M483,171.72a2.72,2.72,0,0,1,1.86.74,2.29,2.29,0,0,1,.83,1.76,2.63,2.63,0,0,1-.28,1.21L459.19,233a2.5,2.5,0,0,1-2.41,1.58A2.79,2.79,0,0,1,455,234a2.05,2.05,0,0,1-.79-1.67,2.53,2.53,0,0,1,.28-1.11l6.59-14.38-19-41.37a2.44,2.44,0,0,1-.28-1.12,2.38,2.38,0,0,1,1-1.9,3.28,3.28,0,0,1,2.08-.79,2.41,2.41,0,0,1,2.42,1.67l16.69,37.48,16.7-37.38A2.5,2.5,0,0,1,483,171.72Z"/><path class="cls-6" d="M526.44,174.41a19,19,0,0,1,7,8.11,28,28,0,0,1,2.51,12.2,28.88,28.88,0,0,1-2.51,12.39,19.31,19.31,0,0,1-7,8.25A18.93,18.93,0,0,1,516,218.28a18.17,18.17,0,0,1-9.46-2.36,14.86,14.86,0,0,1-6-6.91v6.12a3,3,0,0,1-.74,2.09,2.7,2.7,0,0,1-2,.79,2.72,2.72,0,0,1-2.88-2.88V154.65a2.72,2.72,0,0,1,2.88-2.88,2.7,2.7,0,0,1,2,.79,3,3,0,0,1,.74,2.09v26.16a14.81,14.81,0,0,1,6-6.91,18.18,18.18,0,0,1,9.46-2.37A19.15,19.15,0,0,1,526.44,174.41Zm-.23,34q3.94-4.92,3.94-13.64t-3.94-13.5q-3.94-4.77-11.08-4.77t-10.86,4.82q-3.79,4.83-3.8,13.64t3.85,13.59q3.85,4.77,10.9,4.78T526.21,208.36Z"/><path class="cls-6" d="M583.91,208.68a2.44,2.44,0,0,1,.61,1.63c0,1.36-1.06,2.69-3.16,4a27,27,0,0,1-14.1,4q-10.29,0-16.23-6.21T545.09,195a27.23,27.23,0,0,1,2.65-12.29,19.6,19.6,0,0,1,7.42-8.26,20.61,20.61,0,0,1,11-2.92q8.72,0,13.77,5.61T585,192.59a3.53,3.53,0,0,1-.74,2.46,3.22,3.22,0,0,1-2.41.79h-30.9q.29,8.53,4.46,13t11.78,4.46a18.26,18.26,0,0,0,6.68-1.07,45.23,45.23,0,0,0,5.75-2.83,6.58,6.58,0,0,1,2.88-1.39A1.84,1.84,0,0,1,583.91,208.68Zm-28.15-28.43q-3.9,4.08-4.64,11.41h28.66q-.18-7.42-3.71-11.46t-9.92-4A13.7,13.7,0,0,0,555.76,180.25Z"/><path class="cls-6" d="M620.23,172.18A2.19,2.19,0,0,1,621,174c0,1.54-.93,2.41-2.78,2.59l-2.78.28q-6.6.65-9.79,4.73a15.06,15.06,0,0,0-3.2,9.56v24a2.93,2.93,0,0,1-.74,2.14,2.79,2.79,0,0,1-2,.74,2.93,2.93,0,0,1-2.09-.74,2.79,2.79,0,0,1-.79-2.14V174.59a2.76,2.76,0,0,1,.79-2.13,2.89,2.89,0,0,1,2.09-.74,2.59,2.59,0,0,1,1.94.74,2.73,2.73,0,0,1,.75,2v6q3.79-8,14.1-8.72l1.29-.09A4,4,0,0,1,620.23,172.18Z"/><path class="cls-6" d="M626.12,216.85a4.72,4.72,0,0,1,0-6.4,4.2,4.2,0,0,1,3.11-1.26,4.09,4.09,0,0,1,3,1.26,4.72,4.72,0,0,1,0,6.4,4.12,4.12,0,0,1-3,1.25A4.23,4.23,0,0,1,626.12,216.85Z"/><path class="cls-6" d="M440.92,264.43v26.25a2.91,2.91,0,0,1-.75,2.09,2.67,2.67,0,0,1-2,.78,2.7,2.7,0,0,1-2.87-2.87V264.8q0-6.69-2.69-9.74c-1.8-2-4.64-3.06-8.54-3.06q-6.67,0-10.71,4.08t-4,10.94v23.66a2.9,2.9,0,0,1-.74,2.09,2.67,2.67,0,0,1-2,.78,2.7,2.7,0,0,1-2.88-2.87V250.05a2.72,2.72,0,0,1,2.88-2.88,2.67,2.67,0,0,1,1.95.74,2.8,2.8,0,0,1,.74,2.05v5.84a15.07,15.07,0,0,1,6.17-6.54,18.62,18.62,0,0,1,9.32-2.27Q440.91,247,440.92,264.43Z"/><path class="cls-6" d="M491.61,284.14a2.39,2.39,0,0,1,.6,1.62q0,2-3.15,4a27.05,27.05,0,0,1-14.1,4q-10.29,0-16.23-6.22t-5.94-17.06a27.41,27.41,0,0,1,2.64-12.3,19.77,19.77,0,0,1,7.42-8.25,20.64,20.64,0,0,1,11-2.92q8.72,0,13.77,5.61T492.68,268a3.5,3.5,0,0,1-.74,2.46,3.19,3.19,0,0,1-2.42.79H458.63q.28,8.54,4.46,13t11.78,4.45a18.05,18.05,0,0,0,6.68-1.07,45.08,45.08,0,0,0,5.75-2.82,6.67,6.67,0,0,1,2.87-1.4A1.86,1.86,0,0,1,491.61,284.14Zm-28.15-28.43q-3.9,4.08-4.64,11.41h28.66q-.18-7.42-3.71-11.46t-9.92-4A13.69,13.69,0,0,0,463.46,255.71Z"/><path class="cls-6" d="M526.54,291.24a2.1,2.1,0,0,1-.84,1.76,4,4,0,0,1-2.69.55l-2.59-.18c-4.71-.31-8.18-1.75-10.44-4.31s-3.39-6.48-3.39-11.74V252.64h-7a2.44,2.44,0,0,1-1.76-.6,2.11,2.11,0,0,1-.65-1.62,2.27,2.27,0,0,1,.65-1.67,2.39,2.39,0,0,1,1.76-.65h7V236.6a2.93,2.93,0,0,1,.74-2.14,2.8,2.8,0,0,1,2.05-.74,2.92,2.92,0,0,1,2.08.74,2.79,2.79,0,0,1,.79,2.14v11.5h11.23a2.51,2.51,0,0,1,1.85.65,2.27,2.27,0,0,1,.65,1.67,2.11,2.11,0,0,1-.65,1.62,2.58,2.58,0,0,1-1.85.6H512.25v25q0,5.75,2.23,8.21t6.95,2.83l2.51.18C525.67,289,526.54,289.81,526.54,291.24Z"/><path class="cls-6" d="M599.45,247.26a2.84,2.84,0,0,1,1.95.75,2.38,2.38,0,0,1,.83,1.85,5.53,5.53,0,0,1-.18.93l-15.49,40.45a3,3,0,0,1-1.26,1.57,3.5,3.5,0,0,1-3.8,0,3,3,0,0,1-1.25-1.57L566.52,255.8l-13.64,35.44a3,3,0,0,1-1.25,1.57,3.5,3.5,0,0,1-3.8,0,3,3,0,0,1-1.26-1.57L531,250.88a2.89,2.89,0,0,1-.19-.92,2.49,2.49,0,0,1,1-2,3.14,3.14,0,0,1,2.09-.84,2.41,2.41,0,0,1,2.41,1.77l13.54,36.73,14-36.46a3.08,3.08,0,0,1,1.2-1.57,3,3,0,0,1,1.67-.56,2.87,2.87,0,0,1,1.72.56,3.24,3.24,0,0,1,1.16,1.57l13.82,36.37L597.13,249A2.35,2.35,0,0,1,599.45,247.26Z"/><path class="cls-6" d="M619.25,290.86A19.23,19.23,0,0,1,612,282.7,30.69,30.69,0,0,1,612,258a19.35,19.35,0,0,1,7.28-8.16,22.06,22.06,0,0,1,21.76,0,19,19,0,0,1,7.28,8.16,31.13,31.13,0,0,1,0,24.68,18.85,18.85,0,0,1-7.28,8.16,22,22,0,0,1-21.76,0ZM641.1,284q3.9-4.72,3.9-13.64,0-8.72-4-13.59c-2.62-3.24-6.26-4.87-10.89-4.87s-8.35,1.63-10.95,4.87-3.9,7.78-3.9,13.59,1.27,10.49,3.81,13.64,6.18,4.73,10.94,4.73S638.5,287.15,641.1,284Z"/><path class="cls-6" d="M686.28,247.64a2.18,2.18,0,0,1,.74,1.85c0,1.55-.93,2.41-2.78,2.6l-2.78.28q-6.6.65-9.79,4.73a15,15,0,0,0-3.2,9.55v24a2.85,2.85,0,0,1-.75,2.13,2.72,2.72,0,0,1-2,.74,2.88,2.88,0,0,1-2.08-.74,2.76,2.76,0,0,1-.79-2.13V250.05a2.79,2.79,0,0,1,.79-2.14,2.92,2.92,0,0,1,2.08-.74,2.64,2.64,0,0,1,2,.74,2.76,2.76,0,0,1,.74,2.05v6q3.81-8,14.1-8.73l1.3-.09A3.89,3.89,0,0,1,686.28,247.64Z"/><path class="cls-6" d="M729.6,291a2.59,2.59,0,0,1-.74,1.81,2.38,2.38,0,0,1-1.77.78,3.11,3.11,0,0,1-1.94-.83L699.91,271.2v19.48a2.62,2.62,0,0,1-2.78,2.87,2.9,2.9,0,0,1-2.09-.74,2.79,2.79,0,0,1-.78-2.13V230.1A2.82,2.82,0,0,1,695,228a3,3,0,0,1,2.09-.74,2.62,2.62,0,0,1,2.78,2.87v38.78L723,248.1a3.13,3.13,0,0,1,2-.84,2.7,2.7,0,0,1,2.69,2.7,2.65,2.65,0,0,1-1.11,2.22l-20,17.72,21.89,18.74A3.16,3.16,0,0,1,729.6,291Z"/></svg>