<svg id="Capa_1" data-name="Capa 1" xmlns="http://www.w3.org/2000/svg" xmlns:xlink="http://www.w3.org/1999/xlink" viewBox="0 0 663.74 663.69"><defs><style>.cls-1{fill:#81cc3b;}.cls-2{fill:#7bba38;}.cls-3{fill:#ffce00;}.cls-4{fill:url(#linear-gradient);}.cls-5{fill:#fff;}</style><linearGradient id="linear-gradient" x1="284.42" y1="380.93" x2="198.92" y2="463.42" gradientUnits="userSpaceOnUse"><stop offset="0" stop-color="#1aa59c"/><stop offset="1" stop-color="#005daf"/></linearGradient></defs><title>onboarding_icons</title><g id="Symbols"><g id="icon_champagne" data-name="icon champagne"><g id="champagne"><g id="Group"><rect id="Rectangle-path" class="cls-1" x="498.65" y="112.94" width="30.29" height="73.96" transform="translate(44.48 407.22) rotate(-45)"/><path id="Shape" class="cls-1" d="M150.82,642.79,20.93,512.89c49.34-58.56,70.4-81.89,99.84-109.05l139.1,139.1C232.7,572.38,208.44,594.66,150.82,642.79Z"/><path id="Shape-2" data-name="Shape" class="cls-1" d="M385.36,228.33C320.62,275.6,296,265.84,219.66,320.58L343.07,444c54.49-76.13,44.87-100.8,92.29-165.64l-39.31-10.69Z"/></g><g id="Group-2" data-name="Group"><rect id="Rectangle-path-2" data-name="Rectangle-path" class="cls-2" x="510.88" y="142.45" width="30.29" height="39.38" transform="translate(39.42 419.45) rotate(-45)"/><path id="Shape-3" data-name="Shape" class="cls-2" d="M150.82,642.79c57.62-48.13,81.88-70.4,109-99.85L188.62,471.7,84.17,576.14Z"/><path id="Shape-4" data-name="Shape" class="cls-2" d="M343.07,444c54.49-76.13,44.87-100.8,92.29-165.64l-39.31-10.69-.73-2.67L279.7,380.62Z"/></g><g id="Group-3" data-name="Group"><path id="Shape-5" data-name="Shape" class="cls-3" d="M343.07,444c-17.16,24-43.09,55.46-83.21,99l-139.1-139.1c43.49-40.14,75-66.09,98.9-83.26Z"/><path id="Shape-6" data-name="Shape" class="cls-3" d="M483.55,141.1c-42.24,42.24-73.21,69-98.2,87.23l10.69,39.34,39.31,10.69c18.29-25,45-56,87.26-98.19Z"/></g><g id="Group-4" data-name="Group"><circle id="Oval" class="cls-4" cx="237" cy="426.69" r="35.91"/><rect id="Rectangle-path-3" data-name="Rectangle-path" class="cls-3" x="541.74" y="75.59" width="64.22" height="23.14" transform="translate(106.44 431.3) rotate(-45)"/><rect id="Rectangle-path-4" data-name="Rectangle-path" class="cls-3" x="589.68" y="153" width="64.21" height="23.14" transform="translate(-18.61 224.56) rotate(-20.18)"/><rect id="Rectangle-path-5" data-name="Rectangle-path" class="cls-3" x="467.03" y="30.38" width="64.21" height="23.14" transform="translate(287.6 495.99) rotate(-69.82)"/></g><path id="Shape-7" data-name="Shape" d="M463.27,134.48l6.59,6.59C434.55,176,405,202,379.66,220.52c-30.53,22.3-51.89,31.55-74.51,41.34-23.63,10.24-48,20.81-84.41,46.13l0,0L214,312.73l-9.25,6.63.09.09c-23.22,17.41-50.8,40.77-83.83,71l0,0-6.82,6.3-7.39,6.82,0,0c-27.18,25.77-49.61,51.17-93.33,103.06l-5.71,6.79L150.24,655.86,157,650.2c52.82-44.11,77.94-66.77,103.08-93.36l0,0,6.82-7.39,6.29-6.82,0,0c30.2-33,53.55-60.62,71-83.87l.09.09,6.63-9.26.06-.08,4.71-6.58,0,0c25.12-36.16,35.68-60.47,45.9-84,9.85-22.7,19.16-44.14,41.6-74.82,18.53-25.34,44.58-54.91,79.48-90.21l6.59,6.59,35.08-35.08-66-66ZM151.4,629.7,34,512.34c42.49-50.29,62.73-72.59,86.49-95.06L236.88,533.62l9.55,9.55C222.82,568.17,199.21,589.64,151.4,629.7ZM259.57,529,134.72,404.14c33.35-30.5,61-53.81,84-70.87l55.85,55.85L330.39,445C313.33,468,290,495.64,259.57,529Zm124.27-177.8c-9.57,22-19.43,44.77-42.07,77.83L234.63,321.89c33.29-22.83,56.09-32.71,78.2-42.29,20.74-9,40.48-17.53,66.82-35.43l8.53,31.36,31.32,8.52C401.48,310.54,392.87,330.36,383.83,351.19Zm47.7-83.89-27.61-7.51-7.51-27.64c24.89-18.75,53.51-44.18,87.12-77.41L509,180.18C475.76,213.78,450.31,242.4,431.53,267.3Zm97.7-94.18L490.6,134.48l7.76-7.75L537,165.36Z"/><g id="Group-5" data-name="Group"><polygon id="Shape-8" data-name="Shape" class="cls-3" points="208.58 121.26 227.91 121.26 227.91 108.08 241.09 108.08 241.09 88.76 227.91 88.76 227.91 75.58 208.58 75.58 208.58 88.76 195.4 88.76 195.4 108.08 208.58 108.08 208.58 121.26"/><polygon id="Shape-9" data-name="Shape" class="cls-3" points="607.6 427.28 588.27 427.28 588.27 440.46 575.09 440.46 575.09 459.79 588.27 459.79 588.27 472.96 607.6 472.96 607.6 459.79 620.78 459.79 620.78 440.46 607.6 440.46 607.6 427.28"/><polygon id="Shape-10" data-name="Shape" class="cls-3" points="395.82 541.84 376.49 541.84 376.49 555.02 363.31 555.02 363.31 574.35 376.49 574.35 376.49 587.53 395.82 587.53 395.82 574.35 409 574.35 409 555.02 395.82 555.02 395.82 541.84"/><rect id="Rectangle-path-6" data-name="Rectangle-path" class="cls-3" x="51.55" y="317.96" width="23.14" height="23.14"/><rect id="Rectangle-path-7" data-name="Rectangle-path" class="cls-3" x="479.3" y="382.86" width="23.14" height="23.14"/><rect id="Rectangle-path-8" data-name="Rectangle-path" class="cls-3" x="112.79" y="226.81" width="23.14" height="23.14"/></g><g id="Group-6" data-name="Group"><polygon id="Shape-11" data-name="Shape" class="cls-5" points="151.11 618.09 114.36 581.34 128.03 567.67 152.16 591.8 189.14 560.3 201.67 575.01 151.11 618.09"/><rect id="Rectangle-path-9" data-name="Rectangle-path" class="cls-5" x="91.84" y="540.83" width="23.14" height="26.37" transform="translate(-361.46 235.39) rotate(-45)"/></g></g></g></g></svg>