<svg xmlns="http://www.w3.org/2000/svg" viewBox="0 0 247.65 246.063">
  <g stroke-width=".265">
    <path fill="#e5e5e5" d="M38.278 210.713l8.889-10.861c.158-.188 199.634 37.325 199.634 37.325l-9.177 9.027z"/>
    <path fill="#cbcbcb" d="M2.66 12.828l7.799-11.663 36.903 198.494-8.51 11.059z"/>
    <path fill="#eee" d="M147.29 101.435c-.093-.104-10.938-39.47-10.882-39.499.244-.129 34.119 12.613 34.119 12.613l12.506 36.485z"/>
    <path fill="#cfcfcf" d="M136.371 61.971l-1.534-6.161 40.38 14.38-4.69 4.359z"/>
    <path fill="#bdbdbd" d="M87.127 161.393l6.974-7.215 122.3 28.68-6.84 5.391zM32.41 27.095l-1.591-8.025 34.539 12.386-5.441 4.69z"/>
    <path fill="#b4b4b4" d="M183.033 111.034l-12.506-36.485 4.69-4.359 15.085 42.508z"/>
    <path fill="#cecece" d="M62.124 183.511S32.254 27.251 32.41 27.095l27.717 8.68s.344-.213.103.112c-.309.418 26.897 125.506 26.897 125.506l122.435 26.856 10.663 27.798z"/>
    <path fill="#a3a3a3" d="M220.063 216.024l-10.501-27.775 6.838-5.39 12.97 34.863c.067.11.085.187.04.172-.045-.014-9.347-1.87-9.347-1.87zm-132.936-54.63L59.917 36.144l5.441-4.69 28.743 122.723z"/>
    <path fill="#cbc7c7" d="M110.247 137.963L88 45.733l22.413 7.78 18.556 65.985 65.071 16.465 8.722 25.316z"/>
    <path fill="#b7b7b7" d="M194.04 135.963l-65.071-16.465c1.756-1.86 5.339-4.79 5.339-4.79l63.478 17.011zm-106-90.183c-.04-.047-1.643-7.012-1.643-7.012l28.232 10.266-4.062 4.558z"/>
    <path fill="#939393" d="M202.433 161.204l-8.393-25.241 3.746-4.244 10.772 30.81zm-73.464-41.706l-18.556-65.986 4.216-4.478c.172.194 19.679 65.673 19.679 65.673z"/>
  </g>
  <path fill="#fff" stroke-width=".265" d="M134.837 55.81l40.38 14.38 15.085 42.508-43.013-11.263zm-48.44-17.042l28.232 10.266 19.679 65.673 63.478 17.012 10.772 30.81-98.311-24.566zm-21.039-7.312l28.743 122.722 122.3 28.68 12.968 34.864-167.245-34.21L30.82 19.07zm-54.9-30.291L47.363 199.66l199.44 37.517L184.263 63.5z"/>
</svg>
