<svg xmlns="http://www.w3.org/2000/svg" viewBox="0 0 67.409 46.913">
  <path fill="#f9f9f9" stroke-width=".265" d="M19.02 46.55c-5.385-1.22-9.092-3.32-12.75-7.219-8.36-8.908-8.36-22.966 0-31.874C9.462 4.053 12.64 2.073 17.06.732c2.054-.623 3.407-.756 6.296-.729 3.742-.025 6.021.283 9.517 1.762 5.826 2.464 10.808 7.789 12.853 13.74.416 1.21.837 2.707.935 3.325l.178 1.125-19.712-.076 8.531 14.985-7.255 11.73s-7.2.45-9.383-.044zm6.254-19.598c1.11-1.262 1.148-1.76-2.93-7.798-3.224-4.775-4.167-5.694-4.78-5.767-.897-.106-1.484.354-1.484 1.162 0 .338 1.136 3.24 2.688 6.53 3.01 6.38 3.52 6.947 5.117 6.681.436-.073 1.061-.436 1.389-.808zm6.331 19.809l7.229-11.903-6.548-11.844 6.914-.017 7.026 11.907L39.16 46.81zm11.097.119l6.943-12.02-6.937-11.906 7.097.043 7.08 11.987-7.26 11.873zm10.483.011l7.138-11.875-7.03-12.078 7.14-.073 6.976 11.992-7.062 12.056z"/>
</svg>
