<svg xmlns="http://www.w3.org/2000/svg" width="377.512" height="311.966" viewBox="0 0 99.883 82.541"><path d="M1.134 81.346c15.16-26.15 48.889-80.212 48.889-80.212l48.25 80.273zm88.696-4.153s-8.276-14.61-12.698-21.746c0 0-7.54 5.766-15.294 9.178-7.753 3.412-17.934 3.14-24.884-.25-6.95-3.392-10.953-6.787-13.52-9.147L10.162 77.206zm-28.257-17.69c5.723-2.38 9.171-5.352 13.027-8.796-3.708-4.024-7.905-6.44-12.522-8.654-8.9-4.258-17.22-3.831-24.928.125-3.698 2.352-8.175 4.663-11.525 8.723 2.68 2.825 7.479 6.266 13.007 8.789 7.303 3.332 15.107 3.07 22.94-.188zm-11.73.494c-5.348.034-9.897-4.182-9.742-9.719.156-5.537 4.487-8.738 9.359-8.683 4.87.056 9.616 2.349 9.73 9.184.081 4.857-3.998 9.184-9.347 9.218zm4.326-9.326c.061-6.092-9.172-5.771-9.206-.146-.033 5.626 9.153 5.496 9.206.146zm-14.165-15.08c6.72-2.113 12.892-1.838 17.328-.349 4.437 1.489 6.87 2.478 10.223 4.249L50.028 9.398l-19.085 30.8s4.805-3.269 9.06-4.607z" stroke-width=".704" fill="#f9f9f9"/></svg>
