<svg id="svg" version="1.1" width="400" height="400" xmlns="http://www.w3.org/2000/svg" xmlns:xlink="http://www.w3.org/1999/xlink" ><g id="svgg"><path id="path0" d="M187.869 0.220 C 66.745 6.982,-19.975 118.695,3.867 237.252 C 28.045 357.475,154.324 426.713,269.565 382.933 C 331.166 359.531,378.590 303.688,392.028 238.729 C 415.823 123.707,335.975 14.000,219.057 1.074 C 211.292 0.216,195.632 -0.213,187.869 0.220 M204.509 15.679 C 321.130 20.346,403.782 130.626,374.995 243.156 C 349.170 344.105,243.518 403.355,144.283 372.539 C 60.879 346.639,7.262 265.243,16.556 178.637 C 26.191 88.847,100.808 19.142,190.982 15.690 C 197.372 15.446,198.644 15.445,204.509 15.679 M230.703 94.256 L 210.306 107.333 156.375 107.343 C 105.204 107.353,102.439 107.373,102.332 107.729 C 102.270 107.936,97.095 124.893,90.831 145.412 C 84.567 165.931,79.442 182.863,79.442 183.039 C 79.442 183.321,84.145 183.365,119.232 183.413 L 159.022 183.468 153.233 202.791 L 147.443 222.115 122.440 258.470 C 108.688 278.465,97.487 294.874,97.548 294.935 C 97.608 294.996,105.661 288.966,115.442 281.536 C 125.223 274.105,133.257 268.049,133.296 268.078 C 133.510 268.239,131.236 275.273,123.910 297.102 L 115.750 321.418 160.001 321.364 L 204.252 321.310 219.962 256.253 C 228.603 220.472,235.734 190.953,235.810 190.654 C 235.908 190.267,237.237 189.139,240.423 186.735 L 244.898 183.360 274.233 183.360 C 301.985 183.360,303.573 183.340,303.678 182.984 C 303.740 182.778,308.963 165.792,315.287 145.238 C 321.611 124.683,326.785 107.751,326.785 107.611 C 326.785 107.414,316.218 107.342,280.826 107.301 L 234.868 107.246 242.668 95.008 C 251.869 80.572,251.505 81.157,251.279 81.169 C 251.181 81.175,241.922 87.064,230.703 94.256 M222.946 109.769 C 222.858 109.917,216.843 119.361,209.581 130.757 C 195.144 153.409,192.805 157.116,192.811 157.339 C 192.813 157.421,203.207 161.848,215.908 167.178 L 239.001 176.868 187.187 216.155 C 158.689 237.763,135.340 255.414,135.299 255.380 C 135.258 255.345,146.594 238.783,160.491 218.574 C 174.388 198.365,185.709 181.716,185.650 181.575 C 185.590 181.435,176.277 176.490,164.954 170.586 L 144.366 159.852 148.564 157.167 C 150.873 155.690,168.560 144.364,187.868 131.998 C 225.166 108.110,223.189 109.363,222.946 109.769 M176.806 121.383 C 176.573 121.542,162.469 130.544,145.464 141.389 C 128.459 152.233,114.501 161.143,114.445 161.187 C 114.258 161.338,114.937 161.640,126.743 166.655 C 136.002 170.588,138.369 171.670,137.807 171.712 C 137.413 171.742,127.512 171.694,115.804 171.605 L 94.517 171.444 102.277 146.271 L 110.038 121.098 143.633 121.096 C 171.815 121.095,177.161 121.141,176.806 121.383 M311.541 121.267 C 311.541 121.396,298.565 161.482,295.624 170.437 L 295.179 171.791 279.701 171.637 L 264.223 171.483 241.251 162.819 C 228.617 158.053,218.237 154.111,218.185 154.059 C 218.133 154.007,222.619 146.569,228.154 137.531 L 238.218 121.098 274.879 121.096 C 295.043 121.096,311.541 121.172,311.541 121.267 M204.756 261.959 L 193.090 306.495 164.392 306.549 C 148.609 306.579,135.702 306.531,135.710 306.442 C 135.718 306.353,138.254 298.421,141.346 288.816 L 146.967 271.352 181.643 244.344 C 200.714 229.489,216.341 217.355,216.370 217.380 C 216.399 217.404,211.172 237.465,204.756 261.959 " stroke="none" fill="#000000" fill-rule="evenodd"></path></g></svg>