<svg xmlns="http://www.w3.org/2000/svg" xmlns:xlink="http://www.w3.org/1999/xlink" width="100" height="101">
  <defs>
    <path id="a" d="M0 99.887V.068h99.932v99.819z"/>
  </defs>
  <g fill="none" fill-rule="evenodd" opacity=".8">
    <path fill="#FFF" d="M45.324 69.035c1.91.91 3.938 1.357 5.946 1.357 3.061 0 6.079-1.039 8.574-3.06.33-.266.663-.553.989-.852A2.733 2.733 0 0 0 61 62.616a2.741 2.741 0 0 0-3.868-.168 16.14 16.14 0 0 1-.737.635c-2.514 2.036-5.772 2.416-8.716 1.014-2.995-1.425-4.782-4.247-4.782-7.546V41.97h16.394a2.394 2.394 0 1 0 0-4.787H42.898v-4.233a2.736 2.736 0 0 0-2.738-2.735 2.737 2.737 0 0 0-2.738 2.735v4.233H32.94a2.394 2.394 0 0 0 0 4.786h4.482v14.58c0 5.38 3.028 10.164 7.902 12.485"/>
    <path fill="#FFF" d="M86.564 58.174c.28-1.302-.722-2.53-2.055-2.53h-.632c-.967 0-1.817.664-2.025 1.608-3.111 14.193-15.553 25.024-30.53 25.633-23.07.937-41.177-22.181-31.19-46.247A29.906 29.906 0 0 1 36.31 20.494c16.53-6.83 32.608-.453 40.764 11.666a2.085 2.085 0 0 0 2.837.598l.371-.233a2.25 2.25 0 0 0 .674-3.167c-8.97-13.2-26.16-20.397-44.165-14.182-10.167 3.51-18.18 11.356-21.818 21.469C5.51 62.962 24.9 87.698 49.966 87.698c17.94 0 32.971-12.671 36.598-29.524"/>
    <g transform="translate(0 .329)">
      <mask id="b" fill="#fff">
        <use xlink:href="#a"/>
      </mask>
      <path fill="#FFF" d="M47.672.12C21.98 1.272 1.183 22.072.05 47.737a49.778 49.778 0 0 0 1.958 16.25c.407 1.388 1.984 2.066 3.292 1.445l.045-.02A2.374 2.374 0 0 0 6.6 62.59 44.84 44.84 0 0 1 4.828 48.15C5.768 24.86 24.63 5.92 47.943 4.898 73.769 3.766 95.14 24.425 95.14 49.978c0 24.881-20.265 45.123-45.175 45.123-3.348 0-6.61-.368-9.752-1.062a2.273 2.273 0 0 0-2.266.816c-1.113 1.404-.384 3.506 1.368 3.888a50.037 50.037 0 0 0 12.465 1.112c25.902-.926 46.993-21.825 48.104-47.691C101.143 22.886 76.996-1.198 47.672.119" mask="url(#b)"/>
    </g>
  </g>
</svg>
