<svg xmlns="http://www.w3.org/2000/svg" viewBox="0 0 98.954 148.696">
  <path fill="#dedede" d="M3.988 119.516l34.456.293 8.753 25.752zm46.699 26.063l8.638-26.181 34.873-.091zm-1.814-1.218l-7.843-24.77 15.912.021zM2.12 117.397l23.157-40.862 12.91 40.986zm38.29.11l-13.8-43.404 22.272-37.992s15.16 24.95 22.503 37.402l-13.71 43.814zm19.397-.044l13.06-40.942L96.06 117.48zM2.73 112.008l14.453-62.189.322-.01 6.988 23.711L2.73 112.008zm70.903-38.553l7.285-23.646 14.503 62.166zm-48.082-2.079l-7.408-25.243L47.858 4.101l-.19 30.163zm24.412-37.33l-.08-29.91L79.79 46.62 72.25 71.352z"/>
</svg>
