<svg xmlns="http://www.w3.org/2000/svg" xmlns:i="&amp;ns_ai;" id="Layer_1" width="97.069" height="155.076">
  <g id="g849" transform="translate(-157.948 -90.172)">
    <path id="polygon819" fill="none" stroke="#fff" stroke-linecap="round" stroke-linejoin="round" stroke-miterlimit="10" stroke-width="2" d="M179.4 140.4l15.5-25 56.6 53.1z" class="st0"/>
    <path id="polygon821" fill="none" stroke="#fff" stroke-linecap="round" stroke-linejoin="round" stroke-miterlimit="10" stroke-width="2" d="M206.7 96.3l-11.8 19.1 10.1 9.4z" class="st0"/>
    <path id="path823" fill="none" stroke="#fff" stroke-linecap="round" stroke-linejoin="round" stroke-miterlimit="10" stroke-width="2" d="M232.2 161l-7.4 50.6s13.6-22 13.8-22.2c.2-.2-6.4-28.4-6.4-28.4z" class="st0"/>
    <path id="polygon825" fill="none" stroke="#fff" stroke-linecap="round" stroke-linejoin="round" stroke-miterlimit="10" stroke-width="2" d="M204.8 177.8l-.9-27.8 28.3 11z" class="st0"/>
    <path id="polygon827" fill="none" stroke="#fff" stroke-linecap="round" stroke-linejoin="round" stroke-miterlimit="10" stroke-width="2" d="M177.9 194.2l15.5 25.1 38.8-58.3z" class="st0"/>
    <path id="polygon829" fill="none" stroke="#fff" stroke-linecap="round" stroke-linejoin="round" stroke-miterlimit="10" stroke-width="2" d="M216.9 184l15.3-23-7.4 50.6z" class="st0"/>
    <path id="polygon831" fill="none" stroke="#fff" stroke-linecap="round" stroke-linejoin="round" stroke-miterlimit="10" stroke-width="2" d="M206.7 240.8l-13.3-21.5 31.4-7.7z" class="st0"/>
    <path id="polygon833" fill="none" stroke="#fff" stroke-linecap="round" stroke-linejoin="round" stroke-miterlimit="10" stroke-width="2" d="M162 168.5l15.9 25.7 26.5-28.6z" class="st0"/>
    <path id="polygon835" fill="none" stroke="#fff" stroke-linecap="round" stroke-linejoin="round" stroke-miterlimit="10" stroke-width="2" d="M204.8 177.8l-26.9 16.4 26.5-28.6z" class="st0"/>
    <path id="polygon837" fill="none" stroke="#fff" stroke-linecap="round" stroke-linejoin="round" stroke-miterlimit="10" stroke-width="2" d="M179.4 140.4L162 168.5l42.4-2.9z" class="st0"/>
    <path id="polygon839" fill="none" stroke="#fff" stroke-linecap="round" stroke-linejoin="round" stroke-miterlimit="10" stroke-width="2" d="M179.4 140.4l24.5 9.6.5 15.6z" class="st0"/>
    <path id="polygon841" fill="none" stroke="#fff" stroke-linecap="round" stroke-linejoin="round" stroke-miterlimit="10" stroke-width="2" d="M238.6 189.4l-6.4-28.4 19.3 7.5z" class="st0"/>
    <path id="polygon843" fill="none" stroke="#fff" stroke-linecap="round" stroke-linejoin="round" stroke-miterlimit="10" stroke-width="2" d="M216.9 184l-23.5 35.3 31.4-7.7z" class="st0"/>
    <path id="polygon845" fill="none" stroke="#fff" stroke-linecap="round" stroke-linejoin="round" stroke-miterlimit="10" stroke-width="2" d="M206.7 96.3l18.1 47.2 26.7 25z" class="st0"/>
    <path id="polygon847" fill="none" stroke="#fff" stroke-linecap="round" stroke-linejoin="round" stroke-miterlimit="10" stroke-width="2" d="M206.7 96.3l-1.7 28.5 19.8 18.7z" class="st0"/>
  </g>
</svg>
