<svg xmlns="http://www.w3.org/2000/svg" viewBox="0 0 52.519 52.519"><g fill="#fff"><path d="M16.049 31.137H4.001l20.08 19.971 20.08-19.971H32.113S27.821 13.402 48.177 1.288c0 0-15.536-3.02-26.794 10.51-.001-.001-5.732 6.129-5.334 19.339z"/><path d="M24.081 52.519L1.577 30.137H15.03c-.092-12.759 5.383-18.767 5.622-19.022C28.691 1.45 38.933 0 44.318 0c2.446 0 3.985.294 4.049.307l2.574.5-2.253 1.341C31.371 12.453 32.394 26.663 32.94 30.137h13.645L24.081 52.519zM6.425 32.137l17.656 17.562 17.656-17.562H31.326l-.185-.765c-.043-.177-3.881-17.082 14.041-29.358-4.784-.15-15.02.795-23.031 10.423-.091.1-5.481 6.089-5.103 18.67l.03 1.03H6.425z"/></g></svg>
