<?xml version="1.0" encoding="utf-8"?>
<!-- Generator: Adobe Illustrator 21.0.0, SVG Export Plug-In . SVG Version: 6.00 Build 0)  -->
<svg version="1.1" id="Layer_1" xmlns="http://www.w3.org/2000/svg" xmlns:xlink="http://www.w3.org/1999/xlink" x="0px" y="0px"
	 viewBox="0 0 1000 638.6" style="enable-background:new 0 0 1000 638.6;" xml:space="preserve">
<style type="text/css">
	.st0{fill:#F6F7FA;}
	.st1{fill:#31CB9E;}
</style>
<g>
	<g>
		<g>
			<path class="st0" d="M559.3,253.3l-24.9,56.9c-2.2,4.9-4.8,8.4-7.8,10.7c-3,2.3-6.7,3.4-11,3.4c-2.8,0-5.6-0.3-8.4-1v-9.3
				c3.2,0.3,5.2,0.4,6,0.4c2.6,0,4.8-0.5,6.6-1.6c1.8-1,3.3-3,4.6-5.8l2.1-4.8L506,253.5h11.8l14.7,37.3l15.1-37.3L559.3,253.3z"/>
			<path class="st0" d="M595.4,252.4c7.2,0,13.2,2.5,18,7.6c4.8,5.1,7.2,11.5,7.2,19s-2.4,13.9-7.1,19c-4.7,5.1-10.6,7.6-17.8,7.6
				c-3.7,0-7.2-0.7-10.3-2.2c-3.1-1.5-5.6-3.5-7.5-6.1v7.2h-10.2v-78.1h10.9v33.2c4.1-4.9,9.8-7.4,17.2-7.4L595.4,252.4z
				 M593.8,295.8c4.5,0,8-1.7,11-4.8c3-3.1,4.5-7.2,4.5-12.1s-1.5-8.8-4.5-12c-3-3.1-6.8-4.7-11.2-4.7c-4.3,0-7.9,1.5-10.9,4.4
				c-3,2.9-4.5,7.1-4.5,12.5c0,5.5,1.6,9.7,4.6,12.5c3,2.8,6.7,4.2,10.9,4.2L593.8,295.8z"/>
			<path class="st0" d="M480.6,360c5.9,0,10.6,2,14,5.7c3.4,3.7,5.1,8.6,5.1,14.8v32h-10.9V382c0-3.5-1-6.5-3.1-8.6
				c-2.1-2.2-4.8-3.3-8.1-3.3c-3.4,0-6.2,1.1-8.4,3.3c-2.2,2.2-3.2,5-3.2,8.4v30.7H455v-51.3h10.2v5.1c3.9-4.2,9-6.2,15.3-6.2
				L480.6,360z"/>
			<path class="st0" d="M560.5,390.3h-38.1c0.7,4.3,2.6,7.6,5.6,10c3,2.4,6.8,3.5,11.2,3.5c5.3,0,10.3-2,14.9-6l5.2,7.5
				c-5.8,5.5-12.6,8.2-20.4,8.2c-7.9,0-14.5-2.6-19.7-7.7c-5.2-5.1-7.8-11.5-7.8-19c0-7.5,2.6-13.8,7.7-19
				c5.1-5.2,11.3-7.8,18.7-7.8c6.8,0,12.4,2.2,16.9,6.7c4.5,4.5,6.8,10.1,6.8,16.9C561.5,383.4,561.4,387.7,560.5,390.3z
				 M537.4,369.3c-3.6,0-6.8,1.1-9.5,3.4c-2.7,2.3-4.5,5.3-5.3,9.2h27.8c-0.1-3.9-1.4-6.9-3.9-9.2c-2.5-2.3-5.6-3.4-9.3-3.4H537.4z"
				/>
			<path class="st0" d="M678.8,282.6h-38.1c0.7,4.3,2.6,7.6,5.6,10c3,2.4,6.8,3.5,11.2,3.5c5.3,0,10.3-2,14.9-6l5.2,7.5
				c-5.8,5.5-12.6,8.2-20.4,8.2c-7.9,0-14.5-2.6-19.7-7.7c-5.2-5.1-7.8-11.5-7.8-19c0-7.5,2.6-13.8,7.7-19
				c5.1-5.2,11.3-7.8,18.7-7.8c6.8,0,12.4,2.2,16.9,6.7c4.5,4.5,6.8,10.1,6.8,16.9C679.8,275.7,679.8,279.9,678.8,282.6z
				 M655.7,261.6c-3.6,0-6.8,1.1-9.5,3.4c-2.7,2.3-4.5,5.3-5.3,9.2h27.8c-0.1-3.9-1.4-6.9-3.9-9.2c-2.5-2.3-5.6-3.4-9.3-3.4H655.7z"
				/>
			<path class="st0" d="M599.9,403.5c1.6,0,3.7-0.3,6.7-0.6v9.3c-3.4,0.7-6.5,1.1-9.1,1.1c-5.9,0-10.5-1.5-13.8-4.4
				c-3.3-2.9-5-7.4-5-13.3v-25h-8.3v-9.5h8.3v-13.4h11v13.4h15.2v9.5h-15.2v24c0,3.2,0.8,5.5,2.5,6.9c1.7,1.4,4.2,2,7.5,2
				L599.9,403.5z"/>
			<path class="st0" d="M695.8,361.1l-22.7,52.3h-3.7l-16-34l-16,34h-3.7l-22.7-52.3h11.7l13.4,33.4l15.5-34.6h3.7l15.7,34.1
				l13.2-33H695.8z"/>
			<path class="st0" d="M746.6,367.6c-5.3-5.1-11.6-7.6-19.1-7.6c-7.6,0-13.9,2.6-19.2,7.7c-5.2,5.1-7.8,11.5-7.8,18.9
				c0,7.5,2.6,13.8,7.8,18.9c5.2,5.1,11.6,7.7,19.2,7.8c7.5,0,13.8-2.6,19.2-7.8c5.3-5.2,7.9-11.6,7.9-19
				C754.7,379.1,752,372.7,746.6,367.6z M738.6,398.4c-3,3.1-6.8,4.7-11.2,4.7c-4.6,0-8.3-1.6-11.3-4.7c-3-3.1-4.5-7.1-4.5-11.8
				c0-4.8,1.5-8.7,4.5-11.9c3-3.1,6.8-4.7,11.3-4.8l0.1,0c4.5,0.1,8.2,1.7,11.2,4.8c3,3.1,4.5,7.1,4.5,11.9
				C743.2,391.3,741.6,395.3,738.6,398.4z"/>
			<path class="st0" d="M792.2,360.6c1.6,0,2.9,0.2,4.2,0.5v9.7H793c-4.3,0-7.8,1.2-10.6,3.7c-2.8,2.5-4.3,5.9-4.3,10.4v27.5h-10.9
				v-51.3h10.2v6.7c3.6-4.8,8.6-7.2,15-7.2H792.2z"/>
			<path class="st0" d="M718.3,253c1.6,0,2.9,0.2,4.2,0.5v9.7h-3.3c-4.3,0-7.8,1.2-10.6,3.7c-2.8,2.5-4.3,5.9-4.3,10.4v27.5h-10.9
				v-51.3h10.2v6.7c3.6-4.8,8.6-7.2,15-7.2H718.3z"/>
			<path class="st0" d="M807.3,334.2h10.9v78.3h-10.9V334.2z M854,412.5h-13.1l-22.3-28.9l20-22.4h13.5l-20.6,22.5L854,412.5z"/>
			<path class="st0" d="M455,226.5h10.9v78.3H455V226.5z M501.7,304.8h-13.1l-22.3-28.9l20-22.4h13.5L479.2,276L501.7,304.8z"/>
		</g>
		<g>
			<path class="st1" d="M250,319.5l129.6,74.3c4.5,2.6,10.2-0.7,10.2-5.9V251c0-5.2-5.7-8.5-10.2-5.9L250,319.5z"/>
			<path class="st1" d="M372.1,213.1L286,147.4c-4-3-9.7-0.9-10.8,4l-31.4,146.4l127.6-73.3C375.6,222,376,216.1,372.1,213.1z"/>
			<path class="st1" d="M286,491.6l86.2-65.8c3.9-3,3.5-8.9-0.7-11.3l-127.7-73.3l31.5,146.4C276.2,492.5,282,494.6,286,491.6z"/>
			<path class="st1" d="M216.8,319.5l33.9-157.7c1.3-6.2-5.8-10.7-10.8-6.8l-86.8,66.3c-4.5,3.4-7.1,8.7-7.1,14.3v168
				c0,5.6,2.6,10.9,7.1,14.3l86.8,66.2c5,3.8,12.1-0.7,10.8-6.8L216.8,319.5z"/>
		</g>
	</g>
</g>
</svg>
