<svg xmlns="http://www.w3.org/2000/svg" xmlns:xlink="http://www.w3.org/1999/xlink" viewBox="0 0 315 70"><defs><style>.cls-1{fill:none}.cls-2{fill:url(#linear-gradient)}.cls-3,.cls-5{fill:#fff}.cls-4{clip-path:url(#clip-path)}.cls-5{opacity:.2}.cls-6{fill:url(#linear-gradient-2)}.cls-7{fill:url(#linear-gradient-3)}</style><linearGradient id="linear-gradient" x1="57.55" y1="4.4" x2="-.67" y2="90.08" gradientUnits="userSpaceOnUse"><stop offset="0" stop-color="#1abc9c"/><stop offset="1" stop-color="#1a5daf"/></linearGradient><clipPath id="clip-path"><circle class="cls-1" cx="36.76" cy="35" r="32"/></clipPath><linearGradient id="linear-gradient-2" x1="36.72" y1="3.36" x2="27.74" y2="63.33" xlink:href="#linear-gradient"/><linearGradient id="linear-gradient-3" x1="46.32" y1="4.8" x2="37.33" y2="64.77" xlink:href="#linear-gradient"/></defs><title>MyEtherWallet Logo</title><circle class="cls-2" cx="36.76" cy="35" r="32"/><g class="cls-4"><path class="cls-5" d="M65.73 35.27L55.71 59.8l-5.3-12.52 4.83-11.81h-2.61l-3.94 9.82-3.9-9.82h-2.57l4.83 11.81-5.26 12.52-10.06-24.53-5.05-11.9 5.2-12.52L41.9 35.38h2.96L33.13 7.7h-2.42L24.9 21.28 19.05 7.7h-2.38L4.97 35.38H7.9l10.06-24.53 5.26 12.52-4.83 11.82h2.57l3.9-9.83 3.94 9.91 11.7 27.69h2.38l5.85-13.69 5.81 13.69h2.42l11.73-27.69h-2.96z"/><path class="cls-6" d="M39.1 47.5a10.13 10.13 0 0 1-2.34.27c-5.58 0-10.33-4.25-10.67-10.56a19.86 19.86 0 0 1 .57-3.57L18 30a22.3 22.3 0 0 0-1.36 7.7c0 10.82 9.27 19.59 20.09 19.59A19.53 19.53 0 0 0 44 55.86z"/><path class="cls-7" d="M36.76 17a19.52 19.52 0 0 0-8.15 1.77l4.86 8.26a10.09 10.09 0 0 1 3.29-.55c4.94 0 10.18 4.14 10.68 9.24l-14.05.06L55.3 45.1a20 20 0 0 0 1.52-8.32C56.82 26 47.58 17 36.76 17z"/><path class="cls-3" d="M23.84 27.45zM39.1 45.36a10.13 10.13 0 0 1-2.34.27c-5.58 0-10.33-4.25-10.67-10.56a19.86 19.86 0 0 1 .57-3.57L18 27.82a22.3 22.3 0 0 0-1.36 7.7c0 10.82 9.27 19.59 20.09 19.59A19.53 19.53 0 0 0 44 53.72zm-2.34-30.47a19.52 19.52 0 0 0-8.15 1.77l4.86 8.26a10.09 10.09 0 0 1 3.29-.55c4.94 0 10.18 4.14 10.68 9.24l-14.05.06L55.3 43a20 20 0 0 0 1.52-8.32c0-10.86-9.24-19.79-20.06-19.79z"/></g><path class="cls-3" d="M108 44.56V30.21l-5.59 10.69h-2.31l-5.59-10.69v14.35H90.3V22.88h4.52l6.41 12.34 6.47-12.34h4.49v21.68H108zm9 3.11a8 8 0 0 0 1 .23 5.53 5.53 0 0 0 .82.08 1.75 1.75 0 0 0 .73-.15 1.57 1.57 0 0 0 .61-.53 5.23 5.23 0 0 0 .55-1.05q.27-.67.58-1.68l-6.32-16h4.21L123.49 41l3.85-12.46h3.85l-6.72 19.18a5.73 5.73 0 0 1-2 2.75 5.58 5.58 0 0 1-3.47 1.08 6.65 6.65 0 0 1-1-.08 6.36 6.36 0 0 1-1.05-.26v-3.54zm32.17-6.81v3.69h-15.05V22.88h14.78v3.69h-10.57v5.22h9.13v3.42h-9.13v5.65h10.84zm12.37 2.87a18.25 18.25 0 0 1-2 .73 8.47 8.47 0 0 1-2.5.37 5.82 5.82 0 0 1-1.6-.21 3.51 3.51 0 0 1-1.31-.69 3.35 3.35 0 0 1-.9-1.22 4.41 4.41 0 0 1-.34-1.82V31.7h-2.11v-3.14h2.11v-5.19H157v5.19h3.36v3.14H157v7.82a1.45 1.45 0 0 0 .44 1.21 1.69 1.69 0 0 0 1.08.35 3.76 3.76 0 0 0 1.25-.21q.61-.21 1-.37zm17.31.83h-4.09v-9a4.53 4.53 0 0 0-.7-2.79 2.37 2.37 0 0 0-2-.9 3.13 3.13 0 0 0-1.16.24 4.54 4.54 0 0 0-1.16.69 5.86 5.86 0 0 0-1 1.05 4.16 4.16 0 0 0-.67 1.34v9.34H164V22.27h4.09v9.25a6.17 6.17 0 0 1 2.4-2.4 6.77 6.77 0 0 1 3.34-.84 5.27 5.27 0 0 1 2.53.53 4 4 0 0 1 1.53 1.42 5.85 5.85 0 0 1 .76 2 12.48 12.48 0 0 1 .21 2.32v10zm11.3.3a8.88 8.88 0 0 1-3.48-.66 7.85 7.85 0 0 1-4.35-4.41 8.43 8.43 0 0 1-.6-3.15 8.91 8.91 0 0 1 .58-3.22 7.86 7.86 0 0 1 1.7-2.65 8 8 0 0 1 2.65-1.77 8.9 8.9 0 0 1 3.53-.67 8.68 8.68 0 0 1 3.5.67 8.05 8.05 0 0 1 2.63 1.8 7.67 7.67 0 0 1 1.65 2.63 8.75 8.75 0 0 1 .56 3.11v.76a3.14 3.14 0 0 1-.08.61h-12.38a4.75 4.75 0 0 0 .46 1.68 4.11 4.11 0 0 0 2.26 2 4.31 4.31 0 0 0 1.53.27 4.72 4.72 0 0 0 2.31-.6 3.15 3.15 0 0 0 1.48-1.57l3.51 1a7.14 7.14 0 0 1-2.82 3 8.75 8.75 0 0 1-4.64 1.17zm4.15-9.65a4.26 4.26 0 0 0-1.3-2.88 4.17 4.17 0 0 0-5.66 0 4.19 4.19 0 0 0-.9 1.25 4.41 4.41 0 0 0-.41 1.62h8.31zm16.55-3.11a8.07 8.07 0 0 0-3.33.72 4.2 4.2 0 0 0-2.11 2.06v9.68h-4.09v-16h3.76V32a7.29 7.29 0 0 1 1-1.48 7.76 7.76 0 0 1 1.25-1.15 5.82 5.82 0 0 1 1.36-.75 3.76 3.76 0 0 1 1.33-.26h.5a1.66 1.66 0 0 1 .32 0v3.74zm10.47-9.16h3.88l2.44 7.18 2.44-7.18H234l-3.7 9.86 2.7 6.93 6.14-16.86h4.58l-8.82 21.68h-3.5l-3.76-9.1-3.76 9.1h-3.54l-8.76-21.68h4.52l6.17 16.86L225 32.8zm27.42 21.92a6.07 6.07 0 0 1-2.17-.38 5.21 5.21 0 0 1-1.74-1.07 5 5 0 0 1-1.15-1.6 4.85 4.85 0 0 1-.41-2 4.44 4.44 0 0 1 .5-2.09 4.8 4.8 0 0 1 1.4-1.63 7 7 0 0 1 2.17-1.09 9.4 9.4 0 0 1 2.75-.38 11.85 11.85 0 0 1 2.09.18 8.54 8.54 0 0 1 1.82.52v-.9a3.21 3.21 0 0 0-.9-2.44 3.75 3.75 0 0 0-2.67-.85 7.08 7.08 0 0 0-2.5.46 11.63 11.63 0 0 0-2.5 1.34l-1.25-2.6a11.82 11.82 0 0 1 6.66-2 7.8 7.8 0 0 1 5.34 1.67 6.21 6.21 0 0 1 1.91 4.9v5a1.44 1.44 0 0 0 .23.92 1 1 0 0 0 .75.31v3.48a9.14 9.14 0 0 1-1.8.21 2.73 2.73 0 0 1-1.79-.52 2.23 2.23 0 0 1-.78-1.37l-.09-.93a7.08 7.08 0 0 1-2.6 2.14 7.45 7.45 0 0 1-3.27.72zm1.16-3a5.33 5.33 0 0 0 2-.37 3.58 3.58 0 0 0 1.45-1 1.47 1.47 0 0 0 .67-1.16v-1.8a10 10 0 0 0-1.59-.44 8.58 8.58 0 0 0-1.65-.17 4.37 4.37 0 0 0-2.6.72 2.15 2.15 0 0 0-1 1.82 2.18 2.18 0 0 0 .79 1.73 2.88 2.88 0 0 0 1.93.68zm12.28-19.59h4.09v17.16a2 2 0 0 0 .43 1.37 1.54 1.54 0 0 0 1.22.49 3.06 3.06 0 0 0 .81-.12 5.46 5.46 0 0 0 .84-.31l.55 3.14a7.9 7.9 0 0 1-1.92.61 10.52 10.52 0 0 1-2 .21 4.1 4.1 0 0 1-3-1 3.88 3.88 0 0 1-1.05-2.92V22.27zm9.98 0h4.09v17.16a2 2 0 0 0 .43 1.37 1.54 1.54 0 0 0 1.22.49 3.06 3.06 0 0 0 .81-.12 5.46 5.46 0 0 0 .84-.31l.55 3.14a7.9 7.9 0 0 1-1.92.61 10.52 10.52 0 0 1-2 .21 4.1 4.1 0 0 1-3-1 3.88 3.88 0 0 1-1.05-2.92V22.27zm17.44 22.59a8.88 8.88 0 0 1-3.48-.66 7.85 7.85 0 0 1-4.35-4.41 8.43 8.43 0 0 1-.6-3.15 8.91 8.91 0 0 1 .58-3.22 7.86 7.86 0 0 1 1.68-2.66A8 8 0 0 1 286.1 29a8.9 8.9 0 0 1 3.53-.67 8.68 8.68 0 0 1 3.5.67 8.05 8.05 0 0 1 2.63 1.8 7.67 7.67 0 0 1 1.65 2.63 8.75 8.75 0 0 1 .59 3.07v.76a3.14 3.14 0 0 1-.08.61h-12.41a4.75 4.75 0 0 0 .46 1.68 4.11 4.11 0 0 0 2.26 2 4.31 4.31 0 0 0 1.53.27 4.72 4.72 0 0 0 2.31-.6 3.15 3.15 0 0 0 1.48-1.57l3.51 1a7.14 7.14 0 0 1-2.82 3 8.75 8.75 0 0 1-4.64 1.21zm4.15-9.65a4.26 4.26 0 0 0-1.33-2.89 4.17 4.17 0 0 0-5.66 0 4.19 4.19 0 0 0-.9 1.25 4.41 4.41 0 0 0-.41 1.62h8.31zm16.49 8.52a18.25 18.25 0 0 1-2 .73 8.47 8.47 0 0 1-2.5.37 5.82 5.82 0 0 1-1.6-.21 3.51 3.51 0 0 1-1.31-.69 3.35 3.35 0 0 1-.9-1.22 4.41 4.41 0 0 1-.34-1.82V31.7h-2.11v-3.14h2.11v-5.19h4.09v5.19H309v3.14h-3.36v7.82a1.45 1.45 0 0 0 .44 1.21 1.69 1.69 0 0 0 1.08.35 3.76 3.76 0 0 0 1.25-.21q.61-.21 1-.37z"/></svg>
