<svg xmlns="http://www.w3.org/2000/svg" viewBox="0 0 274.72 111.33"><path d="M16.69 38.23a3.19 3.19 0 0 1 0-6.38h22.38c10.75 0 17.06 6.48 17.06 15.86S49 60.33 49 60.35c.06 0 10.58 3.78 10.58 14S50 90 42.65 90h-26a3.26 3.26 0 1 1 0-6.52h24.81c5.8 0 11.26-2.9 11.26-9.21 0-7.68-6.82-10.58-11.94-10.58H19.56a3.19 3.19 0 0 1 0-6.38h20.37C44.7 57.45 50 54 50 47.82s-4.44-9.64-9.72-9.64z" fill="#fff"/><path d="M15.74 89.76a3.24 3.24 0 0 1-2.36-3.19V35.43a3.24 3.24 0 0 1 2.36-3.19 3.14 3.14 0 0 1 3.91 3v51.48a3.14 3.14 0 0 1-3.91 3.04zM88.62 90.08a3.15 3.15 0 0 1-3.13-3.17V34.85a3.13 3.13 0 1 1 6.27 0v52.06a3.15 3.15 0 0 1-3.14 3.17zM163.2 37.91h-43.57a3.22 3.22 0 0 1-3.18-2.34 3.13 3.13 0 0 1 3-3.89H163a3.22 3.22 0 0 1 3.23 2.32 3.13 3.13 0 0 1-3.03 3.91z" fill="#fff"/><path d="M141.19 89a3.12 3.12 0 0 1-3.11-3.13l.15-50.26a3.12 3.12 0 0 1 3.12-3.11 3.12 3.12 0 0 1 3.11 3.13l-.15 50.26a3.12 3.12 0 0 1-3.12 3.11z" fill="#fff"/><path d="M180.89 24.82a3 3 0 0 1 .6-3.67 48.75 48.75 0 0 1 67.36.74 3 3 0 0 1-.4 4.68 3.17 3.17 0 0 1-4-.47 42.66 42.66 0 0 0-58.68-.62 3 3 0 0 1-4.88-.67z" fill="#f2db9e"/><path d="M171.93 79.77a48.54 48.54 0 0 1-4.35-35 3.11 3.11 0 0 1 3-2.4 3 3 0 0 1 2.93 3.8 42.59 42.59 0 0 0 28.95 51.25 3.17 3.17 0 0 1 2.36 3.07 3.05 3.05 0 0 1-3.92 2.82 48.35 48.35 0 0 1-28.97-23.54z" fill="#f27eb2"/><path d="M226.35 101.5a3 3 0 0 1 1.9-4.4 42.66 42.66 0 0 0 28.11-49.74 3.18 3.18 0 0 1 1.64-3.65 3 3 0 0 1 4.21 2.1A48.75 48.75 0 0 1 230 102.94a3 3 0 0 1-3.65-1.44z" fill="#0aa9b4"/><path d="M215.08 90.65a2.91 2.91 0 0 1-2.91-2.92v-14.1a2.91 2.91 0 0 1 2.91-2.91 2.91 2.91 0 0 1 2.92 2.92v14.1a2.91 2.91 0 0 1-2.92 2.91zM231.94 34.93s.05 2.26.05 11.22c0 13-7.57 14.73-16.84 14.8s-16.84-1.82-16.84-14.8c0-7.92.05-11.22.05-11.22 0-4.29-6.38-3.86-6.38 0V49c0 7.88 4.15 17.14 22.18 17.66h2c18-.53 22.18-9.78 22.18-17.66V34.93c-.03-3.86-6.4-4.29-6.4 0z" fill="#fff"/></svg>
