<svg id="Capa_1" data-name="Capa 1" xmlns="http://www.w3.org/2000/svg" xmlns:xlink="http://www.w3.org/1999/xlink" viewBox="0 0 694.11 499.03"><defs><style>.cls-1{fill:#ff2434;}.cls-2{fill:#fff;}.cls-3{fill:url(#linear-gradient);}.cls-4{fill:#ffe9c4;}.cls-5{fill:#33373c;}.cls-6{fill:#656d78;}.cls-7{fill:#2a93e7;}.cls-8{fill:#0d0d0d;}.cls-9{fill:#ffce00;}.cls-10{fill:#ffa21a;opacity:0.25;}.cls-11{fill:url(#linear-gradient-2);}.cls-12{fill:#1a1e22;}</style><linearGradient id="linear-gradient" x1="185.1" y1="377.23" x2="203.63" y2="370.75" gradientTransform="matrix(22.97, 0, 0, -26.91, -4269.09, 10304.39)" gradientUnits="userSpaceOnUse"><stop offset="0" stop-color="#fff" stop-opacity="0.2"/><stop offset="1" stop-color="#fff" stop-opacity="0"/></linearGradient><linearGradient id="linear-gradient-2" x1="218.04" y1="315.68" x2="237" y2="309.05" gradientTransform="matrix(11, 0, 0, -11, -1915.52, 3832.21)" xlink:href="#linear-gradient"/></defs><title>onboarding_icons</title><g id="Symbols"><g id="nav_security" data-name="nav security"><g id="Group-2"><g id="shield"><path id="Shape" class="cls-1" d="M144.56,272.93a18.1,18.1,0,0,1,3-21.86,67.81,67.81,0,0,1-5.52-26.84c0-39.53,34-71.57,75.89-71.57,29.43,0,54.95,15.8,67.54,38.89a68.06,68.06,0,0,1,2.83,59.52,18.18,18.18,0,0,1-12.77,31.1h-16.1V301a7.44,7.44,0,0,1-7.42,7.42H182.69a7.44,7.44,0,0,1-7.42-7.42V282.17H160.38a18.24,18.24,0,0,1-15.82-9.24ZM218,16.15A812.25,812.25,0,0,1,18.75,99.92V204.64c0,196.47,171.39,278.24,199.22,278.24s199.22-81.77,199.22-278.24V99.92A837.21,837.21,0,0,1,218,16.15Z"/><path id="Shape-2" data-name="Shape" class="cls-2" d="M147.6,251.07a18.18,18.18,0,0,0,12.77,31.1h14.89V301a7.44,7.44,0,0,0,7.42,7.42h69.37a7.44,7.44,0,0,0,7.42-7.42V282.17h16.1a18.23,18.23,0,0,0,15.82-9.24,18.1,18.1,0,0,0-3-21.86,68,68,0,0,0-2.84-59.52c-12.59-23.1-38.11-38.89-67.54-38.89s-54.95,15.8-67.54,38.89a68.05,68.05,0,0,0-2.83,59.52Z"/><path id="Shape-3" data-name="Shape" d="M218,143.17c-29.35,0-55.3,14.14-70.67,35.62l-20.71-12-2.82-10.52a9.49,9.49,0,1,0-18.33,4.91l1.38,5.15-5.15,1.38a9.49,9.49,0,1,0,4.91,18.33l10.52-2.82,21.06,12.16a77.38,77.38,0,0,0-1.35,54.05A27.41,27.41,0,0,0,132.7,264a27.74,27.74,0,0,0,.39,4.61l-16,9.23L106.59,275a9.49,9.49,0,0,0-4.91,18.33l5.15,1.38-1.38,5.15a9.49,9.49,0,1,0,18.33,4.91l2.82-10.52,15.89-9.18a27.55,27.55,0,0,0,17.89,6.58h5.41V301a16.92,16.92,0,0,0,16.9,16.9h69.37A16.92,16.92,0,0,0,269,301v-9.36h6.61a27.55,27.55,0,0,0,17.88-6.58l15.9,9.18,2.82,10.52a9.49,9.49,0,1,0,18.33-4.91l-1.38-5.15,5.15-1.38A9.49,9.49,0,0,0,329.35,275l-10.52,2.82-16-9.23a27.69,27.69,0,0,0,.39-4.61,27.41,27.41,0,0,0-4.12-14.51,77.36,77.36,0,0,0-1.35-54.05l21.06-12.16,10.52,2.82a9.49,9.49,0,1,0,4.91-18.33l-5.15-1.38,1.38-5.15a9.49,9.49,0,1,0-18.33-4.91l-2.82,10.51-20.71,12C273.27,157.31,247.33,143.17,218,143.17Zm57.6,129.51h-16.1a9.49,9.49,0,0,0-9.49,9.49v16.77H227.46V288.13a9.49,9.49,0,1,0-19,0v10.81H184.75V282.17a9.49,9.49,0,0,0-9.49-9.49H160.37a8.7,8.7,0,0,1-7.55-4.4l-.05-.1-.07-.1a8.64,8.64,0,0,1,1.57-10.27,9.49,9.49,0,0,0,2-10.49,58.23,58.23,0,0,1-4.75-23.1c0-34.23,29.79-62.09,66.41-62.09s66.4,27.85,66.4,62.09a58.22,58.22,0,0,1-4.75,23.1,9.49,9.49,0,0,0,2,10.49,8.64,8.64,0,0,1,1.57,10.25l-.08.12-.06.12A8.7,8.7,0,0,1,275.57,272.68Z"/><path id="Path" class="cls-3" d="M218,16.15A812.25,812.25,0,0,1,18.75,99.92V204.64c0,196.47,171.39,278.24,199.22,278.24s199.22-81.77,199.22-278.24V99.92A837.21,837.21,0,0,1,218,16.15Z"/><path id="Shape-4" data-name="Shape" d="M191.12,220.22A14.83,14.83,0,1,0,206,235.05,14.86,14.86,0,0,0,191.12,220.22Z"/><path id="Shape-5" data-name="Shape" d="M244.82,220.22a14.83,14.83,0,1,0,14.83,14.83A14.86,14.86,0,0,0,244.82,220.22Z"/><path id="Shape-6" data-name="Shape" d="M419.68,90.76A822.07,822.07,0,0,1,222.76,8a9.49,9.49,0,0,0-9.58,0A799.63,799.63,0,0,1,16.27,90.76a9.49,9.49,0,0,0-7,9.15V204.64c0,107.6,50.06,178.81,92.05,219.6C146.47,468.11,199,492.37,218,492.37s71.5-24.26,116.65-68.13c42-40.79,92-112,92-219.6V99.92A9.49,9.49,0,0,0,419.68,90.76Zm-12,113.88c0,101-46.93,167.75-86.3,206C276.66,454.1,228.66,473.4,218,473.4s-58.69-19.3-103.43-62.76c-39.37-38.24-86.3-105-86.3-206v-97.5A817.17,817.17,0,0,0,218,27.12a842.92,842.92,0,0,0,189.73,80v97.51Z"/><path id="Shape-7" data-name="Shape" d="M305.6,386.46a9.49,9.49,0,0,0,13.41-.54A263.81,263.81,0,0,0,360.77,326a9.49,9.49,0,0,0-16.94-8.55,244.83,244.83,0,0,1-38.77,55.6A9.49,9.49,0,0,0,305.6,386.46Z"/><path id="Shape-8" data-name="Shape" d="M141.79,97.18a9.49,9.49,0,0,0-12.4-5.11c-15.11,6.29-30.58,12.21-46,17.59a9.49,9.49,0,1,0,6.25,17.91c15.75-5.5,31.56-11.55,47-18A9.49,9.49,0,0,0,141.79,97.18Z"/><path id="Shape-9" data-name="Shape" d="M158.94,99a9.46,9.46,0,0,0,3.62-.72l.45-.2a9.49,9.49,0,0,0-7.77-17.31l-.1,0A9.49,9.49,0,0,0,158.94,99Z"/><path id="Shape-10" data-name="Shape" d="M286.43,391.36l-.07.07a9.49,9.49,0,0,0,12.33,14.42l.31-.28a9.49,9.49,0,0,0-12.57-14.21Z"/></g><g id="thief"><polygon id="Shape-11" data-name="Shape" class="cls-4" points="527.59 147.75 514.31 132.58 493.2 117.87 415.41 135.42 308.46 199.69 324.35 249.5 346.4 279.37 365.37 306.17 402.84 330.45 419.92 336.52 458.58 334.86 537.79 258.03 548.22 199.22 527.59 147.75"/><g id="Group"><path id="Shape-12" data-name="Shape" class="cls-5" d="M533,69.89,505.21,43.33,467.27,22.46l-48.68-3.16H372.41l-37.94,9.49,12.66,17.07s-24.66,19.59-24.66,21.49S294,119.86,294,119.86l-19,59.43,13.9,27.84L407.2,131.88l63.24-14.56,32.87-3.16,30.35,30.35,14.56-.64V107.21Z"/><polygon id="Shape-13" data-name="Shape" class="cls-6" points="371.3 158.43 320.52 187.03 314.39 201.59 317.23 219.61 548.22 214.87 548.22 158.43 371.3 158.43"/></g><g id="Group-2-2" data-name="Group"><path id="Shape-14" data-name="Shape" class="cls-4" d="M404.5,189.18c0,9.92-10.73,17.95-24,17.95s-24-8-24-17.95,10.73-17.95,24-17.95S404.5,179.27,404.5,189.18Z"/><path id="Shape-15" data-name="Shape" class="cls-4" d="M507.43,189.18c0,9.92-10.94,17.95-24.43,17.95s-24.43-8-24.43-17.95,10.94-17.95,24.43-17.95S507.43,179.27,507.43,189.18Z"/><path id="Shape-16" data-name="Shape" class="cls-4" d="M513.1,333.92S509.45,286,509,283.64s-12.1,13-12.1,13l-34,31.78-39.26,8.06s-29.44-4.74-30.36-6.08S352,290.52,349.9,287.91l-3.2,42.54-16.43,15.32,12.1,16.84L396,391.17s62.54-6.27,63.91-6.74,36.75-8.78,36.75-8.78l24.19-22.29Z"/></g><path id="Shape-17" data-name="Shape" class="cls-7" d="M537.79,462.94l-15.5-17.4-9.16-23.71-5.69-55.18L483,382l-44.19,6.64s-40.17-2.22-42.38-2.53-39.84-11.69-39.84-11.69-20.23-21.51-23.72-25.3l-94.22,36.06-16.13,11.69-9.81,30.67L207,483.81l338-4.28Z"/><path id="Shape-18" data-name="Shape" class="cls-8" d="M639.48,331.91C620,316.71,591.36,306.75,561,314q-38.79,9.22-44.8,9.52v-21.3c4.74-16.38,44.8-52.68,45.36-114.31.05-5.72-.24-9.93-.56-14.05-3.38-78.2-6.76-102.23-52.11-138.3-27.39-21.79-60-28.86-90.84-28.86-56.65,0-107,23.91-107,23.91l21.68,15.19s-79.36,52.4-59.42,183.51a1.47,1.47,0,0,0,1.6,1.42c3.69,0,13.47-7.54,27.86-18.59,4.89,27.88,17.73,54.22,34.21,76.3l-.24,35.07c-2.9,5.72-13.22,16.6-52.87,31.72-11.18,4.24-19.67,10.73-44.78,17.46l-1.72.5a55.5,55.5,0,0,0-38.24,52.68v66.5H593.76c50.22,0,69.62-35,77.91-66.5C679.23,397.08,667.66,353.9,639.48,331.91ZM357,323.63l.09-12.12c24.35,24.1,52.2,39.19,74,39.19s49.69-15.09,74.06-39.19l.06,12.12,0,4.27,1.69,3.74c.15.33.42.95.77,1.66a42.12,42.12,0,0,0,8.72,11.13c-1.78,3.85-3.38,7.77-4.83,11.71a143.34,143.34,0,0,1-80.46,24.5c-26.81,0-51.43-7-73.18-20.81a128,128,0,0,1-16-12c5.44-4.43,9.83-9.25,12.51-14.47.37-.71.64-1.33.79-1.68l1.69-3.75ZM541.35,187.88a120.18,120.18,0,0,1-2,21.15h-27.3c6.28-5.34,10.08-12.39,10.08-20.23s-3.79-14.9-10.08-20.23h28.07A158.19,158.19,0,0,1,541.35,187.88Zm-59.64-9.2c12.33,0,20.22,6,20.22,10.12S494,198.92,481.7,198.92s-20.25-6-20.25-10.12S469.34,178.67,481.7,178.67Zm-79.05-30.36c27.9-12.81,58.45-21.88,89.69-21.89q4.62,0,9.25.28l21.55,21.61Zm-22.14,30.36c12.35,0,20.23,6,20.23,10.12s-7.89,10.12-20.23,10.12-20.25-6-20.25-10.12S368.15,178.67,380.51,178.67Zm30.38-10.11H451.3C445,173.9,441.22,181,441.22,188.8S445,203.69,451.3,209H410.89c6.3-5.34,10.08-12.39,10.08-20.23S417.19,173.9,410.89,168.56Zm123.25,60.71c-6.94,20.4-18.68,40.52-34.39,58.46-11.62,13.24-24.63,24.31-37.65,32-11.61,6.89-22.63,10.69-31,10.69s-19.4-3.79-31-10.69c-13-7.72-26-18.79-37.65-32-15.73-17.93-27.46-38.06-34.39-58.46Zm-240.4-78.56a162.7,162.7,0,0,1,18.16-50.25c14.27-25.08,30.89-37.05,32-37.86l25.15-16.08L354.64,36.41c17.55-5,40-9.52,63.44-9.52,31.51,0,57.84,8.24,78.24,24.46,11,8.78,18.76,16.27,24.37,23.66A70.7,70.7,0,0,1,532.42,98.1c3.05,10,4.86,22,6.14,37l-22.62-22.68L510.49,107l-7.71-.46c-3.44-.21-6.94-.3-10.44-.3-20.19,0-41.43,3.44-63.13,10.2a320.76,320.76,0,0,0-56.26,24.16c-34,18.38-63,40.58-82.48,55.49A205.94,205.94,0,0,1,293.74,150.72Zm46.7,33.68a24,24,0,0,0-.42,4.4c0,7.84,3.78,14.9,10.08,20.23H322.79c-.65-3.68-1.16-7.32-1.48-11C327.25,193.67,333.65,189.06,340.44,184.39Zm-97.05,208.1,1.14-.33A196.25,196.25,0,0,0,282.3,378c3.25-1.56,6-2.89,8.78-3.93a279.94,279.94,0,0,0,33.39-14.88c14.5,14.05,50.14,41.63,106.66,41.63a162.88,162.88,0,0,0,73-17,112.33,112.33,0,0,0-1.48,17.42A91,91,0,0,0,505,421.51H219.63A35.28,35.28,0,0,1,243.39,392.49Zm187.7,79.62H219.36V441.76H512.21a91.34,91.34,0,0,0,24.4,30.35Z"/></g><g id="coin"><g id="dollar"><circle id="Oval" cx="589.44" cy="396.97" r="95.41"/><circle id="Oval-2" data-name="Oval" class="cls-9" cx="589.44" cy="396.97" r="76.33"/><path id="Shape-19" data-name="Shape" class="cls-10" d="M524.66,407.26a75,75,0,0,1,122-58.49A75,75,0,1,0,541.24,454.21,74.68,74.68,0,0,1,524.66,407.26Z"/><path id="Shape-20" data-name="Shape" class="cls-11" d="M589.44,492.37A95.41,95.41,0,1,0,494,397,95.51,95.51,0,0,0,589.44,492.37Z"/></g><path id="Ξ" class="cls-12" d="M606,354.79a15.6,15.6,0,0,1,.76,5.22q-.2,1.65-1.33,2l-45.09,12.08q-1.13.3-2.1-1a16.38,16.38,0,0,1-1.92-4.91,16,16,0,0,1-.79-5.21q.18-1.58,1.31-1.88l45.09-12.08A1.68,1.68,0,0,1,603,349a2.47,2.47,0,0,1,1,.9,8.86,8.86,0,0,1,1,1.88A27,27,0,0,1,606,354.79Zm3,32.33a14.24,14.24,0,0,1,.71,5,2,2,0,0,1-1.35,1.86l-34.61,9.27a1.64,1.64,0,0,1-1.1-.06,2.61,2.61,0,0,1-1-.88,8.27,8.27,0,0,1-1-1.82,24.93,24.93,0,0,1-.93-2.88,24.15,24.15,0,0,1-.63-2.93,8.22,8.22,0,0,1-.06-2,2.61,2.61,0,0,1,.43-1.26,1.64,1.64,0,0,1,.92-.6L605,381.56a1.64,1.64,0,0,1,1.1.06,2.61,2.61,0,0,1,1,.88,8.22,8.22,0,0,1,1,1.79A24.15,24.15,0,0,1,609,387.13Zm14.77,31.54a14.91,14.91,0,0,1,.73,5.23q-.23,1.66-1.36,2L577,438.23q-1.13.3-2.13-1a15.6,15.6,0,0,1-2-4.9,15.83,15.83,0,0,1-.78-5.31q.2-1.62,1.34-1.92l46.16-12.37a2,2,0,0,1,2.15,1A15.12,15.12,0,0,1,623.75,418.67Z"/></g></g></g></g></svg>