<svg xmlns="http://www.w3.org/2000/svg" id="Ebene_1" width="389.382" height="389.475">
  <g id="g5876" fill="#f0f0f0" transform="matrix(.55072 0 0 .55072 7.673 5.157)">
    <path id="path5320" d="M672.4 316L366.9 10.5C352.8-3.6 330-3.6 316 10.5L112.4 214.2c-14.1 14.1-14.1 36.9 0 50.9L316 468.8c14.1 14.1 36.9 14.1 50.9 0 14.1-14.1 14.1-36.9 0-50.9L188.7 239.7 341.4 86.9l280 280c14.1 14.1 36.9 14.1 50.9 0s14.2-36.8.1-50.9z" class="st3"/>
    <path id="path5322" d="M10.5 366.9L316 672.4c14.1 14.1 36.9 14.1 50.9 0l203.6-203.6c14.1-14.1 14.1-36.9 0-50.9L366.9 214.2c-14.1-14.1-36.9-14.1-50.9 0-14.1 14.1-14.1 36.9 0 50.9l178.2 178.2L341.5 596l-280-280c-14.1-14-36.9-14-51 0-14 14.1-14 36.9 0 50.9z" class="st3"/>
  </g>
</svg>
